SplineFontDB: 3.2
FontName: Atari-825-Regular-UL
FullName: Atari 825 Regular UL Regular
FamilyName: Atari 825 Regular UL
Weight: Book
Copyright: Copyright jeffpiep 2020\n"Atari 825 Regular
Version: 1.0
ItalicAngle: 0
UnderlinePosition: 74
UnderlineWidth: 49
Ascent: 800
Descent: 200
InvalidEm: 0
sfntRevision: 0x00010000
LayerCount: 2
Layer: 0 1 "Back" 1
Layer: 1 1 "Fore" 0
XUID: [1021 991 -801047843 17164]
StyleMap: 0x0040
FSType: 4
OS2Version: 2
OS2_WeightWidthSlopeOnly: 0
OS2_UseTypoMetrics: 0
CreationTime: 1592073488
ModificationTime: 1592074894
PfmFamily: 81
TTFWeight: 400
TTFWidth: 5
LineGap: 0
VLineGap: 0
Panose: 0 0 4 0 0 0 0 0 0 0
OS2TypoAscent: 800
OS2TypoAOffset: 0
OS2TypoDescent: -200
OS2TypoDOffset: 0
OS2TypoLinegap: 0
OS2WinAscent: 800
OS2WinAOffset: 0
OS2WinDescent: 200
OS2WinDOffset: 0
HheadAscent: 800
HheadAOffset: 0
HheadDescent: -200
HheadDOffset: 0
OS2SubXSize: 500
OS2SubYSize: 500
OS2SubXOff: 0
OS2SubYOff: -100
OS2SupXSize: 500
OS2SupYSize: 500
OS2SupXOff: 0
OS2SupYOff: 500
OS2StrikeYSize: 50
OS2StrikeYPos: 200
OS2CapHeight: 910
OS2XHeight: 710
OS2Vendor: 'FSTR'
OS2CodePages: 00000001.00000000
OS2UnicodeRanges: 80000001.00000000.00000000.00000000
MarkAttachClasses: 1
DEI: 91125
ShortTable: maxp 16
  1
  0
  102
  403
  19
  0
  0
  2
  0
  0
  0
  0
  0
  0
  0
  0
EndShort
LangName: 1033 "Copyright jeffpiep 2020+AAogHAAA-Atari 825 Regular" "" "Regular" "Atari 825 Regular UL" "" "Version 1.0" "" "FontStruct is a trademark of FontStruct.com" "https://fontstruct.com" "jeffpiep" "+IBwA-Atari 825 Regular UL+IB0A was built with FontStruct+AAogHAAA-Atari 825 Regular" "https://fontstruct.com/fontstructions/show/1773506/atari-825-regular-4" "https://fontstruct.com/fontstructors/show/1011029/jeffpiep" "Open Font License" "" "" "" "" "" "Five big quacking zephyrs jolt my wax bed"
Encoding: win
UnicodeInterp: none
NameList: AGL For New Fonts
DisplaySize: -48
AntiAlias: 1
FitToEm: 0
WinInfo: 110 22 7
BeginPrivate: 0
EndPrivate
BeginChars: 256 99

StartChar: space
Encoding: 32 32 0
Width: 600
VWidth: 833
Flags: W
LayerCount: 2
Fore
SplineSet
46 -167 m 1,0,1
 28 -167 28 -167 13 -153 c 0,2,3
 0 -140 0 -140 0 -121 c 0,4,5
 0 -103 0 -103 13 -88 c 0,6,7
 27 -75 27 -75 46 -75 c 0,8,9
 65 -75 65 -75 78 -88 c 256,10,11
 91 -101 91 -101 92 -121 c 0,12,13
 92 -140 92 -140 78 -153 c 256,14,15
 65 -166 65 -166 46 -167 c 1,16,-1
 46 -167 l 1,0,1
166 -167 m 1,17,18
 148 -167 148 -167 133 -153 c 0,19,20
 120 -140 120 -140 120 -121 c 0,21,22
 120 -103 120 -103 133 -88 c 0,23,24
 147 -75 147 -75 166 -75 c 0,25,26
 185 -75 185 -75 198 -88 c 256,27,28
 211 -101 211 -101 212 -121 c 0,29,30
 212 -140 212 -140 198 -153 c 256,31,32
 185 -166 185 -166 166 -167 c 1,33,-1
 166 -167 l 1,17,18
286 -167 m 1,34,35
 267 -167 267 -167 253 -153 c 256,36,37
 240 -140 240 -140 240 -121 c 0,38,39
 240 -103 240 -103 253 -88 c 256,40,41
 266 -75 266 -75 286 -75 c 256,42,43
 305 -75 305 -75 318 -88 c 256,44,45
 331 -101 331 -101 332 -121 c 0,46,47
 332 -140 332 -140 318 -153 c 256,48,49
 305 -166 305 -166 286 -167 c 1,50,-1
 286 -167 l 1,34,35
406 -167 m 1,51,52
 387 -167 387 -167 373 -153 c 256,53,54
 360 -140 360 -140 360 -121 c 0,55,56
 360 -103 360 -103 373 -88 c 256,57,58
 386 -75 386 -75 406 -75 c 256,59,60
 425 -75 425 -75 438 -88 c 256,61,62
 451 -101 451 -101 452 -121 c 0,63,64
 452 -140 452 -140 438 -153 c 256,65,66
 425 -166 425 -166 406 -167 c 1,67,-1
 406 -167 l 1,51,52
526 -167 m 1,68,69
 507 -167 507 -167 493 -153 c 256,70,71
 480 -140 480 -140 480 -121 c 0,72,73
 480 -103 480 -103 493 -88 c 256,74,75
 506 -75 506 -75 526 -75 c 256,76,77
 545 -75 545 -75 558 -88 c 256,78,79
 571 -101 571 -101 572 -121 c 0,80,81
 572 -140 572 -140 558 -153 c 256,82,83
 545 -166 545 -166 526 -167 c 1,84,-1
 526 -167 l 1,68,69
EndSplineSet
EndChar

StartChar: exclam
Encoding: 33 33 1
Width: 600
VWidth: 833
Flags: W
LayerCount: 2
Fore
SplineSet
46 -167 m 1,0,1
 28 -167 28 -167 13 -153 c 0,2,3
 0 -140 0 -140 0 -121 c 0,4,5
 0 -103 0 -103 13 -88 c 0,6,7
 27 -75 27 -75 46 -75 c 0,8,9
 65 -75 65 -75 78 -88 c 256,10,11
 91 -101 91 -101 92 -121 c 0,12,13
 92 -140 92 -140 78 -153 c 256,14,15
 65 -166 65 -166 46 -167 c 1,16,-1
 46 -167 l 1,0,1
166 -167 m 1,17,18
 148 -167 148 -167 133 -153 c 0,19,20
 120 -140 120 -140 120 -121 c 0,21,22
 120 -103 120 -103 133 -88 c 0,23,24
 147 -75 147 -75 166 -75 c 0,25,26
 185 -75 185 -75 198 -88 c 256,27,28
 211 -101 211 -101 212 -121 c 0,29,30
 212 -140 212 -140 198 -153 c 256,31,32
 185 -166 185 -166 166 -167 c 1,33,-1
 166 -167 l 1,17,18
286 -167 m 1,34,35
 267 -167 267 -167 253 -153 c 256,36,37
 240 -140 240 -140 240 -121 c 0,38,39
 240 -103 240 -103 253 -88 c 256,40,41
 266 -75 266 -75 286 -75 c 256,42,43
 305 -75 305 -75 318 -88 c 256,44,45
 331 -101 331 -101 332 -121 c 0,46,47
 332 -140 332 -140 318 -153 c 256,48,49
 305 -166 305 -166 286 -167 c 1,50,-1
 286 -167 l 1,34,35
406 -167 m 1,51,52
 387 -167 387 -167 373 -153 c 256,53,54
 360 -140 360 -140 360 -121 c 0,55,56
 360 -103 360 -103 373 -88 c 256,57,58
 386 -75 386 -75 406 -75 c 256,59,60
 425 -75 425 -75 438 -88 c 256,61,62
 451 -101 451 -101 452 -121 c 0,63,64
 452 -140 452 -140 438 -153 c 256,65,66
 425 -166 425 -166 406 -167 c 1,67,-1
 406 -167 l 1,51,52
526 -167 m 1,68,69
 507 -167 507 -167 493 -153 c 256,70,71
 480 -140 480 -140 480 -121 c 0,72,73
 480 -103 480 -103 493 -88 c 256,74,75
 506 -75 506 -75 526 -75 c 256,76,77
 545 -75 545 -75 558 -88 c 256,78,79
 571 -101 571 -101 572 -121 c 0,80,81
 572 -140 572 -140 558 -153 c 256,82,83
 545 -166 545 -166 526 -167 c 1,84,-1
 526 -167 l 1,68,69
226 0 m 1,85,86
 207 0 207 0 193 13 c 0,87,88
 180 27 180 27 180 46 c 0,89,90
 180 65 180 65 193 78 c 256,91,92
 206 91 206 91 226 92 c 0,93,94
 244 92 244 92 258 78 c 0,95,96
 271 65 271 65 272 46 c 0,97,98
 272 28 272 28 258 13 c 0,99,100
 244 0 244 0 226 0 c 1,101,-1
 226 0 l 1,85,86
226 250 m 1,102,103
 207 250 207 250 193 263 c 256,104,105
 180 276 180 276 180 296 c 0,106,107
 180 314 180 314 193 328 c 0,108,109
 199 334 199 334 207 338 c 1,110,-1
 207 338 l 1,111,112
 199 341 199 341 193 347 c 0,113,114
 180 360 180 360 180 379 c 0,115,116
 180 398 180 398 193 412 c 0,117,118
 199 418 199 418 207 421 c 1,119,-1
 207 421 l 1,120,121
 199 424 199 424 193 430 c 0,122,123
 180 444 180 444 180 462 c 0,124,125
 180 481 180 481 193 495 c 0,126,127
 199 501 199 501 207 504 c 1,128,-1
 207 504 l 1,129,130
 199 507 199 507 193 513 c 0,131,132
 180 526 180 526 180 546 c 256,133,134
 180 565 180 565 193 578 c 256,135,136
 206 591 206 591 226 592 c 0,137,138
 244 592 244 592 258 578 c 0,139,140
 271 565 271 565 272 546 c 256,141,142
 272 527 272 527 258 513 c 0,143,144
 252 507 252 507 245 504 c 1,145,-1
 245 504 l 1,146,147
 252 501 252 501 258 495 c 0,148,149
 271 482 271 482 272 462 c 0,150,151
 272 444 272 444 258 430 c 0,152,153
 252 424 252 424 245 421 c 1,154,-1
 245 421 l 1,155,156
 252 418 252 418 258 412 c 0,157,158
 271 399 271 399 272 379 c 0,159,160
 272 361 272 361 258 347 c 0,161,162
 252 342 252 342 245 338 c 1,163,-1
 245 338 l 1,164,165
 252 335 252 335 258 328 c 0,166,167
 271 315 271 315 272 296 c 0,168,169
 272 277 272 277 258 263 c 0,170,171
 244 250 244 250 226 250 c 1,172,-1
 226 250 l 1,102,103
EndSplineSet
EndChar

StartChar: quotedbl
Encoding: 34 34 2
Width: 600
VWidth: 833
Flags: W
LayerCount: 2
Fore
SplineSet
46 -167 m 1,0,1
 28 -167 28 -167 13 -153 c 0,2,3
 0 -140 0 -140 0 -121 c 0,4,5
 0 -103 0 -103 13 -88 c 0,6,7
 27 -75 27 -75 46 -75 c 0,8,9
 65 -75 65 -75 78 -88 c 256,10,11
 91 -101 91 -101 92 -121 c 0,12,13
 92 -140 92 -140 78 -153 c 256,14,15
 65 -166 65 -166 46 -167 c 1,16,-1
 46 -167 l 1,0,1
166 -167 m 1,17,18
 148 -167 148 -167 133 -153 c 0,19,20
 120 -140 120 -140 120 -121 c 0,21,22
 120 -103 120 -103 133 -88 c 0,23,24
 147 -75 147 -75 166 -75 c 0,25,26
 185 -75 185 -75 198 -88 c 256,27,28
 211 -101 211 -101 212 -121 c 0,29,30
 212 -140 212 -140 198 -153 c 256,31,32
 185 -166 185 -166 166 -167 c 1,33,-1
 166 -167 l 1,17,18
286 -167 m 1,34,35
 267 -167 267 -167 253 -153 c 256,36,37
 240 -140 240 -140 240 -121 c 0,38,39
 240 -103 240 -103 253 -88 c 256,40,41
 266 -75 266 -75 286 -75 c 256,42,43
 305 -75 305 -75 318 -88 c 256,44,45
 331 -101 331 -101 332 -121 c 0,46,47
 332 -140 332 -140 318 -153 c 256,48,49
 305 -166 305 -166 286 -167 c 1,50,-1
 286 -167 l 1,34,35
406 -167 m 1,51,52
 387 -167 387 -167 373 -153 c 256,53,54
 360 -140 360 -140 360 -121 c 0,55,56
 360 -103 360 -103 373 -88 c 256,57,58
 386 -75 386 -75 406 -75 c 256,59,60
 425 -75 425 -75 438 -88 c 256,61,62
 451 -101 451 -101 452 -121 c 0,63,64
 452 -140 452 -140 438 -153 c 256,65,66
 425 -166 425 -166 406 -167 c 1,67,-1
 406 -167 l 1,51,52
526 -167 m 1,68,69
 507 -167 507 -167 493 -153 c 256,70,71
 480 -140 480 -140 480 -121 c 0,72,73
 480 -103 480 -103 493 -88 c 256,74,75
 506 -75 506 -75 526 -75 c 256,76,77
 545 -75 545 -75 558 -88 c 256,78,79
 571 -101 571 -101 572 -121 c 0,80,81
 572 -140 572 -140 558 -153 c 256,82,83
 545 -166 545 -166 526 -167 c 1,84,-1
 526 -167 l 1,68,69
166 333 m 1,85,86
 148 333 148 333 133 347 c 0,87,88
 120 360 120 360 120 379 c 0,89,90
 120 398 120 398 133 412 c 0,91,92
 139 418 139 418 146 421 c 1,93,-1
 146 421 l 1,94,95
 139 424 139 424 133 430 c 0,96,97
 120 444 120 444 120 462 c 0,98,99
 120 481 120 481 133 495 c 0,100,101
 139 501 139 501 146 504 c 1,102,-1
 146 504 l 1,103,104
 139 507 139 507 133 513 c 0,105,106
 120 526 120 526 120 546 c 256,107,108
 120 565 120 565 133 578 c 0,109,110
 147 591 147 591 166 592 c 0,111,112
 185 592 185 592 198 578 c 256,113,114
 211 565 211 565 212 546 c 256,115,116
 212 527 212 527 198 513 c 0,117,118
 192 507 192 507 185 504 c 1,119,-1
 185 504 l 1,120,121
 192 501 192 501 198 495 c 0,122,123
 211 482 211 482 212 462 c 0,124,125
 212 444 212 444 198 430 c 0,126,127
 192 424 192 424 185 421 c 1,128,-1
 185 421 l 1,129,130
 192 418 192 418 198 412 c 0,131,132
 211 399 211 399 212 379 c 0,133,134
 212 361 212 361 198 347 c 256,135,136
 185 334 185 334 166 333 c 1,137,-1
 166 333 l 1,85,86
406 333 m 1,138,139
 387 333 387 333 373 347 c 256,140,141
 360 360 360 360 360 379 c 0,142,143
 360 398 360 398 373 412 c 0,144,145
 379 418 379 418 386 421 c 1,146,-1
 386 421 l 1,147,148
 379 424 379 424 373 430 c 0,149,150
 360 444 360 444 360 462 c 0,151,152
 360 481 360 481 373 495 c 0,153,154
 379 501 379 501 386 504 c 1,155,-1
 386 504 l 1,156,157
 379 507 379 507 373 513 c 0,158,159
 360 526 360 526 360 546 c 256,160,161
 360 565 360 565 373 578 c 256,162,163
 386 591 386 591 406 592 c 256,164,165
 425 592 425 592 438 578 c 256,166,167
 451 565 451 565 452 546 c 256,168,169
 452 527 452 527 438 513 c 0,170,171
 432 507 432 507 425 504 c 1,172,-1
 425 504 l 1,173,174
 432 501 432 501 438 495 c 0,175,176
 451 482 451 482 452 462 c 0,177,178
 452 444 452 444 438 430 c 0,179,180
 432 424 432 424 425 421 c 1,181,-1
 425 421 l 1,182,183
 432 418 432 418 438 412 c 0,184,185
 451 399 451 399 452 379 c 0,186,187
 452 361 452 361 438 347 c 256,188,189
 425 334 425 334 406 333 c 1,190,-1
 406 333 l 1,138,139
EndSplineSet
EndChar

StartChar: numbersign
Encoding: 35 35 3
Width: 600
VWidth: 833
Flags: W
LayerCount: 2
Fore
SplineSet
46 -167 m 1,0,1
 28 -167 28 -167 13 -153 c 0,2,3
 0 -140 0 -140 0 -121 c 0,4,5
 0 -103 0 -103 13 -88 c 0,6,7
 27 -75 27 -75 46 -75 c 0,8,9
 65 -75 65 -75 78 -88 c 256,10,11
 91 -101 91 -101 92 -121 c 0,12,13
 92 -140 92 -140 78 -153 c 256,14,15
 65 -166 65 -166 46 -167 c 1,16,-1
 46 -167 l 1,0,1
166 -167 m 1,17,18
 148 -167 148 -167 133 -153 c 0,19,20
 120 -140 120 -140 120 -121 c 0,21,22
 120 -103 120 -103 133 -88 c 0,23,24
 147 -75 147 -75 166 -75 c 0,25,26
 185 -75 185 -75 198 -88 c 256,27,28
 211 -101 211 -101 212 -121 c 0,29,30
 212 -140 212 -140 198 -153 c 256,31,32
 185 -166 185 -166 166 -167 c 1,33,-1
 166 -167 l 1,17,18
286 -167 m 1,34,35
 267 -167 267 -167 253 -153 c 256,36,37
 240 -140 240 -140 240 -121 c 0,38,39
 240 -103 240 -103 253 -88 c 256,40,41
 266 -75 266 -75 286 -75 c 256,42,43
 305 -75 305 -75 318 -88 c 256,44,45
 331 -101 331 -101 332 -121 c 0,46,47
 332 -140 332 -140 318 -153 c 256,48,49
 305 -166 305 -166 286 -167 c 1,50,-1
 286 -167 l 1,34,35
406 -167 m 1,51,52
 387 -167 387 -167 373 -153 c 256,53,54
 360 -140 360 -140 360 -121 c 0,55,56
 360 -103 360 -103 373 -88 c 256,57,58
 386 -75 386 -75 406 -75 c 256,59,60
 425 -75 425 -75 438 -88 c 256,61,62
 451 -101 451 -101 452 -121 c 0,63,64
 452 -140 452 -140 438 -153 c 256,65,66
 425 -166 425 -166 406 -167 c 1,67,-1
 406 -167 l 1,51,52
526 -167 m 1,68,69
 507 -167 507 -167 493 -153 c 256,70,71
 480 -140 480 -140 480 -121 c 0,72,73
 480 -103 480 -103 493 -88 c 256,74,75
 506 -75 506 -75 526 -75 c 256,76,77
 545 -75 545 -75 558 -88 c 256,78,79
 571 -101 571 -101 572 -121 c 0,80,81
 572 -140 572 -140 558 -153 c 256,82,83
 545 -166 545 -166 526 -167 c 1,84,-1
 526 -167 l 1,68,69
46 167 m 1,85,86
 28 167 28 167 13 180 c 0,87,88
 0 192 0 192 0 212 c 0,89,90
 0 230 0 230 13 244 c 0,91,92
 27 257 27 257 46 258 c 0,93,94
 65 258 65 258 78 244 c 256,95,96
 91 230 91 230 92 212 c 0,97,98
 92 193 92 193 78 180 c 256,99,100
 65 167 65 167 46 167 c 1,101,-1
 46 167 l 1,85,86
406 167 m 1,102,103
 387 167 387 167 373 180 c 256,104,105
 360 192 360 192 360 212 c 0,106,107
 360 230 360 230 373 244 c 256,108,109
 386 257 386 257 406 258 c 256,110,111
 425 258 425 258 438 244 c 256,112,113
 451 230 451 230 452 212 c 0,114,115
 452 193 452 193 438 180 c 256,116,117
 425 167 425 167 406 167 c 1,118,-1
 406 167 l 1,102,103
46 333 m 1,119,120
 28 333 28 333 13 347 c 0,121,122
 0 360 0 360 0 379 c 0,123,124
 0 398 0 398 13 412 c 0,125,126
 27 425 27 425 46 425 c 0,127,128
 65 425 65 425 78 412 c 256,129,130
 91 399 91 399 92 379 c 0,131,132
 92 361 92 361 78 347 c 256,133,134
 65 334 65 334 46 333 c 1,135,-1
 46 333 l 1,119,120
406 333 m 1,136,137
 387 333 387 333 373 347 c 256,138,139
 360 360 360 360 360 379 c 0,140,141
 360 398 360 398 373 412 c 256,142,143
 386 425 386 425 406 425 c 256,144,145
 425 425 425 425 438 412 c 256,146,147
 451 399 451 399 452 379 c 0,148,149
 452 361 452 361 438 347 c 256,150,151
 425 334 425 334 406 333 c 1,152,-1
 406 333 l 1,136,137
166 0 m 1,153,154
 148 0 148 0 133 13 c 0,155,156
 120 27 120 27 120 46 c 0,157,158
 120 65 120 65 133 78 c 0,159,160
 139 84 139 84 146 88 c 1,161,-1
 146 88 l 1,162,163
 139 91 139 91 133 97 c 0,164,165
 120 110 120 110 120 129 c 256,166,167
 120 148 120 148 133 162 c 0,168,169
 139 168 139 168 146 171 c 1,170,-1
 146 171 l 1,171,172
 139 174 139 174 133 180 c 0,173,174
 120 192 120 192 120 212 c 0,175,176
 120 230 120 230 133 244 c 0,177,178
 139 250 139 250 146 254 c 1,179,-1
 146 254 l 1,180,181
 139 257 139 257 133 263 c 0,182,183
 120 276 120 276 120 296 c 0,184,185
 120 314 120 314 133 328 c 0,186,187
 139 334 139 334 146 338 c 1,188,-1
 146 338 l 1,189,190
 139 341 139 341 133 347 c 0,191,192
 120 360 120 360 120 379 c 0,193,194
 120 398 120 398 133 412 c 0,195,196
 139 418 139 418 146 421 c 1,197,-1
 146 421 l 1,198,199
 139 424 139 424 133 430 c 0,200,201
 120 444 120 444 120 462 c 0,202,203
 120 481 120 481 133 495 c 0,204,205
 139 501 139 501 146 504 c 1,206,-1
 146 504 l 1,207,208
 139 507 139 507 133 513 c 0,209,210
 120 526 120 526 120 546 c 256,211,212
 120 565 120 565 133 578 c 0,213,214
 147 591 147 591 166 592 c 0,215,216
 185 592 185 592 198 578 c 256,217,218
 211 565 211 565 212 546 c 256,219,220
 212 527 212 527 198 513 c 0,221,222
 192 507 192 507 185 504 c 1,223,-1
 185 504 l 1,224,225
 192 501 192 501 198 495 c 0,226,227
 211 482 211 482 212 462 c 0,228,229
 212 444 212 444 198 430 c 0,230,231
 192 424 192 424 185 421 c 1,232,-1
 185 421 l 1,233,234
 192 418 192 418 198 412 c 0,235,236
 211 399 211 399 212 379 c 0,237,238
 212 361 212 361 198 347 c 0,239,240
 192 342 192 342 185 338 c 1,241,-1
 185 338 l 1,242,243
 192 335 192 335 198 328 c 0,244,245
 211 315 211 315 212 296 c 0,246,247
 212 277 212 277 198 263 c 0,248,249
 192 257 192 257 185 254 c 1,250,-1
 185 254 l 1,251,252
 192 251 192 251 198 244 c 0,253,254
 211 230 211 230 212 212 c 0,255,256
 212 193 212 193 198 180 c 0,257,258
 192 174 192 174 185 171 c 1,259,-1
 185 171 l 1,260,261
 192 168 192 168 198 162 c 0,262,263
 211 149 211 149 212 129 c 256,264,265
 212 110 212 110 198 97 c 0,266,267
 192 92 192 92 185 88 c 1,268,-1
 185 88 l 1,269,270
 192 85 192 85 198 78 c 0,271,272
 211 65 211 65 212 46 c 0,273,274
 212 28 212 28 198 13 c 0,275,276
 185 0 185 0 166 0 c 1,277,-1
 166 0 l 1,153,154
286 0 m 1,278,279
 267 0 267 0 253 13 c 0,280,281
 240 27 240 27 240 46 c 0,282,283
 240 65 240 65 253 78 c 0,284,285
 259 84 259 84 266 88 c 1,286,-1
 266 88 l 1,287,288
 259 91 259 91 253 97 c 0,289,290
 240 110 240 110 240 129 c 256,291,292
 240 148 240 148 253 162 c 0,293,294
 259 168 259 168 266 171 c 1,295,-1
 266 171 l 1,296,297
 259 174 259 174 253 180 c 0,298,299
 240 192 240 192 240 212 c 0,300,301
 240 230 240 230 253 244 c 0,302,303
 259 250 259 250 266 254 c 1,304,-1
 266 254 l 1,305,306
 259 257 259 257 253 263 c 0,307,308
 240 276 240 276 240 296 c 0,309,310
 240 314 240 314 253 328 c 0,311,312
 259 334 259 334 266 338 c 1,313,-1
 266 338 l 1,314,315
 259 341 259 341 253 347 c 0,316,317
 240 360 240 360 240 379 c 0,318,319
 240 398 240 398 253 412 c 0,320,321
 259 418 259 418 266 421 c 1,322,-1
 266 421 l 1,323,324
 259 424 259 424 253 430 c 0,325,326
 240 444 240 444 240 462 c 0,327,328
 240 481 240 481 253 495 c 0,329,330
 259 501 259 501 266 504 c 1,331,-1
 266 504 l 1,332,333
 259 507 259 507 253 513 c 0,334,335
 240 526 240 526 240 546 c 256,336,337
 240 565 240 565 253 578 c 256,338,339
 266 591 266 591 286 592 c 256,340,341
 305 592 305 592 318 578 c 256,342,343
 331 565 331 565 332 546 c 256,344,345
 332 527 332 527 318 513 c 0,346,347
 312 507 312 507 305 504 c 1,348,-1
 305 504 l 1,349,350
 312 501 312 501 318 495 c 0,351,352
 331 482 331 482 332 462 c 0,353,354
 332 444 332 444 318 430 c 0,355,356
 312 424 312 424 305 421 c 1,357,-1
 305 421 l 1,358,359
 312 418 312 418 318 412 c 0,360,361
 331 399 331 399 332 379 c 0,362,363
 332 361 332 361 318 347 c 0,364,365
 312 342 312 342 305 338 c 1,366,-1
 305 338 l 1,367,368
 312 335 312 335 318 328 c 0,369,370
 331 315 331 315 332 296 c 0,371,372
 332 277 332 277 318 263 c 0,373,374
 312 257 312 257 305 254 c 1,375,-1
 305 254 l 1,376,377
 312 251 312 251 318 244 c 0,378,379
 331 230 331 230 332 212 c 0,380,381
 332 193 332 193 318 180 c 0,382,383
 312 174 312 174 305 171 c 1,384,-1
 305 171 l 1,385,386
 312 168 312 168 318 162 c 0,387,388
 331 149 331 149 332 129 c 256,389,390
 332 110 332 110 318 97 c 0,391,392
 312 92 312 92 305 88 c 1,393,-1
 305 88 l 1,394,395
 312 85 312 85 318 78 c 0,396,397
 331 65 331 65 332 46 c 0,398,399
 332 28 332 28 318 13 c 0,400,401
 305 0 305 0 286 0 c 1,402,-1
 286 0 l 1,278,279
EndSplineSet
EndChar

StartChar: dollar
Encoding: 36 36 4
Width: 600
VWidth: 833
Flags: W
LayerCount: 2
Fore
SplineSet
46 -167 m 1,0,1
 28 -167 28 -167 13 -153 c 0,2,3
 0 -140 0 -140 0 -121 c 0,4,5
 0 -103 0 -103 13 -88 c 0,6,7
 27 -75 27 -75 46 -75 c 0,8,9
 65 -75 65 -75 78 -88 c 256,10,11
 91 -101 91 -101 92 -121 c 0,12,13
 92 -140 92 -140 78 -153 c 256,14,15
 65 -166 65 -166 46 -167 c 1,16,-1
 46 -167 l 1,0,1
166 -167 m 1,17,18
 148 -167 148 -167 133 -153 c 0,19,20
 120 -140 120 -140 120 -121 c 0,21,22
 120 -103 120 -103 133 -88 c 0,23,24
 147 -75 147 -75 166 -75 c 0,25,26
 185 -75 185 -75 198 -88 c 256,27,28
 211 -101 211 -101 212 -121 c 0,29,30
 212 -140 212 -140 198 -153 c 256,31,32
 185 -166 185 -166 166 -167 c 1,33,-1
 166 -167 l 1,17,18
286 -167 m 1,34,35
 267 -167 267 -167 253 -153 c 256,36,37
 240 -140 240 -140 240 -121 c 0,38,39
 240 -103 240 -103 253 -88 c 256,40,41
 266 -75 266 -75 286 -75 c 256,42,43
 305 -75 305 -75 318 -88 c 256,44,45
 331 -101 331 -101 332 -121 c 0,46,47
 332 -140 332 -140 318 -153 c 256,48,49
 305 -166 305 -166 286 -167 c 1,50,-1
 286 -167 l 1,34,35
406 -167 m 1,51,52
 387 -167 387 -167 373 -153 c 256,53,54
 360 -140 360 -140 360 -121 c 0,55,56
 360 -103 360 -103 373 -88 c 256,57,58
 386 -75 386 -75 406 -75 c 256,59,60
 425 -75 425 -75 438 -88 c 256,61,62
 451 -101 451 -101 452 -121 c 0,63,64
 452 -140 452 -140 438 -153 c 256,65,66
 425 -166 425 -166 406 -167 c 1,67,-1
 406 -167 l 1,51,52
526 -167 m 1,68,69
 507 -167 507 -167 493 -153 c 256,70,71
 480 -140 480 -140 480 -121 c 0,72,73
 480 -103 480 -103 493 -88 c 256,74,75
 506 -75 506 -75 526 -75 c 256,76,77
 545 -75 545 -75 558 -88 c 256,78,79
 571 -101 571 -101 572 -121 c 0,80,81
 572 -140 572 -140 558 -153 c 256,82,83
 545 -166 545 -166 526 -167 c 1,84,-1
 526 -167 l 1,68,69
106 83 m 1,85,86
 87 83 87 83 73 97 c 256,87,88
 60 110 60 110 60 129 c 256,89,90
 60 148 60 148 73 162 c 256,91,92
 86 175 86 175 106 175 c 0,93,94
 124 175 124 175 138 162 c 0,95,96
 151 149 151 149 152 129 c 256,97,98
 152 110 152 110 138 97 c 0,99,100
 124 84 124 84 106 83 c 1,101,-1
 106 83 l 1,85,86
346 83 m 1,102,103
 327 83 327 83 313 97 c 256,104,105
 300 110 300 110 300 129 c 256,106,107
 300 148 300 148 313 162 c 256,108,109
 326 175 326 175 346 175 c 0,110,111
 364 175 364 175 378 162 c 256,112,113
 391 149 391 149 392 129 c 256,114,115
 392 110 392 110 378 97 c 256,116,117
 365 84 365 84 346 83 c 1,118,-1
 346 83 l 1,102,103
406 167 m 1,119,120
 387 167 387 167 373 180 c 256,121,122
 360 192 360 192 360 212 c 0,123,124
 360 230 360 230 373 244 c 256,125,126
 386 257 386 257 406 258 c 256,127,128
 425 258 425 258 438 244 c 256,129,130
 451 230 451 230 452 212 c 0,131,132
 452 193 452 193 438 180 c 256,133,134
 425 167 425 167 406 167 c 1,135,-1
 406 167 l 1,119,120
106 250 m 1,136,137
 87 250 87 250 73 263 c 256,138,139
 60 276 60 276 60 296 c 0,140,141
 60 314 60 314 73 328 c 256,142,143
 86 341 86 341 106 342 c 0,144,145
 124 342 124 342 138 328 c 0,146,147
 151 315 151 315 152 296 c 0,148,149
 152 277 152 277 138 263 c 0,150,151
 124 250 124 250 106 250 c 1,152,-1
 106 250 l 1,136,137
346 250 m 1,153,154
 327 250 327 250 313 263 c 256,155,156
 300 276 300 276 300 296 c 0,157,158
 300 314 300 314 313 328 c 256,159,160
 326 341 326 341 346 342 c 0,161,162
 364 342 364 342 378 328 c 256,163,164
 391 315 391 315 392 296 c 0,165,166
 392 277 392 277 378 263 c 256,167,168
 365 250 365 250 346 250 c 1,169,-1
 346 250 l 1,153,154
46 333 m 1,170,171
 28 333 28 333 13 347 c 0,172,173
 0 360 0 360 0 379 c 0,174,175
 0 398 0 398 13 412 c 0,176,177
 27 425 27 425 46 425 c 0,178,179
 65 425 65 425 78 412 c 256,180,181
 91 399 91 399 92 379 c 0,182,183
 92 361 92 361 78 347 c 256,184,185
 65 334 65 334 46 333 c 1,186,-1
 46 333 l 1,170,171
106 417 m 1,187,188
 87 417 87 417 73 430 c 0,189,190
 60 444 60 444 60 462 c 0,191,192
 60 481 60 481 73 495 c 256,193,194
 86 508 86 508 106 508 c 0,195,196
 124 508 124 508 138 495 c 0,197,198
 151 482 151 482 152 462 c 0,199,200
 152 444 152 444 138 430 c 0,201,202
 124 417 124 417 106 417 c 1,203,-1
 106 417 l 1,187,188
346 417 m 1,204,205
 327 417 327 417 313 430 c 0,206,207
 300 444 300 444 300 462 c 0,208,209
 300 481 300 481 313 495 c 256,210,211
 326 508 326 508 346 508 c 0,212,213
 364 508 364 508 378 495 c 256,214,215
 391 482 391 482 392 462 c 0,216,217
 392 444 392 444 378 430 c 0,218,219
 365 417 365 417 346 417 c 1,220,-1
 346 417 l 1,204,205
226 0 m 1,221,222
 207 0 207 0 193 13 c 0,223,224
 180 27 180 27 180 46 c 0,225,226
 180 65 180 65 193 78 c 0,227,228
 199 84 199 84 207 88 c 1,229,-1
 207 88 l 1,230,231
 199 91 199 91 193 97 c 0,232,233
 180 110 180 110 180 129 c 256,234,235
 180 148 180 148 193 162 c 0,236,237
 199 168 199 168 207 171 c 1,238,-1
 207 171 l 1,239,240
 199 174 199 174 193 180 c 0,241,242
 180 192 180 192 180 212 c 0,243,244
 180 230 180 230 193 244 c 0,245,246
 199 250 199 250 207 254 c 1,247,-1
 207 254 l 1,248,249
 199 257 199 257 193 263 c 0,250,251
 180 276 180 276 180 296 c 0,252,253
 180 314 180 314 193 328 c 0,254,255
 199 334 199 334 207 338 c 1,256,-1
 207 338 l 1,257,258
 199 341 199 341 193 347 c 0,259,260
 180 360 180 360 180 379 c 0,261,262
 180 398 180 398 193 412 c 0,263,264
 199 418 199 418 207 421 c 1,265,-1
 207 421 l 1,266,267
 199 424 199 424 193 430 c 0,268,269
 180 444 180 444 180 462 c 0,270,271
 180 481 180 481 193 495 c 0,272,273
 199 501 199 501 207 504 c 1,274,-1
 207 504 l 1,275,276
 199 507 199 507 193 513 c 0,277,278
 180 526 180 526 180 546 c 256,279,280
 180 565 180 565 193 578 c 256,281,282
 206 591 206 591 226 592 c 0,283,284
 244 592 244 592 258 578 c 0,285,286
 271 565 271 565 272 546 c 256,287,288
 272 527 272 527 258 513 c 0,289,290
 252 507 252 507 245 504 c 1,291,-1
 245 504 l 1,292,293
 252 501 252 501 258 495 c 0,294,295
 271 482 271 482 272 462 c 0,296,297
 272 444 272 444 258 430 c 0,298,299
 252 424 252 424 245 421 c 1,300,-1
 245 421 l 1,301,302
 252 418 252 418 258 412 c 0,303,304
 271 399 271 399 272 379 c 0,305,306
 272 361 272 361 258 347 c 0,307,308
 252 342 252 342 245 338 c 1,309,-1
 245 338 l 1,310,311
 252 335 252 335 258 328 c 0,312,313
 271 315 271 315 272 296 c 0,314,315
 272 277 272 277 258 263 c 0,316,317
 252 257 252 257 245 254 c 1,318,-1
 245 254 l 1,319,320
 252 251 252 251 258 244 c 0,321,322
 271 230 271 230 272 212 c 0,323,324
 272 193 272 193 258 180 c 0,325,326
 252 174 252 174 245 171 c 1,327,-1
 245 171 l 1,328,329
 252 168 252 168 258 162 c 0,330,331
 271 149 271 149 272 129 c 256,332,333
 272 110 272 110 258 97 c 0,334,335
 252 92 252 92 245 88 c 1,336,-1
 245 88 l 1,337,338
 252 85 252 85 258 78 c 0,339,340
 271 65 271 65 272 46 c 0,341,342
 272 28 272 28 258 13 c 0,343,344
 244 0 244 0 226 0 c 1,345,-1
 226 0 l 1,221,222
EndSplineSet
EndChar

StartChar: percent
Encoding: 37 37 5
Width: 600
VWidth: 833
Flags: W
LayerCount: 2
Fore
SplineSet
46 -167 m 1,0,1
 28 -167 28 -167 13 -153 c 0,2,3
 0 -140 0 -140 0 -121 c 0,4,5
 0 -103 0 -103 13 -88 c 0,6,7
 27 -75 27 -75 46 -75 c 0,8,9
 65 -75 65 -75 78 -88 c 256,10,11
 91 -101 91 -101 92 -121 c 0,12,13
 92 -140 92 -140 78 -153 c 256,14,15
 65 -166 65 -166 46 -167 c 1,16,-1
 46 -167 l 1,0,1
166 -167 m 1,17,18
 148 -167 148 -167 133 -153 c 0,19,20
 120 -140 120 -140 120 -121 c 0,21,22
 120 -103 120 -103 133 -88 c 0,23,24
 147 -75 147 -75 166 -75 c 0,25,26
 185 -75 185 -75 198 -88 c 256,27,28
 211 -101 211 -101 212 -121 c 0,29,30
 212 -140 212 -140 198 -153 c 256,31,32
 185 -166 185 -166 166 -167 c 1,33,-1
 166 -167 l 1,17,18
286 -167 m 1,34,35
 267 -167 267 -167 253 -153 c 256,36,37
 240 -140 240 -140 240 -121 c 0,38,39
 240 -103 240 -103 253 -88 c 256,40,41
 266 -75 266 -75 286 -75 c 256,42,43
 305 -75 305 -75 318 -88 c 256,44,45
 331 -101 331 -101 332 -121 c 0,46,47
 332 -140 332 -140 318 -153 c 256,48,49
 305 -166 305 -166 286 -167 c 1,50,-1
 286 -167 l 1,34,35
406 -167 m 1,51,52
 387 -167 387 -167 373 -153 c 256,53,54
 360 -140 360 -140 360 -121 c 0,55,56
 360 -103 360 -103 373 -88 c 256,57,58
 386 -75 386 -75 406 -75 c 256,59,60
 425 -75 425 -75 438 -88 c 256,61,62
 451 -101 451 -101 452 -121 c 0,63,64
 452 -140 452 -140 438 -153 c 256,65,66
 425 -166 425 -166 406 -167 c 1,67,-1
 406 -167 l 1,51,52
526 -167 m 1,68,69
 507 -167 507 -167 493 -153 c 256,70,71
 480 -140 480 -140 480 -121 c 0,72,73
 480 -103 480 -103 493 -88 c 256,74,75
 506 -75 506 -75 526 -75 c 256,76,77
 545 -75 545 -75 558 -88 c 256,78,79
 571 -101 571 -101 572 -121 c 0,80,81
 572 -140 572 -140 558 -153 c 256,82,83
 545 -166 545 -166 526 -167 c 1,84,-1
 526 -167 l 1,68,69
46 0 m 1,85,86
 28 0 28 0 13 13 c 0,87,88
 0 27 0 27 0 46 c 0,89,90
 0 65 0 65 13 78 c 0,91,92
 27 91 27 91 46 92 c 0,93,94
 65 92 65 92 78 78 c 256,95,96
 91 65 91 65 92 46 c 0,97,98
 92 28 92 28 78 13 c 0,99,100
 65 0 65 0 46 0 c 1,101,-1
 46 0 l 1,85,86
106 83 m 1,102,103
 87 83 87 83 73 97 c 256,104,105
 60 110 60 110 60 129 c 256,106,107
 60 148 60 148 73 162 c 256,108,109
 86 175 86 175 106 175 c 0,110,111
 124 175 124 175 138 162 c 0,112,113
 151 149 151 149 152 129 c 256,114,115
 152 110 152 110 138 97 c 0,116,117
 124 84 124 84 106 83 c 1,118,-1
 106 83 l 1,102,103
286 0 m 1,119,120
 267 0 267 0 253 13 c 0,121,122
 240 27 240 27 240 46 c 0,123,124
 240 65 240 65 253 78 c 0,125,126
 259 84 259 84 266 88 c 1,127,-1
 266 88 l 1,128,129
 259 91 259 91 253 97 c 0,130,131
 240 110 240 110 240 129 c 256,132,133
 240 148 240 148 253 162 c 256,134,135
 266 175 266 175 286 175 c 256,136,137
 305 175 305 175 318 162 c 256,138,139
 331 149 331 149 332 129 c 256,140,141
 332 110 332 110 318 97 c 0,142,143
 312 92 312 92 305 88 c 1,144,-1
 305 88 l 1,145,146
 312 85 312 85 318 78 c 0,147,148
 331 65 331 65 332 46 c 0,149,150
 332 28 332 28 318 13 c 0,151,152
 305 0 305 0 286 0 c 1,153,-1
 286 0 l 1,119,120
406 0 m 1,154,155
 387 0 387 0 373 13 c 0,156,157
 360 27 360 27 360 46 c 0,158,159
 360 65 360 65 373 78 c 0,160,161
 379 84 379 84 386 88 c 1,162,-1
 386 88 l 1,163,164
 379 91 379 91 373 97 c 0,165,166
 360 110 360 110 360 129 c 256,167,168
 360 148 360 148 373 162 c 256,169,170
 386 175 386 175 406 175 c 256,171,172
 425 175 425 175 438 162 c 256,173,174
 451 149 451 149 452 129 c 256,175,176
 452 110 452 110 438 97 c 0,177,178
 432 92 432 92 425 88 c 1,179,-1
 425 88 l 1,180,181
 432 85 432 85 438 78 c 0,182,183
 451 65 451 65 452 46 c 0,184,185
 452 28 452 28 438 13 c 0,186,187
 425 0 425 0 406 0 c 1,188,-1
 406 0 l 1,154,155
166 167 m 1,189,190
 148 167 148 167 133 180 c 0,191,192
 120 192 120 192 120 212 c 0,193,194
 120 230 120 230 133 244 c 0,195,196
 147 257 147 257 166 258 c 0,197,198
 185 258 185 258 198 244 c 256,199,200
 211 230 211 230 212 212 c 0,201,202
 212 193 212 193 198 180 c 256,203,204
 185 167 185 167 166 167 c 1,205,-1
 166 167 l 1,189,190
226 250 m 1,206,207
 207 250 207 250 193 263 c 256,208,209
 180 276 180 276 180 296 c 0,210,211
 180 314 180 314 193 328 c 256,212,213
 206 341 206 341 226 342 c 0,214,215
 244 342 244 342 258 328 c 0,216,217
 271 315 271 315 272 296 c 0,218,219
 272 277 272 277 258 263 c 0,220,221
 244 250 244 250 226 250 c 1,222,-1
 226 250 l 1,206,207
286 333 m 1,223,224
 267 333 267 333 253 347 c 256,225,226
 240 360 240 360 240 379 c 0,227,228
 240 398 240 398 253 412 c 256,229,230
 266 425 266 425 286 425 c 256,231,232
 305 425 305 425 318 412 c 256,233,234
 331 399 331 399 332 379 c 0,235,236
 332 361 332 361 318 347 c 256,237,238
 305 334 305 334 286 333 c 1,239,-1
 286 333 l 1,223,224
346 417 m 1,240,241
 327 417 327 417 313 430 c 0,242,243
 300 444 300 444 300 462 c 0,244,245
 300 481 300 481 313 495 c 256,246,247
 326 508 326 508 346 508 c 0,248,249
 364 508 364 508 378 495 c 256,250,251
 391 482 391 482 392 462 c 0,252,253
 392 444 392 444 378 430 c 0,254,255
 365 417 365 417 346 417 c 1,256,-1
 346 417 l 1,240,241
46 417 m 1,257,258
 28 417 28 417 13 430 c 0,259,260
 0 444 0 444 0 462 c 0,261,262
 0 481 0 481 13 495 c 0,263,264
 19 501 19 501 26 504 c 1,265,-1
 26 504 l 1,266,267
 19 507 19 507 13 513 c 0,268,269
 0 526 0 526 0 546 c 256,270,271
 0 565 0 565 13 578 c 0,272,273
 27 591 27 591 46 592 c 0,274,275
 65 592 65 592 78 578 c 256,276,277
 91 565 91 565 92 546 c 256,278,279
 92 527 92 527 78 513 c 0,280,281
 72 507 72 507 65 504 c 1,282,-1
 65 504 l 1,283,284
 73 501 73 501 78 495 c 0,285,286
 91 482 91 482 92 462 c 0,287,288
 92 444 92 444 78 430 c 0,289,290
 65 417 65 417 46 417 c 1,291,-1
 46 417 l 1,257,258
166 417 m 1,292,293
 148 417 148 417 133 430 c 0,294,295
 120 444 120 444 120 462 c 0,296,297
 120 481 120 481 133 495 c 0,298,299
 139 501 139 501 146 504 c 1,300,-1
 146 504 l 1,301,302
 139 507 139 507 133 513 c 0,303,304
 120 526 120 526 120 546 c 256,305,306
 120 565 120 565 133 578 c 0,307,308
 147 591 147 591 166 592 c 0,309,310
 185 592 185 592 198 578 c 256,311,312
 211 565 211 565 212 546 c 256,313,314
 212 527 212 527 198 513 c 0,315,316
 192 507 192 507 185 504 c 1,317,-1
 185 504 l 1,318,319
 192 501 192 501 198 495 c 0,320,321
 211 482 211 482 212 462 c 0,322,323
 212 444 212 444 198 430 c 0,324,325
 185 417 185 417 166 417 c 1,326,-1
 166 417 l 1,292,293
406 500 m 1,327,328
 387 500 387 500 373 513 c 256,329,330
 360 526 360 526 360 546 c 256,331,332
 360 565 360 565 373 578 c 256,333,334
 386 591 386 591 406 592 c 256,335,336
 425 592 425 592 438 578 c 256,337,338
 451 565 451 565 452 546 c 256,339,340
 452 527 452 527 438 513 c 256,341,342
 425 500 425 500 406 500 c 1,343,-1
 406 500 l 1,327,328
EndSplineSet
EndChar

StartChar: ampersand
Encoding: 38 38 6
Width: 600
VWidth: 833
Flags: W
LayerCount: 2
Fore
SplineSet
46 -167 m 1,0,1
 28 -167 28 -167 13 -153 c 0,2,3
 0 -140 0 -140 0 -121 c 0,4,5
 0 -103 0 -103 13 -88 c 0,6,7
 27 -75 27 -75 46 -75 c 0,8,9
 65 -75 65 -75 78 -88 c 256,10,11
 91 -101 91 -101 92 -121 c 0,12,13
 92 -140 92 -140 78 -153 c 256,14,15
 65 -166 65 -166 46 -167 c 1,16,-1
 46 -167 l 1,0,1
166 -167 m 1,17,18
 148 -167 148 -167 133 -153 c 0,19,20
 120 -140 120 -140 120 -121 c 0,21,22
 120 -103 120 -103 133 -88 c 0,23,24
 147 -75 147 -75 166 -75 c 0,25,26
 185 -75 185 -75 198 -88 c 256,27,28
 211 -101 211 -101 212 -121 c 0,29,30
 212 -140 212 -140 198 -153 c 256,31,32
 185 -166 185 -166 166 -167 c 1,33,-1
 166 -167 l 1,17,18
286 -167 m 1,34,35
 267 -167 267 -167 253 -153 c 256,36,37
 240 -140 240 -140 240 -121 c 0,38,39
 240 -103 240 -103 253 -88 c 256,40,41
 266 -75 266 -75 286 -75 c 256,42,43
 305 -75 305 -75 318 -88 c 256,44,45
 331 -101 331 -101 332 -121 c 0,46,47
 332 -140 332 -140 318 -153 c 256,48,49
 305 -166 305 -166 286 -167 c 1,50,-1
 286 -167 l 1,34,35
406 -167 m 1,51,52
 387 -167 387 -167 373 -153 c 256,53,54
 360 -140 360 -140 360 -121 c 0,55,56
 360 -103 360 -103 373 -88 c 256,57,58
 386 -75 386 -75 406 -75 c 256,59,60
 425 -75 425 -75 438 -88 c 256,61,62
 451 -101 451 -101 452 -121 c 0,63,64
 452 -140 452 -140 438 -153 c 256,65,66
 425 -166 425 -166 406 -167 c 1,67,-1
 406 -167 l 1,51,52
526 -167 m 1,68,69
 507 -167 507 -167 493 -153 c 256,70,71
 480 -140 480 -140 480 -121 c 0,72,73
 480 -103 480 -103 493 -88 c 256,74,75
 506 -75 506 -75 526 -75 c 256,76,77
 545 -75 545 -75 558 -88 c 256,78,79
 571 -101 571 -101 572 -121 c 0,80,81
 572 -140 572 -140 558 -153 c 256,82,83
 545 -166 545 -166 526 -167 c 1,84,-1
 526 -167 l 1,68,69
106 0 m 1,85,86
 87 0 87 0 73 13 c 0,87,88
 60 27 60 27 60 46 c 0,89,90
 60 65 60 65 73 78 c 256,91,92
 86 91 86 91 106 92 c 0,93,94
 124 92 124 92 138 78 c 0,95,96
 151 65 151 65 152 46 c 0,97,98
 152 28 152 28 138 13 c 0,99,100
 124 0 124 0 106 0 c 1,101,-1
 106 0 l 1,85,86
226 0 m 1,102,103
 207 0 207 0 193 13 c 0,104,105
 180 27 180 27 180 46 c 0,106,107
 180 65 180 65 193 78 c 256,108,109
 206 91 206 91 226 92 c 0,110,111
 244 92 244 92 258 78 c 0,112,113
 271 65 271 65 272 46 c 0,114,115
 272 28 272 28 258 13 c 0,116,117
 244 0 244 0 226 0 c 1,118,-1
 226 0 l 1,102,103
406 0 m 1,119,120
 387 0 387 0 373 13 c 0,121,122
 360 27 360 27 360 46 c 0,123,124
 360 65 360 65 373 78 c 256,125,126
 386 91 386 91 406 92 c 256,127,128
 425 92 425 92 438 78 c 256,129,130
 451 65 451 65 452 46 c 0,131,132
 452 28 452 28 438 13 c 0,133,134
 425 0 425 0 406 0 c 1,135,-1
 406 0 l 1,119,120
346 83 m 1,136,137
 327 83 327 83 313 97 c 256,138,139
 300 110 300 110 300 129 c 256,140,141
 300 148 300 148 313 162 c 256,142,143
 326 175 326 175 346 175 c 0,144,145
 364 175 364 175 378 162 c 256,146,147
 391 149 391 149 392 129 c 256,148,149
 392 110 392 110 378 97 c 256,150,151
 365 84 365 84 346 83 c 1,152,-1
 346 83 l 1,136,137
46 83 m 1,153,154
 28 83 28 83 13 97 c 0,155,156
 0 110 0 110 0 129 c 256,157,158
 0 148 0 148 13 162 c 0,159,160
 19 168 19 168 26 171 c 1,161,-1
 26 171 l 1,162,163
 19 174 19 174 13 180 c 0,164,165
 0 192 0 192 0 212 c 0,166,167
 0 230 0 230 13 244 c 0,168,169
 27 257 27 257 46 258 c 0,170,171
 65 258 65 258 78 244 c 256,172,173
 91 230 91 230 92 212 c 0,174,175
 92 193 92 193 78 180 c 0,176,177
 72 174 72 174 65 171 c 1,178,-1
 65 171 l 1,179,180
 73 168 73 168 78 162 c 0,181,182
 91 149 91 149 92 129 c 256,183,184
 92 110 92 110 78 97 c 256,185,186
 65 84 65 84 46 83 c 1,187,-1
 46 83 l 1,153,154
286 167 m 1,188,189
 267 167 267 167 253 180 c 256,190,191
 240 192 240 192 240 212 c 0,192,193
 240 230 240 230 253 244 c 256,194,195
 266 257 266 257 286 258 c 256,196,197
 305 258 305 258 318 244 c 256,198,199
 331 230 331 230 332 212 c 0,200,201
 332 193 332 193 318 180 c 256,202,203
 305 167 305 167 286 167 c 1,204,-1
 286 167 l 1,188,189
106 250 m 1,205,206
 87 250 87 250 73 263 c 256,207,208
 60 276 60 276 60 296 c 0,209,210
 60 314 60 314 73 328 c 256,211,212
 86 341 86 341 106 342 c 0,213,214
 124 342 124 342 138 328 c 0,215,216
 151 315 151 315 152 296 c 0,217,218
 152 277 152 277 138 263 c 0,219,220
 124 250 124 250 106 250 c 1,221,-1
 106 250 l 1,205,206
226 250 m 1,222,223
 207 250 207 250 193 263 c 256,224,225
 180 276 180 276 180 296 c 0,226,227
 180 314 180 314 193 328 c 256,228,229
 206 341 206 341 226 342 c 0,230,231
 244 342 244 342 258 328 c 0,232,233
 271 315 271 315 272 296 c 0,234,235
 272 277 272 277 258 263 c 0,236,237
 244 250 244 250 226 250 c 1,238,-1
 226 250 l 1,222,223
166 333 m 1,239,240
 148 333 148 333 133 347 c 0,241,242
 120 360 120 360 120 379 c 0,243,244
 120 398 120 398 133 412 c 0,245,246
 147 425 147 425 166 425 c 0,247,248
 185 425 185 425 198 412 c 256,249,250
 211 399 211 399 212 379 c 0,251,252
 212 361 212 361 198 347 c 256,253,254
 185 334 185 334 166 333 c 1,255,-1
 166 333 l 1,239,240
286 333 m 1,256,257
 267 333 267 333 253 347 c 256,258,259
 240 360 240 360 240 379 c 0,260,261
 240 398 240 398 253 412 c 256,262,263
 266 425 266 425 286 425 c 256,264,265
 305 425 305 425 318 412 c 256,266,267
 331 399 331 399 332 379 c 0,268,269
 332 361 332 361 318 347 c 256,270,271
 305 334 305 334 286 333 c 1,272,-1
 286 333 l 1,256,257
106 417 m 1,273,274
 87 417 87 417 73 430 c 0,275,276
 60 444 60 444 60 462 c 0,277,278
 60 481 60 481 73 495 c 256,279,280
 86 508 86 508 106 508 c 0,281,282
 124 508 124 508 138 495 c 0,283,284
 151 482 151 482 152 462 c 0,285,286
 152 444 152 444 138 430 c 0,287,288
 124 417 124 417 106 417 c 1,289,-1
 106 417 l 1,273,274
346 417 m 1,290,291
 327 417 327 417 313 430 c 0,292,293
 300 444 300 444 300 462 c 0,294,295
 300 481 300 481 313 495 c 256,296,297
 326 508 326 508 346 508 c 0,298,299
 364 508 364 508 378 495 c 256,300,301
 391 482 391 482 392 462 c 0,302,303
 392 444 392 444 378 430 c 0,304,305
 365 417 365 417 346 417 c 1,306,-1
 346 417 l 1,290,291
166 500 m 1,307,308
 148 500 148 500 133 513 c 0,309,310
 120 526 120 526 120 546 c 256,311,312
 120 565 120 565 133 578 c 0,313,314
 147 591 147 591 166 592 c 0,315,316
 185 592 185 592 198 578 c 256,317,318
 211 565 211 565 212 546 c 256,319,320
 212 527 212 527 198 513 c 256,321,322
 185 500 185 500 166 500 c 1,323,-1
 166 500 l 1,307,308
286 500 m 1,324,325
 267 500 267 500 253 513 c 256,326,327
 240 526 240 526 240 546 c 256,328,329
 240 565 240 565 253 578 c 256,330,331
 266 591 266 591 286 592 c 256,332,333
 305 592 305 592 318 578 c 256,334,335
 331 565 331 565 332 546 c 256,336,337
 332 527 332 527 318 513 c 256,338,339
 305 500 305 500 286 500 c 1,340,-1
 286 500 l 1,324,325
EndSplineSet
EndChar

StartChar: quotesingle
Encoding: 39 39 7
Width: 600
VWidth: 833
Flags: W
LayerCount: 2
Fore
SplineSet
46 -167 m 1,0,1
 28 -167 28 -167 13 -153 c 0,2,3
 0 -140 0 -140 0 -121 c 0,4,5
 0 -103 0 -103 13 -88 c 0,6,7
 27 -75 27 -75 46 -75 c 0,8,9
 65 -75 65 -75 78 -88 c 256,10,11
 91 -101 91 -101 92 -121 c 0,12,13
 92 -140 92 -140 78 -153 c 256,14,15
 65 -166 65 -166 46 -167 c 1,16,-1
 46 -167 l 1,0,1
166 -167 m 1,17,18
 148 -167 148 -167 133 -153 c 0,19,20
 120 -140 120 -140 120 -121 c 0,21,22
 120 -103 120 -103 133 -88 c 0,23,24
 147 -75 147 -75 166 -75 c 0,25,26
 185 -75 185 -75 198 -88 c 256,27,28
 211 -101 211 -101 212 -121 c 0,29,30
 212 -140 212 -140 198 -153 c 256,31,32
 185 -166 185 -166 166 -167 c 1,33,-1
 166 -167 l 1,17,18
286 -167 m 1,34,35
 267 -167 267 -167 253 -153 c 256,36,37
 240 -140 240 -140 240 -121 c 0,38,39
 240 -103 240 -103 253 -88 c 256,40,41
 266 -75 266 -75 286 -75 c 256,42,43
 305 -75 305 -75 318 -88 c 256,44,45
 331 -101 331 -101 332 -121 c 0,46,47
 332 -140 332 -140 318 -153 c 256,48,49
 305 -166 305 -166 286 -167 c 1,50,-1
 286 -167 l 1,34,35
406 -167 m 1,51,52
 387 -167 387 -167 373 -153 c 256,53,54
 360 -140 360 -140 360 -121 c 0,55,56
 360 -103 360 -103 373 -88 c 256,57,58
 386 -75 386 -75 406 -75 c 256,59,60
 425 -75 425 -75 438 -88 c 256,61,62
 451 -101 451 -101 452 -121 c 0,63,64
 452 -140 452 -140 438 -153 c 256,65,66
 425 -166 425 -166 406 -167 c 1,67,-1
 406 -167 l 1,51,52
526 -167 m 1,68,69
 507 -167 507 -167 493 -153 c 256,70,71
 480 -140 480 -140 480 -121 c 0,72,73
 480 -103 480 -103 493 -88 c 256,74,75
 506 -75 506 -75 526 -75 c 256,76,77
 545 -75 545 -75 558 -88 c 256,78,79
 571 -101 571 -101 572 -121 c 0,80,81
 572 -140 572 -140 558 -153 c 256,82,83
 545 -166 545 -166 526 -167 c 1,84,-1
 526 -167 l 1,68,69
166 333 m 1,85,86
 148 333 148 333 133 347 c 0,87,88
 120 360 120 360 120 379 c 0,89,90
 120 398 120 398 133 412 c 0,91,92
 147 425 147 425 166 425 c 0,93,94
 185 425 185 425 198 412 c 256,95,96
 211 399 211 399 212 379 c 0,97,98
 212 361 212 361 198 347 c 256,99,100
 185 334 185 334 166 333 c 1,101,-1
 166 333 l 1,85,86
226 417 m 1,102,103
 207 417 207 417 193 430 c 0,104,105
 180 444 180 444 180 462 c 0,106,107
 180 481 180 481 193 495 c 256,108,109
 206 508 206 508 226 508 c 0,110,111
 244 508 244 508 258 495 c 0,112,113
 271 482 271 482 272 462 c 0,114,115
 272 444 272 444 258 430 c 0,116,117
 244 417 244 417 226 417 c 1,118,-1
 226 417 l 1,102,103
286 500 m 1,119,120
 267 500 267 500 253 513 c 256,121,122
 240 526 240 526 240 546 c 256,123,124
 240 565 240 565 253 578 c 256,125,126
 266 591 266 591 286 592 c 256,127,128
 305 592 305 592 318 578 c 256,129,130
 331 565 331 565 332 546 c 256,131,132
 332 527 332 527 318 513 c 256,133,134
 305 500 305 500 286 500 c 1,135,-1
 286 500 l 1,119,120
EndSplineSet
EndChar

StartChar: parenleft
Encoding: 40 40 8
Width: 600
VWidth: 833
Flags: W
LayerCount: 2
Fore
SplineSet
46 -167 m 1,0,1
 28 -167 28 -167 13 -153 c 0,2,3
 0 -140 0 -140 0 -121 c 0,4,5
 0 -103 0 -103 13 -88 c 0,6,7
 27 -75 27 -75 46 -75 c 0,8,9
 65 -75 65 -75 78 -88 c 256,10,11
 91 -101 91 -101 92 -121 c 0,12,13
 92 -140 92 -140 78 -153 c 256,14,15
 65 -166 65 -166 46 -167 c 1,16,-1
 46 -167 l 1,0,1
166 -167 m 1,17,18
 148 -167 148 -167 133 -153 c 0,19,20
 120 -140 120 -140 120 -121 c 0,21,22
 120 -103 120 -103 133 -88 c 0,23,24
 147 -75 147 -75 166 -75 c 0,25,26
 185 -75 185 -75 198 -88 c 256,27,28
 211 -101 211 -101 212 -121 c 0,29,30
 212 -140 212 -140 198 -153 c 256,31,32
 185 -166 185 -166 166 -167 c 1,33,-1
 166 -167 l 1,17,18
286 -167 m 1,34,35
 267 -167 267 -167 253 -153 c 256,36,37
 240 -140 240 -140 240 -121 c 0,38,39
 240 -103 240 -103 253 -88 c 256,40,41
 266 -75 266 -75 286 -75 c 256,42,43
 305 -75 305 -75 318 -88 c 256,44,45
 331 -101 331 -101 332 -121 c 0,46,47
 332 -140 332 -140 318 -153 c 256,48,49
 305 -166 305 -166 286 -167 c 1,50,-1
 286 -167 l 1,34,35
406 -167 m 1,51,52
 387 -167 387 -167 373 -153 c 256,53,54
 360 -140 360 -140 360 -121 c 0,55,56
 360 -103 360 -103 373 -88 c 256,57,58
 386 -75 386 -75 406 -75 c 256,59,60
 425 -75 425 -75 438 -88 c 256,61,62
 451 -101 451 -101 452 -121 c 0,63,64
 452 -140 452 -140 438 -153 c 256,65,66
 425 -166 425 -166 406 -167 c 1,67,-1
 406 -167 l 1,51,52
526 -167 m 1,68,69
 507 -167 507 -167 493 -153 c 256,70,71
 480 -140 480 -140 480 -121 c 0,72,73
 480 -103 480 -103 493 -88 c 256,74,75
 506 -75 506 -75 526 -75 c 256,76,77
 545 -75 545 -75 558 -88 c 256,78,79
 571 -101 571 -101 572 -121 c 0,80,81
 572 -140 572 -140 558 -153 c 256,82,83
 545 -166 545 -166 526 -167 c 1,84,-1
 526 -167 l 1,68,69
286 0 m 1,85,86
 267 0 267 0 253 13 c 0,87,88
 240 27 240 27 240 46 c 0,89,90
 240 65 240 65 253 78 c 256,91,92
 266 91 266 91 286 92 c 256,93,94
 305 92 305 92 318 78 c 256,95,96
 331 65 331 65 332 46 c 0,97,98
 332 28 332 28 318 13 c 0,99,100
 305 0 305 0 286 0 c 1,101,-1
 286 0 l 1,85,86
226 83 m 1,102,103
 207 83 207 83 193 97 c 256,104,105
 180 110 180 110 180 129 c 256,106,107
 180 148 180 148 193 162 c 256,108,109
 206 175 206 175 226 175 c 0,110,111
 244 175 244 175 258 162 c 0,112,113
 271 149 271 149 272 129 c 256,114,115
 272 110 272 110 258 97 c 0,116,117
 244 84 244 84 226 83 c 1,118,-1
 226 83 l 1,102,103
166 167 m 1,119,120
 148 167 148 167 133 180 c 0,121,122
 120 192 120 192 120 212 c 0,123,124
 120 230 120 230 133 244 c 0,125,126
 139 250 139 250 146 254 c 1,127,-1
 146 254 l 1,128,129
 139 257 139 257 133 263 c 0,130,131
 120 276 120 276 120 296 c 0,132,133
 120 314 120 314 133 328 c 0,134,135
 139 334 139 334 146 338 c 1,136,-1
 146 338 l 1,137,138
 139 341 139 341 133 347 c 0,139,140
 120 360 120 360 120 379 c 0,141,142
 120 398 120 398 133 412 c 0,143,144
 147 425 147 425 166 425 c 0,145,146
 185 425 185 425 198 412 c 256,147,148
 211 399 211 399 212 379 c 0,149,150
 212 361 212 361 198 347 c 0,151,152
 192 342 192 342 185 338 c 1,153,-1
 185 338 l 1,154,155
 192 335 192 335 198 328 c 0,156,157
 211 315 211 315 212 296 c 0,158,159
 212 277 212 277 198 263 c 0,160,161
 192 257 192 257 185 254 c 1,162,-1
 185 254 l 1,163,164
 192 251 192 251 198 244 c 0,165,166
 211 230 211 230 212 212 c 0,167,168
 212 193 212 193 198 180 c 256,169,170
 185 167 185 167 166 167 c 1,171,-1
 166 167 l 1,119,120
226 417 m 1,172,173
 207 417 207 417 193 430 c 0,174,175
 180 444 180 444 180 462 c 0,176,177
 180 481 180 481 193 495 c 256,178,179
 206 508 206 508 226 508 c 0,180,181
 244 508 244 508 258 495 c 0,182,183
 271 482 271 482 272 462 c 0,184,185
 272 444 272 444 258 430 c 0,186,187
 244 417 244 417 226 417 c 1,188,-1
 226 417 l 1,172,173
286 500 m 1,189,190
 267 500 267 500 253 513 c 256,191,192
 240 526 240 526 240 546 c 256,193,194
 240 565 240 565 253 578 c 256,195,196
 266 591 266 591 286 592 c 256,197,198
 305 592 305 592 318 578 c 256,199,200
 331 565 331 565 332 546 c 256,201,202
 332 527 332 527 318 513 c 256,203,204
 305 500 305 500 286 500 c 1,205,-1
 286 500 l 1,189,190
EndSplineSet
EndChar

StartChar: parenright
Encoding: 41 41 9
Width: 600
VWidth: 833
Flags: W
LayerCount: 2
Fore
SplineSet
46 -167 m 1,0,1
 28 -167 28 -167 13 -153 c 0,2,3
 0 -140 0 -140 0 -121 c 0,4,5
 0 -103 0 -103 13 -88 c 0,6,7
 27 -75 27 -75 46 -75 c 0,8,9
 65 -75 65 -75 78 -88 c 256,10,11
 91 -101 91 -101 92 -121 c 0,12,13
 92 -140 92 -140 78 -153 c 256,14,15
 65 -166 65 -166 46 -167 c 1,16,-1
 46 -167 l 1,0,1
166 -167 m 1,17,18
 148 -167 148 -167 133 -153 c 0,19,20
 120 -140 120 -140 120 -121 c 0,21,22
 120 -103 120 -103 133 -88 c 0,23,24
 147 -75 147 -75 166 -75 c 0,25,26
 185 -75 185 -75 198 -88 c 256,27,28
 211 -101 211 -101 212 -121 c 0,29,30
 212 -140 212 -140 198 -153 c 256,31,32
 185 -166 185 -166 166 -167 c 1,33,-1
 166 -167 l 1,17,18
286 -167 m 1,34,35
 267 -167 267 -167 253 -153 c 256,36,37
 240 -140 240 -140 240 -121 c 0,38,39
 240 -103 240 -103 253 -88 c 256,40,41
 266 -75 266 -75 286 -75 c 256,42,43
 305 -75 305 -75 318 -88 c 256,44,45
 331 -101 331 -101 332 -121 c 0,46,47
 332 -140 332 -140 318 -153 c 256,48,49
 305 -166 305 -166 286 -167 c 1,50,-1
 286 -167 l 1,34,35
406 -167 m 1,51,52
 387 -167 387 -167 373 -153 c 256,53,54
 360 -140 360 -140 360 -121 c 0,55,56
 360 -103 360 -103 373 -88 c 256,57,58
 386 -75 386 -75 406 -75 c 256,59,60
 425 -75 425 -75 438 -88 c 256,61,62
 451 -101 451 -101 452 -121 c 0,63,64
 452 -140 452 -140 438 -153 c 256,65,66
 425 -166 425 -166 406 -167 c 1,67,-1
 406 -167 l 1,51,52
526 -167 m 1,68,69
 507 -167 507 -167 493 -153 c 256,70,71
 480 -140 480 -140 480 -121 c 0,72,73
 480 -103 480 -103 493 -88 c 256,74,75
 506 -75 506 -75 526 -75 c 256,76,77
 545 -75 545 -75 558 -88 c 256,78,79
 571 -101 571 -101 572 -121 c 0,80,81
 572 -140 572 -140 558 -153 c 256,82,83
 545 -166 545 -166 526 -167 c 1,84,-1
 526 -167 l 1,68,69
166 0 m 1,85,86
 148 0 148 0 133 13 c 0,87,88
 120 27 120 27 120 46 c 0,89,90
 120 65 120 65 133 78 c 0,91,92
 147 91 147 91 166 92 c 0,93,94
 185 92 185 92 198 78 c 256,95,96
 211 65 211 65 212 46 c 0,97,98
 212 28 212 28 198 13 c 0,99,100
 185 0 185 0 166 0 c 1,101,-1
 166 0 l 1,85,86
226 83 m 1,102,103
 207 83 207 83 193 97 c 256,104,105
 180 110 180 110 180 129 c 256,106,107
 180 148 180 148 193 162 c 256,108,109
 206 175 206 175 226 175 c 0,110,111
 244 175 244 175 258 162 c 0,112,113
 271 149 271 149 272 129 c 256,114,115
 272 110 272 110 258 97 c 0,116,117
 244 84 244 84 226 83 c 1,118,-1
 226 83 l 1,102,103
286 167 m 1,119,120
 267 167 267 167 253 180 c 256,121,122
 240 192 240 192 240 212 c 0,123,124
 240 230 240 230 253 244 c 0,125,126
 259 250 259 250 266 254 c 1,127,-1
 266 254 l 1,128,129
 259 257 259 257 253 263 c 0,130,131
 240 276 240 276 240 296 c 0,132,133
 240 314 240 314 253 328 c 0,134,135
 259 334 259 334 266 338 c 1,136,-1
 266 338 l 1,137,138
 259 341 259 341 253 347 c 0,139,140
 240 360 240 360 240 379 c 0,141,142
 240 398 240 398 253 412 c 256,143,144
 266 425 266 425 286 425 c 256,145,146
 305 425 305 425 318 412 c 256,147,148
 331 399 331 399 332 379 c 0,149,150
 332 361 332 361 318 347 c 0,151,152
 312 342 312 342 305 338 c 1,153,-1
 305 338 l 1,154,155
 312 335 312 335 318 328 c 0,156,157
 331 315 331 315 332 296 c 0,158,159
 332 277 332 277 318 263 c 0,160,161
 312 257 312 257 305 254 c 1,162,-1
 305 254 l 1,163,164
 312 251 312 251 318 244 c 0,165,166
 331 230 331 230 332 212 c 0,167,168
 332 193 332 193 318 180 c 256,169,170
 305 167 305 167 286 167 c 1,171,-1
 286 167 l 1,119,120
226 417 m 1,172,173
 207 417 207 417 193 430 c 0,174,175
 180 444 180 444 180 462 c 0,176,177
 180 481 180 481 193 495 c 256,178,179
 206 508 206 508 226 508 c 0,180,181
 244 508 244 508 258 495 c 0,182,183
 271 482 271 482 272 462 c 0,184,185
 272 444 272 444 258 430 c 0,186,187
 244 417 244 417 226 417 c 1,188,-1
 226 417 l 1,172,173
166 500 m 1,189,190
 148 500 148 500 133 513 c 0,191,192
 120 526 120 526 120 546 c 256,193,194
 120 565 120 565 133 578 c 0,195,196
 147 591 147 591 166 592 c 0,197,198
 185 592 185 592 198 578 c 256,199,200
 211 565 211 565 212 546 c 256,201,202
 212 527 212 527 198 513 c 256,203,204
 185 500 185 500 166 500 c 1,205,-1
 166 500 l 1,189,190
EndSplineSet
EndChar

StartChar: asterisk
Encoding: 42 42 10
Width: 600
VWidth: 833
Flags: W
LayerCount: 2
Fore
SplineSet
46 -167 m 1,0,1
 28 -167 28 -167 13 -153 c 0,2,3
 0 -140 0 -140 0 -121 c 0,4,5
 0 -103 0 -103 13 -88 c 0,6,7
 27 -75 27 -75 46 -75 c 0,8,9
 65 -75 65 -75 78 -88 c 256,10,11
 91 -101 91 -101 92 -121 c 0,12,13
 92 -140 92 -140 78 -153 c 256,14,15
 65 -166 65 -166 46 -167 c 1,16,-1
 46 -167 l 1,0,1
166 -167 m 1,17,18
 148 -167 148 -167 133 -153 c 0,19,20
 120 -140 120 -140 120 -121 c 0,21,22
 120 -103 120 -103 133 -88 c 0,23,24
 147 -75 147 -75 166 -75 c 0,25,26
 185 -75 185 -75 198 -88 c 256,27,28
 211 -101 211 -101 212 -121 c 0,29,30
 212 -140 212 -140 198 -153 c 256,31,32
 185 -166 185 -166 166 -167 c 1,33,-1
 166 -167 l 1,17,18
286 -167 m 1,34,35
 267 -167 267 -167 253 -153 c 256,36,37
 240 -140 240 -140 240 -121 c 0,38,39
 240 -103 240 -103 253 -88 c 256,40,41
 266 -75 266 -75 286 -75 c 256,42,43
 305 -75 305 -75 318 -88 c 256,44,45
 331 -101 331 -101 332 -121 c 0,46,47
 332 -140 332 -140 318 -153 c 256,48,49
 305 -166 305 -166 286 -167 c 1,50,-1
 286 -167 l 1,34,35
406 -167 m 1,51,52
 387 -167 387 -167 373 -153 c 256,53,54
 360 -140 360 -140 360 -121 c 0,55,56
 360 -103 360 -103 373 -88 c 256,57,58
 386 -75 386 -75 406 -75 c 256,59,60
 425 -75 425 -75 438 -88 c 256,61,62
 451 -101 451 -101 452 -121 c 0,63,64
 452 -140 452 -140 438 -153 c 256,65,66
 425 -166 425 -166 406 -167 c 1,67,-1
 406 -167 l 1,51,52
526 -167 m 1,68,69
 507 -167 507 -167 493 -153 c 256,70,71
 480 -140 480 -140 480 -121 c 0,72,73
 480 -103 480 -103 493 -88 c 256,74,75
 506 -75 506 -75 526 -75 c 256,76,77
 545 -75 545 -75 558 -88 c 256,78,79
 571 -101 571 -101 572 -121 c 0,80,81
 572 -140 572 -140 558 -153 c 256,82,83
 545 -166 545 -166 526 -167 c 1,84,-1
 526 -167 l 1,68,69
46 83 m 1,85,86
 28 83 28 83 13 97 c 0,87,88
 0 110 0 110 0 129 c 256,89,90
 0 148 0 148 13 162 c 0,91,92
 27 175 27 175 46 175 c 0,93,94
 65 175 65 175 78 162 c 256,95,96
 91 149 91 149 92 129 c 256,97,98
 92 110 92 110 78 97 c 256,99,100
 65 84 65 84 46 83 c 1,101,-1
 46 83 l 1,85,86
406 83 m 1,102,103
 387 83 387 83 373 97 c 256,104,105
 360 110 360 110 360 129 c 256,106,107
 360 148 360 148 373 162 c 256,108,109
 386 175 386 175 406 175 c 256,110,111
 425 175 425 175 438 162 c 256,112,113
 451 149 451 149 452 129 c 256,114,115
 452 110 452 110 438 97 c 256,116,117
 425 84 425 84 406 83 c 1,118,-1
 406 83 l 1,102,103
106 167 m 1,119,120
 87 167 87 167 73 180 c 256,121,122
 60 192 60 192 60 212 c 0,123,124
 60 230 60 230 73 244 c 256,125,126
 86 257 86 257 106 258 c 0,127,128
 124 258 124 258 138 244 c 0,129,130
 151 230 151 230 152 212 c 0,131,132
 152 193 152 193 138 180 c 0,133,134
 124 167 124 167 106 167 c 1,135,-1
 106 167 l 1,119,120
226 83 m 1,136,137
 207 83 207 83 193 97 c 256,138,139
 180 110 180 110 180 129 c 256,140,141
 180 148 180 148 193 162 c 0,142,143
 199 168 199 168 207 171 c 1,144,-1
 207 171 l 1,145,146
 199 174 199 174 193 180 c 0,147,148
 180 192 180 192 180 212 c 0,149,150
 180 230 180 230 193 244 c 256,151,152
 206 257 206 257 226 258 c 0,153,154
 244 258 244 258 258 244 c 0,155,156
 271 230 271 230 272 212 c 0,157,158
 272 193 272 193 258 180 c 0,159,160
 252 174 252 174 245 171 c 1,161,-1
 245 171 l 1,162,163
 252 168 252 168 258 162 c 0,164,165
 271 149 271 149 272 129 c 256,166,167
 272 110 272 110 258 97 c 0,168,169
 244 84 244 84 226 83 c 1,170,-1
 226 83 l 1,136,137
346 167 m 1,171,172
 327 167 327 167 313 180 c 256,173,174
 300 192 300 192 300 212 c 0,175,176
 300 230 300 230 313 244 c 256,177,178
 326 257 326 257 346 258 c 0,179,180
 364 258 364 258 378 244 c 256,181,182
 391 230 391 230 392 212 c 0,183,184
 392 193 392 193 378 180 c 256,185,186
 365 167 365 167 346 167 c 1,187,-1
 346 167 l 1,171,172
166 250 m 1,188,189
 148 250 148 250 133 263 c 0,190,191
 120 276 120 276 120 296 c 0,192,193
 120 314 120 314 133 328 c 0,194,195
 147 341 147 341 166 342 c 0,196,197
 185 342 185 342 198 328 c 256,198,199
 211 315 211 315 212 296 c 0,200,201
 212 277 212 277 198 263 c 256,202,203
 185 250 185 250 166 250 c 1,204,-1
 166 250 l 1,188,189
286 250 m 1,205,206
 267 250 267 250 253 263 c 256,207,208
 240 276 240 276 240 296 c 0,209,210
 240 314 240 314 253 328 c 256,211,212
 266 341 266 341 286 342 c 256,213,214
 305 342 305 342 318 328 c 256,215,216
 331 315 331 315 332 296 c 0,217,218
 332 277 332 277 318 263 c 256,219,220
 305 250 305 250 286 250 c 1,221,-1
 286 250 l 1,205,206
106 333 m 1,222,223
 87 333 87 333 73 347 c 256,224,225
 60 360 60 360 60 379 c 0,226,227
 60 398 60 398 73 412 c 256,228,229
 86 425 86 425 106 425 c 0,230,231
 124 425 124 425 138 412 c 0,232,233
 151 399 151 399 152 379 c 0,234,235
 152 361 152 361 138 347 c 0,236,237
 124 334 124 334 106 333 c 1,238,-1
 106 333 l 1,222,223
346 333 m 1,239,240
 327 333 327 333 313 347 c 256,241,242
 300 360 300 360 300 379 c 0,243,244
 300 398 300 398 313 412 c 256,245,246
 326 425 326 425 346 425 c 0,247,248
 364 425 364 425 378 412 c 256,249,250
 391 399 391 399 392 379 c 0,251,252
 392 361 392 361 378 347 c 256,253,254
 365 334 365 334 346 333 c 1,255,-1
 346 333 l 1,239,240
46 417 m 1,256,257
 28 417 28 417 13 430 c 0,258,259
 0 444 0 444 0 462 c 0,260,261
 0 481 0 481 13 495 c 0,262,263
 27 508 27 508 46 508 c 0,264,265
 65 508 65 508 78 495 c 256,266,267
 91 482 91 482 92 462 c 0,268,269
 92 444 92 444 78 430 c 0,270,271
 65 417 65 417 46 417 c 1,272,-1
 46 417 l 1,256,257
226 333 m 1,273,274
 207 333 207 333 193 347 c 256,275,276
 180 360 180 360 180 379 c 0,277,278
 180 398 180 398 193 412 c 0,279,280
 199 418 199 418 207 421 c 1,281,-1
 207 421 l 1,282,283
 199 424 199 424 193 430 c 0,284,285
 180 444 180 444 180 462 c 0,286,287
 180 481 180 481 193 495 c 256,288,289
 206 508 206 508 226 508 c 0,290,291
 244 508 244 508 258 495 c 0,292,293
 271 482 271 482 272 462 c 0,294,295
 272 444 272 444 258 430 c 0,296,297
 252 424 252 424 245 421 c 1,298,-1
 245 421 l 1,299,300
 252 418 252 418 258 412 c 0,301,302
 271 399 271 399 272 379 c 0,303,304
 272 361 272 361 258 347 c 0,305,306
 244 334 244 334 226 333 c 1,307,-1
 226 333 l 1,273,274
406 417 m 1,308,309
 387 417 387 417 373 430 c 0,310,311
 360 444 360 444 360 462 c 0,312,313
 360 481 360 481 373 495 c 256,314,315
 386 508 386 508 406 508 c 256,316,317
 425 508 425 508 438 495 c 256,318,319
 451 482 451 482 452 462 c 0,320,321
 452 444 452 444 438 430 c 0,322,323
 425 417 425 417 406 417 c 1,324,-1
 406 417 l 1,308,309
EndSplineSet
EndChar

StartChar: plus
Encoding: 43 43 11
Width: 600
VWidth: 833
Flags: W
LayerCount: 2
Fore
SplineSet
46 -167 m 1,0,1
 28 -167 28 -167 13 -153 c 0,2,3
 0 -140 0 -140 0 -121 c 0,4,5
 0 -103 0 -103 13 -88 c 0,6,7
 27 -75 27 -75 46 -75 c 0,8,9
 65 -75 65 -75 78 -88 c 256,10,11
 91 -101 91 -101 92 -121 c 0,12,13
 92 -140 92 -140 78 -153 c 256,14,15
 65 -166 65 -166 46 -167 c 1,16,-1
 46 -167 l 1,0,1
166 -167 m 1,17,18
 148 -167 148 -167 133 -153 c 0,19,20
 120 -140 120 -140 120 -121 c 0,21,22
 120 -103 120 -103 133 -88 c 0,23,24
 147 -75 147 -75 166 -75 c 0,25,26
 185 -75 185 -75 198 -88 c 256,27,28
 211 -101 211 -101 212 -121 c 0,29,30
 212 -140 212 -140 198 -153 c 256,31,32
 185 -166 185 -166 166 -167 c 1,33,-1
 166 -167 l 1,17,18
286 -167 m 1,34,35
 267 -167 267 -167 253 -153 c 256,36,37
 240 -140 240 -140 240 -121 c 0,38,39
 240 -103 240 -103 253 -88 c 256,40,41
 266 -75 266 -75 286 -75 c 256,42,43
 305 -75 305 -75 318 -88 c 256,44,45
 331 -101 331 -101 332 -121 c 0,46,47
 332 -140 332 -140 318 -153 c 256,48,49
 305 -166 305 -166 286 -167 c 1,50,-1
 286 -167 l 1,34,35
406 -167 m 1,51,52
 387 -167 387 -167 373 -153 c 256,53,54
 360 -140 360 -140 360 -121 c 0,55,56
 360 -103 360 -103 373 -88 c 256,57,58
 386 -75 386 -75 406 -75 c 256,59,60
 425 -75 425 -75 438 -88 c 256,61,62
 451 -101 451 -101 452 -121 c 0,63,64
 452 -140 452 -140 438 -153 c 256,65,66
 425 -166 425 -166 406 -167 c 1,67,-1
 406 -167 l 1,51,52
526 -167 m 1,68,69
 507 -167 507 -167 493 -153 c 256,70,71
 480 -140 480 -140 480 -121 c 0,72,73
 480 -103 480 -103 493 -88 c 256,74,75
 506 -75 506 -75 526 -75 c 256,76,77
 545 -75 545 -75 558 -88 c 256,78,79
 571 -101 571 -101 572 -121 c 0,80,81
 572 -140 572 -140 558 -153 c 256,82,83
 545 -166 545 -166 526 -167 c 1,84,-1
 526 -167 l 1,68,69
226 83 m 1,85,86
 207 83 207 83 193 97 c 256,87,88
 180 110 180 110 180 129 c 256,89,90
 180 148 180 148 193 162 c 0,91,92
 199 168 199 168 207 171 c 1,93,-1
 207 171 l 1,94,95
 199 174 199 174 193 180 c 0,96,97
 180 192 180 192 180 212 c 0,98,99
 180 230 180 230 193 244 c 256,100,101
 206 257 206 257 226 258 c 0,102,103
 244 258 244 258 258 244 c 0,104,105
 271 230 271 230 272 212 c 0,106,107
 272 193 272 193 258 180 c 0,108,109
 252 174 252 174 245 171 c 1,110,-1
 245 171 l 1,111,112
 252 168 252 168 258 162 c 0,113,114
 271 149 271 149 272 129 c 256,115,116
 272 110 272 110 258 97 c 0,117,118
 244 84 244 84 226 83 c 1,119,-1
 226 83 l 1,85,86
46 250 m 1,120,121
 28 250 28 250 13 263 c 0,122,123
 0 276 0 276 0 296 c 0,124,125
 0 314 0 314 13 328 c 0,126,127
 27 341 27 341 46 342 c 0,128,129
 65 342 65 342 78 328 c 256,130,131
 91 315 91 315 92 296 c 0,132,133
 92 277 92 277 78 263 c 256,134,135
 65 250 65 250 46 250 c 1,136,-1
 46 250 l 1,120,121
166 250 m 1,137,138
 148 250 148 250 133 263 c 0,139,140
 120 276 120 276 120 296 c 0,141,142
 120 314 120 314 133 328 c 0,143,144
 147 341 147 341 166 342 c 0,145,146
 185 342 185 342 198 328 c 256,147,148
 211 315 211 315 212 296 c 0,149,150
 212 277 212 277 198 263 c 256,151,152
 185 250 185 250 166 250 c 1,153,-1
 166 250 l 1,137,138
286 250 m 1,154,155
 267 250 267 250 253 263 c 256,156,157
 240 276 240 276 240 296 c 0,158,159
 240 314 240 314 253 328 c 256,160,161
 266 341 266 341 286 342 c 256,162,163
 305 342 305 342 318 328 c 256,164,165
 331 315 331 315 332 296 c 0,166,167
 332 277 332 277 318 263 c 256,168,169
 305 250 305 250 286 250 c 1,170,-1
 286 250 l 1,154,155
406 250 m 1,171,172
 387 250 387 250 373 263 c 256,173,174
 360 276 360 276 360 296 c 0,175,176
 360 314 360 314 373 328 c 256,177,178
 386 341 386 341 406 342 c 256,179,180
 425 342 425 342 438 328 c 256,181,182
 451 315 451 315 452 296 c 0,183,184
 452 277 452 277 438 263 c 256,185,186
 425 250 425 250 406 250 c 1,187,-1
 406 250 l 1,171,172
226 333 m 1,188,189
 207 333 207 333 193 347 c 256,190,191
 180 360 180 360 180 379 c 0,192,193
 180 398 180 398 193 412 c 0,194,195
 199 418 199 418 207 421 c 1,196,-1
 207 421 l 1,197,198
 199 424 199 424 193 430 c 0,199,200
 180 444 180 444 180 462 c 0,201,202
 180 481 180 481 193 495 c 256,203,204
 206 508 206 508 226 508 c 0,205,206
 244 508 244 508 258 495 c 0,207,208
 271 482 271 482 272 462 c 0,209,210
 272 444 272 444 258 430 c 0,211,212
 252 424 252 424 245 421 c 1,213,-1
 245 421 l 1,214,215
 252 418 252 418 258 412 c 0,216,217
 271 399 271 399 272 379 c 0,218,219
 272 361 272 361 258 347 c 0,220,221
 244 334 244 334 226 333 c 1,222,-1
 226 333 l 1,188,189
EndSplineSet
EndChar

StartChar: comma
Encoding: 44 44 12
Width: 600
VWidth: 833
Flags: W
LayerCount: 2
Fore
SplineSet
46 -167 m 1,0,1
 28 -167 28 -167 13 -153 c 0,2,3
 0 -140 0 -140 0 -121 c 0,4,5
 0 -103 0 -103 13 -88 c 0,6,7
 27 -75 27 -75 46 -75 c 0,8,9
 65 -75 65 -75 78 -88 c 256,10,11
 91 -101 91 -101 92 -121 c 0,12,13
 92 -140 92 -140 78 -153 c 256,14,15
 65 -166 65 -166 46 -167 c 1,16,-1
 46 -167 l 1,0,1
286 -167 m 1,17,18
 267 -167 267 -167 253 -153 c 256,19,20
 240 -140 240 -140 240 -121 c 0,21,22
 240 -103 240 -103 253 -88 c 256,23,24
 266 -75 266 -75 286 -75 c 256,25,26
 305 -75 305 -75 318 -88 c 256,27,28
 331 -101 331 -101 332 -121 c 0,29,30
 332 -140 332 -140 318 -153 c 256,31,32
 305 -166 305 -166 286 -167 c 1,33,-1
 286 -167 l 1,17,18
406 -167 m 1,34,35
 387 -167 387 -167 373 -153 c 256,36,37
 360 -140 360 -140 360 -121 c 0,38,39
 360 -103 360 -103 373 -88 c 256,40,41
 386 -75 386 -75 406 -75 c 256,42,43
 425 -75 425 -75 438 -88 c 256,44,45
 451 -101 451 -101 452 -121 c 0,46,47
 452 -140 452 -140 438 -153 c 256,48,49
 425 -166 425 -166 406 -167 c 1,50,-1
 406 -167 l 1,34,35
526 -167 m 1,51,52
 507 -167 507 -167 493 -153 c 256,53,54
 480 -140 480 -140 480 -121 c 0,55,56
 480 -103 480 -103 493 -88 c 256,57,58
 506 -75 506 -75 526 -75 c 256,59,60
 545 -75 545 -75 558 -88 c 256,61,62
 571 -101 571 -101 572 -121 c 0,63,64
 572 -140 572 -140 558 -153 c 256,65,66
 545 -166 545 -166 526 -167 c 1,67,-1
 526 -167 l 1,51,52
166 -167 m 1,68,69
 148 -167 148 -167 133 -153 c 0,70,71
 120 -140 120 -140 120 -121 c 0,72,73
 120 -103 120 -103 133 -88 c 0,74,75
 139 -82 139 -82 146 -79 c 1,76,-1
 146 -79 l 1,77,78
 139 -76 139 -76 133 -69 c 0,79,80
 120 -56 120 -56 120 -38 c 0,81,82
 120 -19 120 -19 133 -5 c 0,83,84
 147 8 147 8 166 8 c 0,85,86
 185 8 185 8 198 -5 c 0,87,88
 211 -18 211 -18 212 -38 c 0,89,90
 212 -56 212 -56 198 -69 c 0,91,92
 192 -75 192 -75 185 -79 c 1,93,-1
 185 -79 l 1,94,95
 192 -82 192 -82 198 -88 c 0,96,97
 211 -101 211 -101 212 -121 c 0,98,99
 212 -140 212 -140 198 -153 c 256,100,101
 185 -166 185 -166 166 -167 c 1,102,-1
 166 -167 l 1,68,69
166 8 m 1,103,104
 166 8 l 257,105,106
 166 8 l 1,107,-1
 166 8 l 1,103,104
226 0 m 1,108,109
 207 0 207 0 193 13 c 0,110,111
 180 27 180 27 180 46 c 0,112,113
 180 65 180 65 193 78 c 256,114,115
 206 91 206 91 226 92 c 0,116,117
 244 92 244 92 258 78 c 0,118,119
 271 65 271 65 272 46 c 0,120,121
 272 28 272 28 258 13 c 0,122,123
 244 0 244 0 226 0 c 1,124,-1
 226 0 l 1,108,109
166 83 m 1,125,126
 148 83 148 83 133 97 c 0,127,128
 120 110 120 110 120 129 c 256,129,130
 120 148 120 148 133 162 c 0,131,132
 147 175 147 175 166 175 c 0,133,134
 185 175 185 175 198 162 c 256,135,136
 211 149 211 149 212 129 c 256,137,138
 212 110 212 110 198 97 c 256,139,140
 185 84 185 84 166 83 c 1,141,-1
 166 83 l 1,125,126
286 83 m 1,142,143
 267 83 267 83 253 97 c 256,144,145
 240 110 240 110 240 129 c 256,146,147
 240 148 240 148 253 162 c 256,148,149
 266 175 266 175 286 175 c 256,150,151
 305 175 305 175 318 162 c 256,152,153
 331 149 331 149 332 129 c 256,154,155
 332 110 332 110 318 97 c 256,156,157
 305 84 305 84 286 83 c 1,158,-1
 286 83 l 1,142,143
226 167 m 1,159,160
 207 167 207 167 193 180 c 256,161,162
 180 192 180 192 180 212 c 0,163,164
 180 230 180 230 193 244 c 256,165,166
 206 257 206 257 226 258 c 0,167,168
 244 258 244 258 258 244 c 0,169,170
 271 230 271 230 272 212 c 0,171,172
 272 193 272 193 258 180 c 0,173,174
 244 167 244 167 226 167 c 1,175,-1
 226 167 l 1,159,160
EndSplineSet
EndChar

StartChar: hyphen
Encoding: 45 45 13
Width: 600
VWidth: 833
Flags: W
LayerCount: 2
Fore
SplineSet
46 -167 m 1,0,1
 28 -167 28 -167 13 -153 c 0,2,3
 0 -140 0 -140 0 -121 c 0,4,5
 0 -103 0 -103 13 -88 c 0,6,7
 27 -75 27 -75 46 -75 c 0,8,9
 65 -75 65 -75 78 -88 c 256,10,11
 91 -101 91 -101 92 -121 c 0,12,13
 92 -140 92 -140 78 -153 c 256,14,15
 65 -166 65 -166 46 -167 c 1,16,-1
 46 -167 l 1,0,1
166 -167 m 1,17,18
 148 -167 148 -167 133 -153 c 0,19,20
 120 -140 120 -140 120 -121 c 0,21,22
 120 -103 120 -103 133 -88 c 0,23,24
 147 -75 147 -75 166 -75 c 0,25,26
 185 -75 185 -75 198 -88 c 256,27,28
 211 -101 211 -101 212 -121 c 0,29,30
 212 -140 212 -140 198 -153 c 256,31,32
 185 -166 185 -166 166 -167 c 1,33,-1
 166 -167 l 1,17,18
286 -167 m 1,34,35
 267 -167 267 -167 253 -153 c 256,36,37
 240 -140 240 -140 240 -121 c 0,38,39
 240 -103 240 -103 253 -88 c 256,40,41
 266 -75 266 -75 286 -75 c 256,42,43
 305 -75 305 -75 318 -88 c 256,44,45
 331 -101 331 -101 332 -121 c 0,46,47
 332 -140 332 -140 318 -153 c 256,48,49
 305 -166 305 -166 286 -167 c 1,50,-1
 286 -167 l 1,34,35
406 -167 m 1,51,52
 387 -167 387 -167 373 -153 c 256,53,54
 360 -140 360 -140 360 -121 c 0,55,56
 360 -103 360 -103 373 -88 c 256,57,58
 386 -75 386 -75 406 -75 c 256,59,60
 425 -75 425 -75 438 -88 c 256,61,62
 451 -101 451 -101 452 -121 c 0,63,64
 452 -140 452 -140 438 -153 c 256,65,66
 425 -166 425 -166 406 -167 c 1,67,-1
 406 -167 l 1,51,52
526 -167 m 1,68,69
 507 -167 507 -167 493 -153 c 256,70,71
 480 -140 480 -140 480 -121 c 0,72,73
 480 -103 480 -103 493 -88 c 256,74,75
 506 -75 506 -75 526 -75 c 256,76,77
 545 -75 545 -75 558 -88 c 256,78,79
 571 -101 571 -101 572 -121 c 0,80,81
 572 -140 572 -140 558 -153 c 256,82,83
 545 -166 545 -166 526 -167 c 1,84,-1
 526 -167 l 1,68,69
46 250 m 1,85,86
 28 250 28 250 13 263 c 0,87,88
 0 276 0 276 0 296 c 0,89,90
 0 314 0 314 13 328 c 0,91,92
 27 341 27 341 46 342 c 0,93,94
 65 342 65 342 78 328 c 256,95,96
 91 315 91 315 92 296 c 0,97,98
 92 277 92 277 78 263 c 256,99,100
 65 250 65 250 46 250 c 1,101,-1
 46 250 l 1,85,86
166 250 m 1,102,103
 148 250 148 250 133 263 c 0,104,105
 120 276 120 276 120 296 c 0,106,107
 120 314 120 314 133 328 c 0,108,109
 147 341 147 341 166 342 c 0,110,111
 185 342 185 342 198 328 c 256,112,113
 211 315 211 315 212 296 c 0,114,115
 212 277 212 277 198 263 c 256,116,117
 185 250 185 250 166 250 c 1,118,-1
 166 250 l 1,102,103
286 250 m 1,119,120
 267 250 267 250 253 263 c 256,121,122
 240 276 240 276 240 296 c 0,123,124
 240 314 240 314 253 328 c 256,125,126
 266 341 266 341 286 342 c 256,127,128
 305 342 305 342 318 328 c 256,129,130
 331 315 331 315 332 296 c 0,131,132
 332 277 332 277 318 263 c 256,133,134
 305 250 305 250 286 250 c 1,135,-1
 286 250 l 1,119,120
406 250 m 1,136,137
 387 250 387 250 373 263 c 256,138,139
 360 276 360 276 360 296 c 0,140,141
 360 314 360 314 373 328 c 256,142,143
 386 341 386 341 406 342 c 256,144,145
 425 342 425 342 438 328 c 256,146,147
 451 315 451 315 452 296 c 0,148,149
 452 277 452 277 438 263 c 256,150,151
 425 250 425 250 406 250 c 1,152,-1
 406 250 l 1,136,137
EndSplineSet
EndChar

StartChar: period
Encoding: 46 46 14
Width: 600
VWidth: 833
Flags: W
LayerCount: 2
Fore
SplineSet
46 -167 m 1,0,1
 28 -167 28 -167 13 -153 c 0,2,3
 0 -140 0 -140 0 -121 c 0,4,5
 0 -103 0 -103 13 -88 c 0,6,7
 27 -75 27 -75 46 -75 c 0,8,9
 65 -75 65 -75 78 -88 c 256,10,11
 91 -101 91 -101 92 -121 c 0,12,13
 92 -140 92 -140 78 -153 c 256,14,15
 65 -166 65 -166 46 -167 c 1,16,-1
 46 -167 l 1,0,1
166 -167 m 1,17,18
 148 -167 148 -167 133 -153 c 0,19,20
 120 -140 120 -140 120 -121 c 0,21,22
 120 -103 120 -103 133 -88 c 0,23,24
 147 -75 147 -75 166 -75 c 0,25,26
 185 -75 185 -75 198 -88 c 256,27,28
 211 -101 211 -101 212 -121 c 0,29,30
 212 -140 212 -140 198 -153 c 256,31,32
 185 -166 185 -166 166 -167 c 1,33,-1
 166 -167 l 1,17,18
286 -167 m 1,34,35
 267 -167 267 -167 253 -153 c 256,36,37
 240 -140 240 -140 240 -121 c 0,38,39
 240 -103 240 -103 253 -88 c 256,40,41
 266 -75 266 -75 286 -75 c 256,42,43
 305 -75 305 -75 318 -88 c 256,44,45
 331 -101 331 -101 332 -121 c 0,46,47
 332 -140 332 -140 318 -153 c 256,48,49
 305 -166 305 -166 286 -167 c 1,50,-1
 286 -167 l 1,34,35
406 -167 m 1,51,52
 387 -167 387 -167 373 -153 c 256,53,54
 360 -140 360 -140 360 -121 c 0,55,56
 360 -103 360 -103 373 -88 c 256,57,58
 386 -75 386 -75 406 -75 c 256,59,60
 425 -75 425 -75 438 -88 c 256,61,62
 451 -101 451 -101 452 -121 c 0,63,64
 452 -140 452 -140 438 -153 c 256,65,66
 425 -166 425 -166 406 -167 c 1,67,-1
 406 -167 l 1,51,52
526 -167 m 1,68,69
 507 -167 507 -167 493 -153 c 256,70,71
 480 -140 480 -140 480 -121 c 0,72,73
 480 -103 480 -103 493 -88 c 256,74,75
 506 -75 506 -75 526 -75 c 256,76,77
 545 -75 545 -75 558 -88 c 256,78,79
 571 -101 571 -101 572 -121 c 0,80,81
 572 -140 572 -140 558 -153 c 256,82,83
 545 -166 545 -166 526 -167 c 1,84,-1
 526 -167 l 1,68,69
226 0 m 1,85,86
 207 0 207 0 193 13 c 0,87,88
 180 27 180 27 180 46 c 0,89,90
 180 65 180 65 193 78 c 256,91,92
 206 91 206 91 226 92 c 0,93,94
 244 92 244 92 258 78 c 0,95,96
 271 65 271 65 272 46 c 0,97,98
 272 28 272 28 258 13 c 0,99,100
 244 0 244 0 226 0 c 1,101,-1
 226 0 l 1,85,86
166 83 m 1,102,103
 148 83 148 83 133 97 c 0,104,105
 120 110 120 110 120 129 c 256,106,107
 120 148 120 148 133 162 c 0,108,109
 147 175 147 175 166 175 c 0,110,111
 185 175 185 175 198 162 c 256,112,113
 211 149 211 149 212 129 c 256,114,115
 212 110 212 110 198 97 c 256,116,117
 185 84 185 84 166 83 c 1,118,-1
 166 83 l 1,102,103
286 83 m 1,119,120
 267 83 267 83 253 97 c 256,121,122
 240 110 240 110 240 129 c 256,123,124
 240 148 240 148 253 162 c 256,125,126
 266 175 266 175 286 175 c 256,127,128
 305 175 305 175 318 162 c 256,129,130
 331 149 331 149 332 129 c 256,131,132
 332 110 332 110 318 97 c 256,133,134
 305 84 305 84 286 83 c 1,135,-1
 286 83 l 1,119,120
226 167 m 1,136,137
 207 167 207 167 193 180 c 256,138,139
 180 192 180 192 180 212 c 0,140,141
 180 230 180 230 193 244 c 256,142,143
 206 257 206 257 226 258 c 0,144,145
 244 258 244 258 258 244 c 0,146,147
 271 230 271 230 272 212 c 0,148,149
 272 193 272 193 258 180 c 0,150,151
 244 167 244 167 226 167 c 1,152,-1
 226 167 l 1,136,137
EndSplineSet
EndChar

StartChar: slash
Encoding: 47 47 15
Width: 600
VWidth: 833
Flags: W
LayerCount: 2
Fore
SplineSet
46 -167 m 1,0,1
 28 -167 28 -167 13 -153 c 0,2,3
 0 -140 0 -140 0 -121 c 0,4,5
 0 -103 0 -103 13 -88 c 0,6,7
 27 -75 27 -75 46 -75 c 0,8,9
 65 -75 65 -75 78 -88 c 256,10,11
 91 -101 91 -101 92 -121 c 0,12,13
 92 -140 92 -140 78 -153 c 256,14,15
 65 -166 65 -166 46 -167 c 1,16,-1
 46 -167 l 1,0,1
166 -167 m 1,17,18
 148 -167 148 -167 133 -153 c 0,19,20
 120 -140 120 -140 120 -121 c 0,21,22
 120 -103 120 -103 133 -88 c 0,23,24
 147 -75 147 -75 166 -75 c 0,25,26
 185 -75 185 -75 198 -88 c 256,27,28
 211 -101 211 -101 212 -121 c 0,29,30
 212 -140 212 -140 198 -153 c 256,31,32
 185 -166 185 -166 166 -167 c 1,33,-1
 166 -167 l 1,17,18
286 -167 m 1,34,35
 267 -167 267 -167 253 -153 c 256,36,37
 240 -140 240 -140 240 -121 c 0,38,39
 240 -103 240 -103 253 -88 c 256,40,41
 266 -75 266 -75 286 -75 c 256,42,43
 305 -75 305 -75 318 -88 c 256,44,45
 331 -101 331 -101 332 -121 c 0,46,47
 332 -140 332 -140 318 -153 c 256,48,49
 305 -166 305 -166 286 -167 c 1,50,-1
 286 -167 l 1,34,35
406 -167 m 1,51,52
 387 -167 387 -167 373 -153 c 256,53,54
 360 -140 360 -140 360 -121 c 0,55,56
 360 -103 360 -103 373 -88 c 256,57,58
 386 -75 386 -75 406 -75 c 256,59,60
 425 -75 425 -75 438 -88 c 256,61,62
 451 -101 451 -101 452 -121 c 0,63,64
 452 -140 452 -140 438 -153 c 256,65,66
 425 -166 425 -166 406 -167 c 1,67,-1
 406 -167 l 1,51,52
526 -167 m 1,68,69
 507 -167 507 -167 493 -153 c 256,70,71
 480 -140 480 -140 480 -121 c 0,72,73
 480 -103 480 -103 493 -88 c 256,74,75
 506 -75 506 -75 526 -75 c 256,76,77
 545 -75 545 -75 558 -88 c 256,78,79
 571 -101 571 -101 572 -121 c 0,80,81
 572 -140 572 -140 558 -153 c 256,82,83
 545 -166 545 -166 526 -167 c 1,84,-1
 526 -167 l 1,68,69
46 0 m 1,85,86
 28 0 28 0 13 13 c 0,87,88
 0 27 0 27 0 46 c 0,89,90
 0 65 0 65 13 78 c 0,91,92
 27 91 27 91 46 92 c 0,93,94
 65 92 65 92 78 78 c 256,95,96
 91 65 91 65 92 46 c 0,97,98
 92 28 92 28 78 13 c 0,99,100
 65 0 65 0 46 0 c 1,101,-1
 46 0 l 1,85,86
106 83 m 1,102,103
 87 83 87 83 73 97 c 256,104,105
 60 110 60 110 60 129 c 256,106,107
 60 148 60 148 73 162 c 256,108,109
 86 175 86 175 106 175 c 0,110,111
 124 175 124 175 138 162 c 0,112,113
 151 149 151 149 152 129 c 256,114,115
 152 110 152 110 138 97 c 0,116,117
 124 84 124 84 106 83 c 1,118,-1
 106 83 l 1,102,103
166 167 m 1,119,120
 148 167 148 167 133 180 c 0,121,122
 120 192 120 192 120 212 c 0,123,124
 120 230 120 230 133 244 c 0,125,126
 147 257 147 257 166 258 c 0,127,128
 185 258 185 258 198 244 c 256,129,130
 211 230 211 230 212 212 c 0,131,132
 212 193 212 193 198 180 c 256,133,134
 185 167 185 167 166 167 c 1,135,-1
 166 167 l 1,119,120
226 250 m 1,136,137
 207 250 207 250 193 263 c 256,138,139
 180 276 180 276 180 296 c 0,140,141
 180 314 180 314 193 328 c 256,142,143
 206 341 206 341 226 342 c 0,144,145
 244 342 244 342 258 328 c 0,146,147
 271 315 271 315 272 296 c 0,148,149
 272 277 272 277 258 263 c 0,150,151
 244 250 244 250 226 250 c 1,152,-1
 226 250 l 1,136,137
286 333 m 1,153,154
 267 333 267 333 253 347 c 256,155,156
 240 360 240 360 240 379 c 0,157,158
 240 398 240 398 253 412 c 256,159,160
 266 425 266 425 286 425 c 256,161,162
 305 425 305 425 318 412 c 256,163,164
 331 399 331 399 332 379 c 0,165,166
 332 361 332 361 318 347 c 256,167,168
 305 334 305 334 286 333 c 1,169,-1
 286 333 l 1,153,154
346 417 m 1,170,171
 327 417 327 417 313 430 c 0,172,173
 300 444 300 444 300 462 c 0,174,175
 300 481 300 481 313 495 c 256,176,177
 326 508 326 508 346 508 c 0,178,179
 364 508 364 508 378 495 c 256,180,181
 391 482 391 482 392 462 c 0,182,183
 392 444 392 444 378 430 c 0,184,185
 365 417 365 417 346 417 c 1,186,-1
 346 417 l 1,170,171
406 500 m 1,187,188
 387 500 387 500 373 513 c 256,189,190
 360 526 360 526 360 546 c 256,191,192
 360 565 360 565 373 578 c 256,193,194
 386 591 386 591 406 592 c 256,195,196
 425 592 425 592 438 578 c 256,197,198
 451 565 451 565 452 546 c 256,199,200
 452 527 452 527 438 513 c 256,201,202
 425 500 425 500 406 500 c 1,203,-1
 406 500 l 1,187,188
EndSplineSet
EndChar

StartChar: zero
Encoding: 48 48 16
Width: 600
VWidth: 833
Flags: W
LayerCount: 2
Fore
SplineSet
46 -167 m 1,0,1
 28 -167 28 -167 13 -153 c 0,2,3
 0 -140 0 -140 0 -121 c 0,4,5
 0 -103 0 -103 13 -88 c 0,6,7
 27 -75 27 -75 46 -75 c 0,8,9
 65 -75 65 -75 78 -88 c 256,10,11
 91 -101 91 -101 92 -121 c 0,12,13
 92 -140 92 -140 78 -153 c 256,14,15
 65 -166 65 -166 46 -167 c 1,16,-1
 46 -167 l 1,0,1
166 -167 m 1,17,18
 148 -167 148 -167 133 -153 c 0,19,20
 120 -140 120 -140 120 -121 c 0,21,22
 120 -103 120 -103 133 -88 c 0,23,24
 147 -75 147 -75 166 -75 c 0,25,26
 185 -75 185 -75 198 -88 c 256,27,28
 211 -101 211 -101 212 -121 c 0,29,30
 212 -140 212 -140 198 -153 c 256,31,32
 185 -166 185 -166 166 -167 c 1,33,-1
 166 -167 l 1,17,18
286 -167 m 1,34,35
 267 -167 267 -167 253 -153 c 256,36,37
 240 -140 240 -140 240 -121 c 0,38,39
 240 -103 240 -103 253 -88 c 256,40,41
 266 -75 266 -75 286 -75 c 256,42,43
 305 -75 305 -75 318 -88 c 256,44,45
 331 -101 331 -101 332 -121 c 0,46,47
 332 -140 332 -140 318 -153 c 256,48,49
 305 -166 305 -166 286 -167 c 1,50,-1
 286 -167 l 1,34,35
406 -167 m 1,51,52
 387 -167 387 -167 373 -153 c 256,53,54
 360 -140 360 -140 360 -121 c 0,55,56
 360 -103 360 -103 373 -88 c 256,57,58
 386 -75 386 -75 406 -75 c 256,59,60
 425 -75 425 -75 438 -88 c 256,61,62
 451 -101 451 -101 452 -121 c 0,63,64
 452 -140 452 -140 438 -153 c 256,65,66
 425 -166 425 -166 406 -167 c 1,67,-1
 406 -167 l 1,51,52
526 -167 m 1,68,69
 507 -167 507 -167 493 -153 c 256,70,71
 480 -140 480 -140 480 -121 c 0,72,73
 480 -103 480 -103 493 -88 c 256,74,75
 506 -75 506 -75 526 -75 c 256,76,77
 545 -75 545 -75 558 -88 c 256,78,79
 571 -101 571 -101 572 -121 c 0,80,81
 572 -140 572 -140 558 -153 c 256,82,83
 545 -166 545 -166 526 -167 c 1,84,-1
 526 -167 l 1,68,69
166 0 m 1,85,86
 148 0 148 0 133 13 c 0,87,88
 120 27 120 27 120 46 c 0,89,90
 120 65 120 65 133 78 c 0,91,92
 147 91 147 91 166 92 c 0,93,94
 185 92 185 92 198 78 c 256,95,96
 211 65 211 65 212 46 c 0,97,98
 212 28 212 28 198 13 c 0,99,100
 185 0 185 0 166 0 c 1,101,-1
 166 0 l 1,85,86
286 0 m 1,102,103
 267 0 267 0 253 13 c 0,104,105
 240 27 240 27 240 46 c 0,106,107
 240 65 240 65 253 78 c 256,108,109
 266 91 266 91 286 92 c 256,110,111
 305 92 305 92 318 78 c 256,112,113
 331 65 331 65 332 46 c 0,114,115
 332 28 332 28 318 13 c 0,116,117
 305 0 305 0 286 0 c 1,118,-1
 286 0 l 1,102,103
106 83 m 1,119,120
 87 83 87 83 73 97 c 256,121,122
 60 110 60 110 60 129 c 256,123,124
 60 148 60 148 73 162 c 0,125,126
 79 168 79 168 87 171 c 1,127,-1
 87 171 l 1,128,129
 80 174 80 174 73 180 c 0,130,131
 60 192 60 192 60 212 c 0,132,133
 60 230 60 230 73 244 c 0,134,135
 79 250 79 250 87 254 c 1,136,-1
 87 254 l 1,137,138
 80 257 80 257 73 263 c 0,139,140
 60 276 60 276 60 296 c 0,141,142
 60 314 60 314 73 328 c 0,143,144
 79 334 79 334 87 338 c 1,145,-1
 87 338 l 1,146,147
 80 341 80 341 73 347 c 0,148,149
 60 360 60 360 60 379 c 0,150,151
 60 398 60 398 73 412 c 0,152,153
 79 418 79 418 87 421 c 1,154,-1
 87 421 l 1,155,156
 80 424 80 424 73 430 c 0,157,158
 60 444 60 444 60 462 c 0,159,160
 60 481 60 481 73 495 c 256,161,162
 86 508 86 508 106 508 c 0,163,164
 124 508 124 508 138 495 c 0,165,166
 151 482 151 482 152 462 c 0,167,168
 152 444 152 444 138 430 c 0,169,170
 132 424 132 424 125 421 c 1,171,-1
 125 421 l 1,172,173
 132 418 132 418 138 412 c 0,174,175
 151 399 151 399 152 379 c 0,176,177
 152 361 152 361 138 347 c 0,178,179
 132 342 132 342 125 338 c 1,180,-1
 125 338 l 1,181,182
 132 335 132 335 138 328 c 0,183,184
 151 315 151 315 152 296 c 0,185,186
 152 277 152 277 138 263 c 0,187,188
 132 257 132 257 125 254 c 1,189,-1
 125 254 l 1,190,191
 132 251 132 251 138 244 c 0,192,193
 151 230 151 230 152 212 c 0,194,195
 152 193 152 193 138 180 c 0,196,197
 132 174 132 174 125 171 c 1,198,-1
 125 171 l 1,199,200
 132 168 132 168 138 162 c 0,201,202
 151 149 151 149 152 129 c 256,203,204
 152 110 152 110 138 97 c 0,205,206
 124 84 124 84 106 83 c 1,207,-1
 106 83 l 1,119,120
346 83 m 1,208,209
 327 83 327 83 313 97 c 256,210,211
 300 110 300 110 300 129 c 256,212,213
 300 148 300 148 313 162 c 0,214,215
 319 168 319 168 327 171 c 1,216,-1
 327 171 l 1,217,218
 319 174 319 174 313 180 c 0,219,220
 300 192 300 192 300 212 c 0,221,222
 300 230 300 230 313 244 c 0,223,224
 319 250 319 250 327 254 c 1,225,-1
 327 254 l 1,226,227
 319 257 319 257 313 263 c 0,228,229
 300 276 300 276 300 296 c 0,230,231
 300 314 300 314 313 328 c 0,232,233
 319 334 319 334 327 338 c 1,234,-1
 327 338 l 1,235,236
 319 341 319 341 313 347 c 0,237,238
 300 360 300 360 300 379 c 0,239,240
 300 398 300 398 313 412 c 0,241,242
 319 418 319 418 327 421 c 1,243,-1
 327 421 l 1,244,245
 319 424 319 424 313 430 c 0,246,247
 300 444 300 444 300 462 c 0,248,249
 300 481 300 481 313 495 c 256,250,251
 326 508 326 508 346 508 c 0,252,253
 364 508 364 508 378 495 c 256,254,255
 391 482 391 482 392 462 c 0,256,257
 392 444 392 444 378 430 c 0,258,259
 372 424 372 424 365 421 c 1,260,-1
 365 421 l 1,261,262
 373 418 373 418 378 412 c 0,263,264
 391 399 391 399 392 379 c 0,265,266
 392 361 392 361 378 347 c 0,267,268
 372 342 372 342 365 338 c 1,269,-1
 365 338 l 1,270,271
 373 335 373 335 378 328 c 0,272,273
 391 315 391 315 392 296 c 0,274,275
 392 277 392 277 378 263 c 0,276,277
 372 257 372 257 365 254 c 1,278,-1
 365 254 l 1,279,280
 373 251 373 251 378 244 c 0,281,282
 391 230 391 230 392 212 c 0,283,284
 392 193 392 193 378 180 c 0,285,286
 372 174 372 174 365 171 c 1,287,-1
 365 171 l 1,288,289
 373 168 373 168 378 162 c 0,290,291
 391 149 391 149 392 129 c 256,292,293
 392 110 392 110 378 97 c 256,294,295
 365 84 365 84 346 83 c 1,296,-1
 346 83 l 1,208,209
166 500 m 1,297,298
 148 500 148 500 133 513 c 0,299,300
 120 526 120 526 120 546 c 256,301,302
 120 565 120 565 133 578 c 0,303,304
 147 591 147 591 166 592 c 0,305,306
 185 592 185 592 198 578 c 256,307,308
 211 565 211 565 212 546 c 256,309,310
 212 527 212 527 198 513 c 256,311,312
 185 500 185 500 166 500 c 1,313,-1
 166 500 l 1,297,298
286 500 m 1,314,315
 267 500 267 500 253 513 c 256,316,317
 240 526 240 526 240 546 c 256,318,319
 240 565 240 565 253 578 c 256,320,321
 266 591 266 591 286 592 c 256,322,323
 305 592 305 592 318 578 c 256,324,325
 331 565 331 565 332 546 c 256,326,327
 332 527 332 527 318 513 c 256,328,329
 305 500 305 500 286 500 c 1,330,-1
 286 500 l 1,314,315
EndSplineSet
EndChar

StartChar: one
Encoding: 49 49 17
Width: 600
VWidth: 833
Flags: W
LayerCount: 2
Fore
SplineSet
46 -167 m 1,0,1
 28 -167 28 -167 13 -153 c 0,2,3
 0 -140 0 -140 0 -121 c 0,4,5
 0 -103 0 -103 13 -88 c 0,6,7
 27 -75 27 -75 46 -75 c 0,8,9
 65 -75 65 -75 78 -88 c 256,10,11
 91 -101 91 -101 92 -121 c 0,12,13
 92 -140 92 -140 78 -153 c 256,14,15
 65 -166 65 -166 46 -167 c 1,16,-1
 46 -167 l 1,0,1
166 -167 m 1,17,18
 148 -167 148 -167 133 -153 c 0,19,20
 120 -140 120 -140 120 -121 c 0,21,22
 120 -103 120 -103 133 -88 c 0,23,24
 147 -75 147 -75 166 -75 c 0,25,26
 185 -75 185 -75 198 -88 c 256,27,28
 211 -101 211 -101 212 -121 c 0,29,30
 212 -140 212 -140 198 -153 c 256,31,32
 185 -166 185 -166 166 -167 c 1,33,-1
 166 -167 l 1,17,18
286 -167 m 1,34,35
 267 -167 267 -167 253 -153 c 256,36,37
 240 -140 240 -140 240 -121 c 0,38,39
 240 -103 240 -103 253 -88 c 256,40,41
 266 -75 266 -75 286 -75 c 256,42,43
 305 -75 305 -75 318 -88 c 256,44,45
 331 -101 331 -101 332 -121 c 0,46,47
 332 -140 332 -140 318 -153 c 256,48,49
 305 -166 305 -166 286 -167 c 1,50,-1
 286 -167 l 1,34,35
406 -167 m 1,51,52
 387 -167 387 -167 373 -153 c 256,53,54
 360 -140 360 -140 360 -121 c 0,55,56
 360 -103 360 -103 373 -88 c 256,57,58
 386 -75 386 -75 406 -75 c 256,59,60
 425 -75 425 -75 438 -88 c 256,61,62
 451 -101 451 -101 452 -121 c 0,63,64
 452 -140 452 -140 438 -153 c 256,65,66
 425 -166 425 -166 406 -167 c 1,67,-1
 406 -167 l 1,51,52
526 -167 m 1,68,69
 507 -167 507 -167 493 -153 c 256,70,71
 480 -140 480 -140 480 -121 c 0,72,73
 480 -103 480 -103 493 -88 c 256,74,75
 506 -75 506 -75 526 -75 c 256,76,77
 545 -75 545 -75 558 -88 c 256,78,79
 571 -101 571 -101 572 -121 c 0,80,81
 572 -140 572 -140 558 -153 c 256,82,83
 545 -166 545 -166 526 -167 c 1,84,-1
 526 -167 l 1,68,69
106 0 m 1,85,86
 87 0 87 0 73 13 c 0,87,88
 60 27 60 27 60 46 c 0,89,90
 60 65 60 65 73 78 c 256,91,92
 86 91 86 91 106 92 c 0,93,94
 124 92 124 92 138 78 c 0,95,96
 151 65 151 65 152 46 c 0,97,98
 152 28 152 28 138 13 c 0,99,100
 124 0 124 0 106 0 c 1,101,-1
 106 0 l 1,85,86
346 0 m 1,102,103
 327 0 327 0 313 13 c 0,104,105
 300 27 300 27 300 46 c 0,106,107
 300 65 300 65 313 78 c 256,108,109
 326 91 326 91 346 92 c 0,110,111
 364 92 364 92 378 78 c 256,112,113
 391 65 391 65 392 46 c 0,114,115
 392 28 392 28 378 13 c 0,116,117
 365 0 365 0 346 0 c 1,118,-1
 346 0 l 1,102,103
106 417 m 1,119,120
 87 417 87 417 73 430 c 0,121,122
 60 444 60 444 60 462 c 0,123,124
 60 481 60 481 73 495 c 256,125,126
 86 508 86 508 106 508 c 0,127,128
 124 508 124 508 138 495 c 0,129,130
 151 482 151 482 152 462 c 0,131,132
 152 444 152 444 138 430 c 0,133,134
 124 417 124 417 106 417 c 1,135,-1
 106 417 l 1,119,120
226 0 m 1,136,137
 207 0 207 0 193 13 c 0,138,139
 180 27 180 27 180 46 c 0,140,141
 180 65 180 65 193 78 c 0,142,143
 199 84 199 84 207 88 c 1,144,-1
 207 88 l 1,145,146
 199 91 199 91 193 97 c 0,147,148
 180 110 180 110 180 129 c 256,149,150
 180 148 180 148 193 162 c 0,151,152
 199 168 199 168 207 171 c 1,153,-1
 207 171 l 1,154,155
 199 174 199 174 193 180 c 0,156,157
 180 192 180 192 180 212 c 0,158,159
 180 230 180 230 193 244 c 0,160,161
 199 250 199 250 207 254 c 1,162,-1
 207 254 l 1,163,164
 199 257 199 257 193 263 c 0,165,166
 180 276 180 276 180 296 c 0,167,168
 180 314 180 314 193 328 c 0,169,170
 199 334 199 334 207 338 c 1,171,-1
 207 338 l 1,172,173
 199 341 199 341 193 347 c 0,174,175
 180 360 180 360 180 379 c 0,176,177
 180 398 180 398 193 412 c 0,178,179
 199 418 199 418 207 421 c 1,180,-1
 207 421 l 1,181,182
 199 424 199 424 193 430 c 0,183,184
 180 444 180 444 180 462 c 0,185,186
 180 481 180 481 193 495 c 0,187,188
 199 501 199 501 207 504 c 1,189,-1
 207 504 l 1,190,191
 199 507 199 507 193 513 c 0,192,193
 180 526 180 526 180 546 c 256,194,195
 180 565 180 565 193 578 c 256,196,197
 206 591 206 591 226 592 c 0,198,199
 244 592 244 592 258 578 c 0,200,201
 271 565 271 565 272 546 c 256,202,203
 272 527 272 527 258 513 c 0,204,205
 252 507 252 507 245 504 c 1,206,-1
 245 504 l 1,207,208
 252 501 252 501 258 495 c 0,209,210
 271 482 271 482 272 462 c 0,211,212
 272 444 272 444 258 430 c 0,213,214
 252 424 252 424 245 421 c 1,215,-1
 245 421 l 1,216,217
 252 418 252 418 258 412 c 0,218,219
 271 399 271 399 272 379 c 0,220,221
 272 361 272 361 258 347 c 0,222,223
 252 342 252 342 245 338 c 1,224,-1
 245 338 l 1,225,226
 252 335 252 335 258 328 c 0,227,228
 271 315 271 315 272 296 c 0,229,230
 272 277 272 277 258 263 c 0,231,232
 252 257 252 257 245 254 c 1,233,-1
 245 254 l 1,234,235
 252 251 252 251 258 244 c 0,236,237
 271 230 271 230 272 212 c 0,238,239
 272 193 272 193 258 180 c 0,240,241
 252 174 252 174 245 171 c 1,242,-1
 245 171 l 1,243,244
 252 168 252 168 258 162 c 0,245,246
 271 149 271 149 272 129 c 256,247,248
 272 110 272 110 258 97 c 0,249,250
 252 92 252 92 245 88 c 1,251,-1
 245 88 l 1,252,253
 252 85 252 85 258 78 c 0,254,255
 271 65 271 65 272 46 c 0,256,257
 272 28 272 28 258 13 c 0,258,259
 244 0 244 0 226 0 c 1,260,-1
 226 0 l 1,136,137
EndSplineSet
EndChar

StartChar: two
Encoding: 50 50 18
Width: 600
VWidth: 833
Flags: W
LayerCount: 2
Fore
SplineSet
46 -167 m 1,0,1
 28 -167 28 -167 13 -153 c 0,2,3
 0 -140 0 -140 0 -121 c 0,4,5
 0 -103 0 -103 13 -88 c 0,6,7
 27 -75 27 -75 46 -75 c 0,8,9
 65 -75 65 -75 78 -88 c 256,10,11
 91 -101 91 -101 92 -121 c 0,12,13
 92 -140 92 -140 78 -153 c 256,14,15
 65 -166 65 -166 46 -167 c 1,16,-1
 46 -167 l 1,0,1
166 -167 m 1,17,18
 148 -167 148 -167 133 -153 c 0,19,20
 120 -140 120 -140 120 -121 c 0,21,22
 120 -103 120 -103 133 -88 c 0,23,24
 147 -75 147 -75 166 -75 c 0,25,26
 185 -75 185 -75 198 -88 c 256,27,28
 211 -101 211 -101 212 -121 c 0,29,30
 212 -140 212 -140 198 -153 c 256,31,32
 185 -166 185 -166 166 -167 c 1,33,-1
 166 -167 l 1,17,18
286 -167 m 1,34,35
 267 -167 267 -167 253 -153 c 256,36,37
 240 -140 240 -140 240 -121 c 0,38,39
 240 -103 240 -103 253 -88 c 256,40,41
 266 -75 266 -75 286 -75 c 256,42,43
 305 -75 305 -75 318 -88 c 256,44,45
 331 -101 331 -101 332 -121 c 0,46,47
 332 -140 332 -140 318 -153 c 256,48,49
 305 -166 305 -166 286 -167 c 1,50,-1
 286 -167 l 1,34,35
406 -167 m 1,51,52
 387 -167 387 -167 373 -153 c 256,53,54
 360 -140 360 -140 360 -121 c 0,55,56
 360 -103 360 -103 373 -88 c 256,57,58
 386 -75 386 -75 406 -75 c 256,59,60
 425 -75 425 -75 438 -88 c 256,61,62
 451 -101 451 -101 452 -121 c 0,63,64
 452 -140 452 -140 438 -153 c 256,65,66
 425 -166 425 -166 406 -167 c 1,67,-1
 406 -167 l 1,51,52
526 -167 m 1,68,69
 507 -167 507 -167 493 -153 c 256,70,71
 480 -140 480 -140 480 -121 c 0,72,73
 480 -103 480 -103 493 -88 c 256,74,75
 506 -75 506 -75 526 -75 c 256,76,77
 545 -75 545 -75 558 -88 c 256,78,79
 571 -101 571 -101 572 -121 c 0,80,81
 572 -140 572 -140 558 -153 c 256,82,83
 545 -166 545 -166 526 -167 c 1,84,-1
 526 -167 l 1,68,69
46 0 m 1,85,86
 28 0 28 0 13 13 c 0,87,88
 0 27 0 27 0 46 c 0,89,90
 0 65 0 65 13 78 c 0,91,92
 27 91 27 91 46 92 c 0,93,94
 65 92 65 92 78 78 c 256,95,96
 91 65 91 65 92 46 c 0,97,98
 92 28 92 28 78 13 c 0,99,100
 65 0 65 0 46 0 c 1,101,-1
 46 0 l 1,85,86
166 0 m 1,102,103
 148 0 148 0 133 13 c 0,104,105
 120 27 120 27 120 46 c 0,106,107
 120 65 120 65 133 78 c 0,108,109
 147 91 147 91 166 92 c 0,110,111
 185 92 185 92 198 78 c 256,112,113
 211 65 211 65 212 46 c 0,114,115
 212 28 212 28 198 13 c 0,116,117
 185 0 185 0 166 0 c 1,118,-1
 166 0 l 1,102,103
286 0 m 1,119,120
 267 0 267 0 253 13 c 0,121,122
 240 27 240 27 240 46 c 0,123,124
 240 65 240 65 253 78 c 256,125,126
 266 91 266 91 286 92 c 256,127,128
 305 92 305 92 318 78 c 256,129,130
 331 65 331 65 332 46 c 0,131,132
 332 28 332 28 318 13 c 0,133,134
 305 0 305 0 286 0 c 1,135,-1
 286 0 l 1,119,120
406 0 m 1,136,137
 387 0 387 0 373 13 c 0,138,139
 360 27 360 27 360 46 c 0,140,141
 360 65 360 65 373 78 c 256,142,143
 386 91 386 91 406 92 c 256,144,145
 425 92 425 92 438 78 c 256,146,147
 451 65 451 65 452 46 c 0,148,149
 452 28 452 28 438 13 c 0,150,151
 425 0 425 0 406 0 c 1,152,-1
 406 0 l 1,136,137
106 83 m 1,153,154
 87 83 87 83 73 97 c 256,155,156
 60 110 60 110 60 129 c 256,157,158
 60 148 60 148 73 162 c 256,159,160
 86 175 86 175 106 175 c 0,161,162
 124 175 124 175 138 162 c 0,163,164
 151 149 151 149 152 129 c 256,165,166
 152 110 152 110 138 97 c 0,167,168
 124 84 124 84 106 83 c 1,169,-1
 106 83 l 1,153,154
166 167 m 1,170,171
 148 167 148 167 133 180 c 0,172,173
 120 192 120 192 120 212 c 0,174,175
 120 230 120 230 133 244 c 0,176,177
 147 257 147 257 166 258 c 0,178,179
 185 258 185 258 198 244 c 256,180,181
 211 230 211 230 212 212 c 0,182,183
 212 193 212 193 198 180 c 256,184,185
 185 167 185 167 166 167 c 1,186,-1
 166 167 l 1,170,171
286 250 m 1,187,188
 267 250 267 250 253 263 c 256,189,190
 240 276 240 276 240 296 c 0,191,192
 240 314 240 314 253 328 c 256,193,194
 266 341 266 341 286 342 c 256,195,196
 305 342 305 342 318 328 c 256,197,198
 331 315 331 315 332 296 c 0,199,200
 332 277 332 277 318 263 c 256,201,202
 305 250 305 250 286 250 c 1,203,-1
 286 250 l 1,187,188
346 333 m 1,204,205
 327 333 327 333 313 347 c 256,206,207
 300 360 300 360 300 379 c 0,208,209
 300 398 300 398 313 412 c 256,210,211
 326 425 326 425 346 425 c 0,212,213
 364 425 364 425 378 412 c 256,214,215
 391 399 391 399 392 379 c 0,216,217
 392 361 392 361 378 347 c 256,218,219
 365 334 365 334 346 333 c 1,220,-1
 346 333 l 1,204,205
46 417 m 1,221,222
 28 417 28 417 13 430 c 0,223,224
 0 444 0 444 0 462 c 0,225,226
 0 481 0 481 13 495 c 0,227,228
 27 508 27 508 46 508 c 0,229,230
 65 508 65 508 78 495 c 256,231,232
 91 482 91 482 92 462 c 0,233,234
 92 444 92 444 78 430 c 0,235,236
 65 417 65 417 46 417 c 1,237,-1
 46 417 l 1,221,222
406 417 m 1,238,239
 387 417 387 417 373 430 c 0,240,241
 360 444 360 444 360 462 c 0,242,243
 360 481 360 481 373 495 c 256,244,245
 386 508 386 508 406 508 c 256,246,247
 425 508 425 508 438 495 c 256,248,249
 451 482 451 482 452 462 c 0,250,251
 452 444 452 444 438 430 c 0,252,253
 425 417 425 417 406 417 c 1,254,-1
 406 417 l 1,238,239
106 500 m 1,255,256
 87 500 87 500 73 513 c 256,257,258
 60 526 60 526 60 546 c 256,259,260
 60 565 60 565 73 578 c 256,261,262
 86 591 86 591 106 592 c 0,263,264
 124 592 124 592 138 578 c 0,265,266
 151 565 151 565 152 546 c 256,267,268
 152 527 152 527 138 513 c 0,269,270
 124 500 124 500 106 500 c 1,271,-1
 106 500 l 1,255,256
226 500 m 1,272,273
 207 500 207 500 193 513 c 256,274,275
 180 526 180 526 180 546 c 256,276,277
 180 565 180 565 193 578 c 256,278,279
 206 591 206 591 226 592 c 0,280,281
 244 592 244 592 258 578 c 0,282,283
 271 565 271 565 272 546 c 256,284,285
 272 527 272 527 258 513 c 0,286,287
 244 500 244 500 226 500 c 1,288,-1
 226 500 l 1,272,273
346 500 m 1,289,290
 327 500 327 500 313 513 c 256,291,292
 300 526 300 526 300 546 c 256,293,294
 300 565 300 565 313 578 c 256,295,296
 326 591 326 591 346 592 c 0,297,298
 364 592 364 592 378 578 c 256,299,300
 391 565 391 565 392 546 c 256,301,302
 392 527 392 527 378 513 c 256,303,304
 365 500 365 500 346 500 c 1,305,-1
 346 500 l 1,289,290
EndSplineSet
EndChar

StartChar: three
Encoding: 51 51 19
Width: 600
VWidth: 833
Flags: W
LayerCount: 2
Fore
SplineSet
46 -167 m 1,0,1
 28 -167 28 -167 13 -153 c 0,2,3
 0 -140 0 -140 0 -121 c 0,4,5
 0 -103 0 -103 13 -88 c 0,6,7
 27 -75 27 -75 46 -75 c 0,8,9
 65 -75 65 -75 78 -88 c 256,10,11
 91 -101 91 -101 92 -121 c 0,12,13
 92 -140 92 -140 78 -153 c 256,14,15
 65 -166 65 -166 46 -167 c 1,16,-1
 46 -167 l 1,0,1
166 -167 m 1,17,18
 148 -167 148 -167 133 -153 c 0,19,20
 120 -140 120 -140 120 -121 c 0,21,22
 120 -103 120 -103 133 -88 c 0,23,24
 147 -75 147 -75 166 -75 c 0,25,26
 185 -75 185 -75 198 -88 c 256,27,28
 211 -101 211 -101 212 -121 c 0,29,30
 212 -140 212 -140 198 -153 c 256,31,32
 185 -166 185 -166 166 -167 c 1,33,-1
 166 -167 l 1,17,18
286 -167 m 1,34,35
 267 -167 267 -167 253 -153 c 256,36,37
 240 -140 240 -140 240 -121 c 0,38,39
 240 -103 240 -103 253 -88 c 256,40,41
 266 -75 266 -75 286 -75 c 256,42,43
 305 -75 305 -75 318 -88 c 256,44,45
 331 -101 331 -101 332 -121 c 0,46,47
 332 -140 332 -140 318 -153 c 256,48,49
 305 -166 305 -166 286 -167 c 1,50,-1
 286 -167 l 1,34,35
406 -167 m 1,51,52
 387 -167 387 -167 373 -153 c 256,53,54
 360 -140 360 -140 360 -121 c 0,55,56
 360 -103 360 -103 373 -88 c 256,57,58
 386 -75 386 -75 406 -75 c 256,59,60
 425 -75 425 -75 438 -88 c 256,61,62
 451 -101 451 -101 452 -121 c 0,63,64
 452 -140 452 -140 438 -153 c 256,65,66
 425 -166 425 -166 406 -167 c 1,67,-1
 406 -167 l 1,51,52
526 -167 m 1,68,69
 507 -167 507 -167 493 -153 c 256,70,71
 480 -140 480 -140 480 -121 c 0,72,73
 480 -103 480 -103 493 -88 c 256,74,75
 506 -75 506 -75 526 -75 c 256,76,77
 545 -75 545 -75 558 -88 c 256,78,79
 571 -101 571 -101 572 -121 c 0,80,81
 572 -140 572 -140 558 -153 c 256,82,83
 545 -166 545 -166 526 -167 c 1,84,-1
 526 -167 l 1,68,69
106 0 m 1,85,86
 87 0 87 0 73 13 c 0,87,88
 60 27 60 27 60 46 c 0,89,90
 60 65 60 65 73 78 c 256,91,92
 86 91 86 91 106 92 c 0,93,94
 124 92 124 92 138 78 c 0,95,96
 151 65 151 65 152 46 c 0,97,98
 152 28 152 28 138 13 c 0,99,100
 124 0 124 0 106 0 c 1,101,-1
 106 0 l 1,85,86
226 0 m 1,102,103
 207 0 207 0 193 13 c 0,104,105
 180 27 180 27 180 46 c 0,106,107
 180 65 180 65 193 78 c 256,108,109
 206 91 206 91 226 92 c 0,110,111
 244 92 244 92 258 78 c 0,112,113
 271 65 271 65 272 46 c 0,114,115
 272 28 272 28 258 13 c 0,116,117
 244 0 244 0 226 0 c 1,118,-1
 226 0 l 1,102,103
346 0 m 1,119,120
 327 0 327 0 313 13 c 0,121,122
 300 27 300 27 300 46 c 0,123,124
 300 65 300 65 313 78 c 256,125,126
 326 91 326 91 346 92 c 0,127,128
 364 92 364 92 378 78 c 256,129,130
 391 65 391 65 392 46 c 0,131,132
 392 28 392 28 378 13 c 0,133,134
 365 0 365 0 346 0 c 1,135,-1
 346 0 l 1,119,120
46 83 m 1,136,137
 28 83 28 83 13 97 c 0,138,139
 0 110 0 110 0 129 c 256,140,141
 0 148 0 148 13 162 c 0,142,143
 27 175 27 175 46 175 c 0,144,145
 65 175 65 175 78 162 c 256,146,147
 91 149 91 149 92 129 c 256,148,149
 92 110 92 110 78 97 c 256,150,151
 65 84 65 84 46 83 c 1,152,-1
 46 83 l 1,136,137
406 83 m 1,153,154
 387 83 387 83 373 97 c 256,155,156
 360 110 360 110 360 129 c 256,157,158
 360 148 360 148 373 162 c 0,159,160
 379 168 379 168 386 171 c 1,161,-1
 386 171 l 1,162,163
 379 174 379 174 373 180 c 0,164,165
 360 192 360 192 360 212 c 0,166,167
 360 230 360 230 373 244 c 256,168,169
 386 257 386 257 406 258 c 256,170,171
 425 258 425 258 438 244 c 256,172,173
 451 230 451 230 452 212 c 0,174,175
 452 193 452 193 438 180 c 0,176,177
 432 174 432 174 425 171 c 1,178,-1
 425 171 l 1,179,180
 432 168 432 168 438 162 c 0,181,182
 451 149 451 149 452 129 c 256,183,184
 452 110 452 110 438 97 c 256,185,186
 425 84 425 84 406 83 c 1,187,-1
 406 83 l 1,153,154
226 250 m 1,188,189
 207 250 207 250 193 263 c 256,190,191
 180 276 180 276 180 296 c 0,192,193
 180 314 180 314 193 328 c 256,194,195
 206 341 206 341 226 342 c 0,196,197
 244 342 244 342 258 328 c 0,198,199
 271 315 271 315 272 296 c 0,200,201
 272 277 272 277 258 263 c 0,202,203
 244 250 244 250 226 250 c 1,204,-1
 226 250 l 1,188,189
346 250 m 1,205,206
 327 250 327 250 313 263 c 256,207,208
 300 276 300 276 300 296 c 0,209,210
 300 314 300 314 313 328 c 256,211,212
 326 341 326 341 346 342 c 0,213,214
 364 342 364 342 378 328 c 256,215,216
 391 315 391 315 392 296 c 0,217,218
 392 277 392 277 378 263 c 256,219,220
 365 250 365 250 346 250 c 1,221,-1
 346 250 l 1,205,206
46 417 m 1,222,223
 28 417 28 417 13 430 c 0,224,225
 0 444 0 444 0 462 c 0,226,227
 0 481 0 481 13 495 c 0,228,229
 27 508 27 508 46 508 c 0,230,231
 65 508 65 508 78 495 c 256,232,233
 91 482 91 482 92 462 c 0,234,235
 92 444 92 444 78 430 c 0,236,237
 65 417 65 417 46 417 c 1,238,-1
 46 417 l 1,222,223
406 333 m 1,239,240
 387 333 387 333 373 347 c 256,241,242
 360 360 360 360 360 379 c 0,243,244
 360 398 360 398 373 412 c 0,245,246
 379 418 379 418 386 421 c 1,247,-1
 386 421 l 1,248,249
 379 424 379 424 373 430 c 0,250,251
 360 444 360 444 360 462 c 0,252,253
 360 481 360 481 373 495 c 256,254,255
 386 508 386 508 406 508 c 256,256,257
 425 508 425 508 438 495 c 256,258,259
 451 482 451 482 452 462 c 0,260,261
 452 444 452 444 438 430 c 0,262,263
 432 424 432 424 425 421 c 1,264,-1
 425 421 l 1,265,266
 432 418 432 418 438 412 c 0,267,268
 451 399 451 399 452 379 c 0,269,270
 452 361 452 361 438 347 c 256,271,272
 425 334 425 334 406 333 c 1,273,-1
 406 333 l 1,239,240
106 500 m 1,274,275
 87 500 87 500 73 513 c 256,276,277
 60 526 60 526 60 546 c 256,278,279
 60 565 60 565 73 578 c 256,280,281
 86 591 86 591 106 592 c 0,282,283
 124 592 124 592 138 578 c 0,284,285
 151 565 151 565 152 546 c 256,286,287
 152 527 152 527 138 513 c 0,288,289
 124 500 124 500 106 500 c 1,290,-1
 106 500 l 1,274,275
226 500 m 1,291,292
 207 500 207 500 193 513 c 256,293,294
 180 526 180 526 180 546 c 256,295,296
 180 565 180 565 193 578 c 256,297,298
 206 591 206 591 226 592 c 0,299,300
 244 592 244 592 258 578 c 0,301,302
 271 565 271 565 272 546 c 256,303,304
 272 527 272 527 258 513 c 0,305,306
 244 500 244 500 226 500 c 1,307,-1
 226 500 l 1,291,292
346 500 m 1,308,309
 327 500 327 500 313 513 c 256,310,311
 300 526 300 526 300 546 c 256,312,313
 300 565 300 565 313 578 c 256,314,315
 326 591 326 591 346 592 c 0,316,317
 364 592 364 592 378 578 c 256,318,319
 391 565 391 565 392 546 c 256,320,321
 392 527 392 527 378 513 c 256,322,323
 365 500 365 500 346 500 c 1,324,-1
 346 500 l 1,308,309
EndSplineSet
EndChar

StartChar: four
Encoding: 52 52 20
Width: 600
VWidth: 833
Flags: W
LayerCount: 2
Fore
SplineSet
46 -167 m 1,0,1
 28 -167 28 -167 13 -153 c 0,2,3
 0 -140 0 -140 0 -121 c 0,4,5
 0 -103 0 -103 13 -88 c 0,6,7
 27 -75 27 -75 46 -75 c 0,8,9
 65 -75 65 -75 78 -88 c 256,10,11
 91 -101 91 -101 92 -121 c 0,12,13
 92 -140 92 -140 78 -153 c 256,14,15
 65 -166 65 -166 46 -167 c 1,16,-1
 46 -167 l 1,0,1
166 -167 m 1,17,18
 148 -167 148 -167 133 -153 c 0,19,20
 120 -140 120 -140 120 -121 c 0,21,22
 120 -103 120 -103 133 -88 c 0,23,24
 147 -75 147 -75 166 -75 c 0,25,26
 185 -75 185 -75 198 -88 c 256,27,28
 211 -101 211 -101 212 -121 c 0,29,30
 212 -140 212 -140 198 -153 c 256,31,32
 185 -166 185 -166 166 -167 c 1,33,-1
 166 -167 l 1,17,18
286 -167 m 1,34,35
 267 -167 267 -167 253 -153 c 256,36,37
 240 -140 240 -140 240 -121 c 0,38,39
 240 -103 240 -103 253 -88 c 256,40,41
 266 -75 266 -75 286 -75 c 256,42,43
 305 -75 305 -75 318 -88 c 256,44,45
 331 -101 331 -101 332 -121 c 0,46,47
 332 -140 332 -140 318 -153 c 256,48,49
 305 -166 305 -166 286 -167 c 1,50,-1
 286 -167 l 1,34,35
406 -167 m 1,51,52
 387 -167 387 -167 373 -153 c 256,53,54
 360 -140 360 -140 360 -121 c 0,55,56
 360 -103 360 -103 373 -88 c 256,57,58
 386 -75 386 -75 406 -75 c 256,59,60
 425 -75 425 -75 438 -88 c 256,61,62
 451 -101 451 -101 452 -121 c 0,63,64
 452 -140 452 -140 438 -153 c 256,65,66
 425 -166 425 -166 406 -167 c 1,67,-1
 406 -167 l 1,51,52
526 -167 m 1,68,69
 507 -167 507 -167 493 -153 c 256,70,71
 480 -140 480 -140 480 -121 c 0,72,73
 480 -103 480 -103 493 -88 c 256,74,75
 506 -75 506 -75 526 -75 c 256,76,77
 545 -75 545 -75 558 -88 c 256,78,79
 571 -101 571 -101 572 -121 c 0,80,81
 572 -140 572 -140 558 -153 c 256,82,83
 545 -166 545 -166 526 -167 c 1,84,-1
 526 -167 l 1,68,69
346 0 m 1,85,86
 327 0 327 0 313 13 c 0,87,88
 300 27 300 27 300 46 c 0,89,90
 300 65 300 65 313 78 c 0,91,92
 319 84 319 84 327 88 c 1,93,-1
 327 88 l 1,94,95
 319 91 319 91 313 97 c 0,96,97
 300 110 300 110 300 129 c 256,98,99
 300 148 300 148 313 162 c 0,100,101
 319 168 319 168 327 171 c 1,102,-1
 327 171 l 1,103,104
 319 174 319 174 313 180 c 0,105,106
 300 192 300 192 300 212 c 0,107,108
 300 230 300 230 313 244 c 256,109,110
 326 257 326 257 346 258 c 0,111,112
 364 258 364 258 378 244 c 256,113,114
 391 230 391 230 392 212 c 0,115,116
 392 193 392 193 378 180 c 0,117,118
 372 174 372 174 365 171 c 1,119,-1
 365 171 l 1,120,121
 373 168 373 168 378 162 c 0,122,123
 391 149 391 149 392 129 c 256,124,125
 392 110 392 110 378 97 c 0,126,127
 372 92 372 92 365 88 c 1,128,-1
 365 88 l 1,129,130
 373 85 373 85 378 78 c 0,131,132
 391 65 391 65 392 46 c 0,133,134
 392 28 392 28 378 13 c 0,135,136
 365 0 365 0 346 0 c 1,137,-1
 346 0 l 1,85,86
46 250 m 1,138,139
 28 250 28 250 13 263 c 0,140,141
 0 276 0 276 0 296 c 0,142,143
 0 314 0 314 13 328 c 0,144,145
 27 341 27 341 46 342 c 0,146,147
 65 342 65 342 78 328 c 256,148,149
 91 315 91 315 92 296 c 0,150,151
 92 277 92 277 78 263 c 256,152,153
 65 250 65 250 46 250 c 1,154,-1
 46 250 l 1,138,139
166 250 m 1,155,156
 148 250 148 250 133 263 c 0,157,158
 120 276 120 276 120 296 c 0,159,160
 120 314 120 314 133 328 c 0,161,162
 147 341 147 341 166 342 c 0,163,164
 185 342 185 342 198 328 c 256,165,166
 211 315 211 315 212 296 c 0,167,168
 212 277 212 277 198 263 c 256,169,170
 185 250 185 250 166 250 c 1,171,-1
 166 250 l 1,155,156
286 250 m 1,172,173
 267 250 267 250 253 263 c 256,174,175
 240 276 240 276 240 296 c 0,176,177
 240 314 240 314 253 328 c 256,178,179
 266 341 266 341 286 342 c 256,180,181
 305 342 305 342 318 328 c 256,182,183
 331 315 331 315 332 296 c 0,184,185
 332 277 332 277 318 263 c 256,186,187
 305 250 305 250 286 250 c 1,188,-1
 286 250 l 1,172,173
406 250 m 1,189,190
 387 250 387 250 373 263 c 256,191,192
 360 276 360 276 360 296 c 0,193,194
 360 314 360 314 373 328 c 256,195,196
 386 341 386 341 406 342 c 256,197,198
 425 342 425 342 438 328 c 256,199,200
 451 315 451 315 452 296 c 0,201,202
 452 277 452 277 438 263 c 256,203,204
 425 250 425 250 406 250 c 1,205,-1
 406 250 l 1,189,190
106 333 m 1,206,207
 87 333 87 333 73 347 c 256,208,209
 60 360 60 360 60 379 c 0,210,211
 60 398 60 398 73 412 c 256,212,213
 86 425 86 425 106 425 c 0,214,215
 124 425 124 425 138 412 c 0,216,217
 151 399 151 399 152 379 c 0,218,219
 152 361 152 361 138 347 c 0,220,221
 124 334 124 334 106 333 c 1,222,-1
 106 333 l 1,206,207
166 417 m 1,223,224
 148 417 148 417 133 430 c 0,225,226
 120 444 120 444 120 462 c 0,227,228
 120 481 120 481 133 495 c 0,229,230
 147 508 147 508 166 508 c 0,231,232
 185 508 185 508 198 495 c 256,233,234
 211 482 211 482 212 462 c 0,235,236
 212 444 212 444 198 430 c 0,237,238
 185 417 185 417 166 417 c 1,239,-1
 166 417 l 1,223,224
226 500 m 1,240,241
 207 500 207 500 193 513 c 256,242,243
 180 526 180 526 180 546 c 256,244,245
 180 565 180 565 193 578 c 256,246,247
 206 591 206 591 226 592 c 0,248,249
 244 592 244 592 258 578 c 0,250,251
 271 565 271 565 272 546 c 256,252,253
 272 527 272 527 258 513 c 0,254,255
 244 500 244 500 226 500 c 1,256,-1
 226 500 l 1,240,241
346 333 m 1,257,258
 327 333 327 333 313 347 c 256,259,260
 300 360 300 360 300 379 c 0,261,262
 300 398 300 398 313 412 c 0,263,264
 319 418 319 418 327 421 c 1,265,-1
 327 421 l 1,266,267
 319 424 319 424 313 430 c 0,268,269
 300 444 300 444 300 462 c 0,270,271
 300 481 300 481 313 495 c 0,272,273
 319 501 319 501 327 504 c 1,274,-1
 327 504 l 1,275,276
 319 507 319 507 313 513 c 0,277,278
 300 526 300 526 300 546 c 256,279,280
 300 565 300 565 313 578 c 256,281,282
 326 591 326 591 346 592 c 0,283,284
 364 592 364 592 378 578 c 256,285,286
 391 565 391 565 392 546 c 256,287,288
 392 527 392 527 378 513 c 0,289,290
 372 507 372 507 365 504 c 1,291,-1
 365 504 l 1,292,293
 373 501 373 501 378 495 c 0,294,295
 391 482 391 482 392 462 c 0,296,297
 392 444 392 444 378 430 c 0,298,299
 372 424 372 424 365 421 c 1,300,-1
 365 421 l 1,301,302
 373 418 373 418 378 412 c 0,303,304
 391 399 391 399 392 379 c 0,305,306
 392 361 392 361 378 347 c 256,307,308
 365 334 365 334 346 333 c 1,309,-1
 346 333 l 1,257,258
EndSplineSet
EndChar

StartChar: five
Encoding: 53 53 21
Width: 600
VWidth: 833
Flags: W
LayerCount: 2
Fore
SplineSet
46 -167 m 1,0,1
 28 -167 28 -167 13 -153 c 0,2,3
 0 -140 0 -140 0 -121 c 0,4,5
 0 -103 0 -103 13 -88 c 0,6,7
 27 -75 27 -75 46 -75 c 0,8,9
 65 -75 65 -75 78 -88 c 256,10,11
 91 -101 91 -101 92 -121 c 0,12,13
 92 -140 92 -140 78 -153 c 256,14,15
 65 -166 65 -166 46 -167 c 1,16,-1
 46 -167 l 1,0,1
166 -167 m 1,17,18
 148 -167 148 -167 133 -153 c 0,19,20
 120 -140 120 -140 120 -121 c 0,21,22
 120 -103 120 -103 133 -88 c 0,23,24
 147 -75 147 -75 166 -75 c 0,25,26
 185 -75 185 -75 198 -88 c 256,27,28
 211 -101 211 -101 212 -121 c 0,29,30
 212 -140 212 -140 198 -153 c 256,31,32
 185 -166 185 -166 166 -167 c 1,33,-1
 166 -167 l 1,17,18
286 -167 m 1,34,35
 267 -167 267 -167 253 -153 c 256,36,37
 240 -140 240 -140 240 -121 c 0,38,39
 240 -103 240 -103 253 -88 c 256,40,41
 266 -75 266 -75 286 -75 c 256,42,43
 305 -75 305 -75 318 -88 c 256,44,45
 331 -101 331 -101 332 -121 c 0,46,47
 332 -140 332 -140 318 -153 c 256,48,49
 305 -166 305 -166 286 -167 c 1,50,-1
 286 -167 l 1,34,35
406 -167 m 1,51,52
 387 -167 387 -167 373 -153 c 256,53,54
 360 -140 360 -140 360 -121 c 0,55,56
 360 -103 360 -103 373 -88 c 256,57,58
 386 -75 386 -75 406 -75 c 256,59,60
 425 -75 425 -75 438 -88 c 256,61,62
 451 -101 451 -101 452 -121 c 0,63,64
 452 -140 452 -140 438 -153 c 256,65,66
 425 -166 425 -166 406 -167 c 1,67,-1
 406 -167 l 1,51,52
526 -167 m 1,68,69
 507 -167 507 -167 493 -153 c 256,70,71
 480 -140 480 -140 480 -121 c 0,72,73
 480 -103 480 -103 493 -88 c 256,74,75
 506 -75 506 -75 526 -75 c 256,76,77
 545 -75 545 -75 558 -88 c 256,78,79
 571 -101 571 -101 572 -121 c 0,80,81
 572 -140 572 -140 558 -153 c 256,82,83
 545 -166 545 -166 526 -167 c 1,84,-1
 526 -167 l 1,68,69
106 0 m 1,85,86
 87 0 87 0 73 13 c 0,87,88
 60 27 60 27 60 46 c 0,89,90
 60 65 60 65 73 78 c 256,91,92
 86 91 86 91 106 92 c 0,93,94
 124 92 124 92 138 78 c 0,95,96
 151 65 151 65 152 46 c 0,97,98
 152 28 152 28 138 13 c 0,99,100
 124 0 124 0 106 0 c 1,101,-1
 106 0 l 1,85,86
226 0 m 1,102,103
 207 0 207 0 193 13 c 0,104,105
 180 27 180 27 180 46 c 0,106,107
 180 65 180 65 193 78 c 256,108,109
 206 91 206 91 226 92 c 0,110,111
 244 92 244 92 258 78 c 0,112,113
 271 65 271 65 272 46 c 0,114,115
 272 28 272 28 258 13 c 0,116,117
 244 0 244 0 226 0 c 1,118,-1
 226 0 l 1,102,103
346 0 m 1,119,120
 327 0 327 0 313 13 c 0,121,122
 300 27 300 27 300 46 c 0,123,124
 300 65 300 65 313 78 c 256,125,126
 326 91 326 91 346 92 c 0,127,128
 364 92 364 92 378 78 c 256,129,130
 391 65 391 65 392 46 c 0,131,132
 392 28 392 28 378 13 c 0,133,134
 365 0 365 0 346 0 c 1,135,-1
 346 0 l 1,119,120
46 83 m 1,136,137
 28 83 28 83 13 97 c 0,138,139
 0 110 0 110 0 129 c 256,140,141
 0 148 0 148 13 162 c 0,142,143
 27 175 27 175 46 175 c 0,144,145
 65 175 65 175 78 162 c 256,146,147
 91 149 91 149 92 129 c 256,148,149
 92 110 92 110 78 97 c 256,150,151
 65 84 65 84 46 83 c 1,152,-1
 46 83 l 1,136,137
406 83 m 1,153,154
 387 83 387 83 373 97 c 256,155,156
 360 110 360 110 360 129 c 256,157,158
 360 148 360 148 373 162 c 0,159,160
 379 168 379 168 386 171 c 1,161,-1
 386 171 l 1,162,163
 379 174 379 174 373 180 c 0,164,165
 360 192 360 192 360 212 c 0,166,167
 360 230 360 230 373 244 c 0,168,169
 379 250 379 250 386 254 c 1,170,-1
 386 254 l 1,171,172
 379 257 379 257 373 263 c 0,173,174
 360 276 360 276 360 296 c 0,175,176
 360 314 360 314 373 328 c 256,177,178
 386 341 386 341 406 342 c 256,179,180
 425 342 425 342 438 328 c 256,181,182
 451 315 451 315 452 296 c 0,183,184
 452 277 452 277 438 263 c 0,185,186
 432 257 432 257 425 254 c 1,187,-1
 425 254 l 1,188,189
 432 251 432 251 438 244 c 0,190,191
 451 230 451 230 452 212 c 0,192,193
 452 193 452 193 438 180 c 0,194,195
 432 174 432 174 425 171 c 1,196,-1
 425 171 l 1,197,198
 432 168 432 168 438 162 c 0,199,200
 451 149 451 149 452 129 c 256,201,202
 452 110 452 110 438 97 c 256,203,204
 425 84 425 84 406 83 c 1,205,-1
 406 83 l 1,153,154
166 333 m 1,206,207
 148 333 148 333 133 347 c 0,208,209
 120 360 120 360 120 379 c 0,210,211
 120 398 120 398 133 412 c 0,212,213
 147 425 147 425 166 425 c 0,214,215
 185 425 185 425 198 412 c 256,216,217
 211 399 211 399 212 379 c 0,218,219
 212 361 212 361 198 347 c 256,220,221
 185 334 185 334 166 333 c 1,222,-1
 166 333 l 1,206,207
286 333 m 1,223,224
 267 333 267 333 253 347 c 256,225,226
 240 360 240 360 240 379 c 0,227,228
 240 398 240 398 253 412 c 256,229,230
 266 425 266 425 286 425 c 256,231,232
 305 425 305 425 318 412 c 256,233,234
 331 399 331 399 332 379 c 0,235,236
 332 361 332 361 318 347 c 256,237,238
 305 334 305 334 286 333 c 1,239,-1
 286 333 l 1,223,224
46 333 m 1,240,241
 28 333 28 333 13 347 c 0,242,243
 0 360 0 360 0 379 c 0,244,245
 0 398 0 398 13 412 c 0,246,247
 19 418 19 418 26 421 c 1,248,-1
 26 421 l 1,249,250
 19 424 19 424 13 430 c 0,251,252
 0 444 0 444 0 462 c 0,253,254
 0 481 0 481 13 495 c 0,255,256
 19 501 19 501 26 504 c 1,257,-1
 26 504 l 1,258,259
 19 507 19 507 13 513 c 0,260,261
 0 526 0 526 0 546 c 256,262,263
 0 565 0 565 13 578 c 0,264,265
 27 591 27 591 46 592 c 0,266,267
 65 592 65 592 78 578 c 256,268,269
 91 565 91 565 92 546 c 256,270,271
 92 527 92 527 78 513 c 0,272,273
 72 507 72 507 65 504 c 1,274,-1
 65 504 l 1,275,276
 73 501 73 501 78 495 c 0,277,278
 91 482 91 482 92 462 c 0,279,280
 92 444 92 444 78 430 c 0,281,282
 72 424 72 424 65 421 c 1,283,-1
 65 421 l 1,284,285
 73 418 73 418 78 412 c 0,286,287
 91 399 91 399 92 379 c 0,288,289
 92 361 92 361 78 347 c 256,290,291
 65 334 65 334 46 333 c 1,292,-1
 46 333 l 1,240,241
166 500 m 1,293,294
 148 500 148 500 133 513 c 0,295,296
 120 526 120 526 120 546 c 256,297,298
 120 565 120 565 133 578 c 0,299,300
 147 591 147 591 166 592 c 0,301,302
 185 592 185 592 198 578 c 256,303,304
 211 565 211 565 212 546 c 256,305,306
 212 527 212 527 198 513 c 256,307,308
 185 500 185 500 166 500 c 1,309,-1
 166 500 l 1,293,294
286 500 m 1,310,311
 267 500 267 500 253 513 c 256,312,313
 240 526 240 526 240 546 c 256,314,315
 240 565 240 565 253 578 c 256,316,317
 266 591 266 591 286 592 c 256,318,319
 305 592 305 592 318 578 c 256,320,321
 331 565 331 565 332 546 c 256,322,323
 332 527 332 527 318 513 c 256,324,325
 305 500 305 500 286 500 c 1,326,-1
 286 500 l 1,310,311
406 500 m 1,327,328
 387 500 387 500 373 513 c 256,329,330
 360 526 360 526 360 546 c 256,331,332
 360 565 360 565 373 578 c 256,333,334
 386 591 386 591 406 592 c 256,335,336
 425 592 425 592 438 578 c 256,337,338
 451 565 451 565 452 546 c 256,339,340
 452 527 452 527 438 513 c 256,341,342
 425 500 425 500 406 500 c 1,343,-1
 406 500 l 1,327,328
EndSplineSet
EndChar

StartChar: six
Encoding: 54 54 22
Width: 600
VWidth: 833
Flags: W
LayerCount: 2
Fore
SplineSet
46 -167 m 1,0,1
 28 -167 28 -167 13 -153 c 0,2,3
 0 -140 0 -140 0 -121 c 0,4,5
 0 -103 0 -103 13 -88 c 0,6,7
 27 -75 27 -75 46 -75 c 0,8,9
 65 -75 65 -75 78 -88 c 256,10,11
 91 -101 91 -101 92 -121 c 0,12,13
 92 -140 92 -140 78 -153 c 256,14,15
 65 -166 65 -166 46 -167 c 1,16,-1
 46 -167 l 1,0,1
166 -167 m 1,17,18
 148 -167 148 -167 133 -153 c 0,19,20
 120 -140 120 -140 120 -121 c 0,21,22
 120 -103 120 -103 133 -88 c 0,23,24
 147 -75 147 -75 166 -75 c 0,25,26
 185 -75 185 -75 198 -88 c 256,27,28
 211 -101 211 -101 212 -121 c 0,29,30
 212 -140 212 -140 198 -153 c 256,31,32
 185 -166 185 -166 166 -167 c 1,33,-1
 166 -167 l 1,17,18
286 -167 m 1,34,35
 267 -167 267 -167 253 -153 c 256,36,37
 240 -140 240 -140 240 -121 c 0,38,39
 240 -103 240 -103 253 -88 c 256,40,41
 266 -75 266 -75 286 -75 c 256,42,43
 305 -75 305 -75 318 -88 c 256,44,45
 331 -101 331 -101 332 -121 c 0,46,47
 332 -140 332 -140 318 -153 c 256,48,49
 305 -166 305 -166 286 -167 c 1,50,-1
 286 -167 l 1,34,35
406 -167 m 1,51,52
 387 -167 387 -167 373 -153 c 256,53,54
 360 -140 360 -140 360 -121 c 0,55,56
 360 -103 360 -103 373 -88 c 256,57,58
 386 -75 386 -75 406 -75 c 256,59,60
 425 -75 425 -75 438 -88 c 256,61,62
 451 -101 451 -101 452 -121 c 0,63,64
 452 -140 452 -140 438 -153 c 256,65,66
 425 -166 425 -166 406 -167 c 1,67,-1
 406 -167 l 1,51,52
526 -167 m 1,68,69
 507 -167 507 -167 493 -153 c 256,70,71
 480 -140 480 -140 480 -121 c 0,72,73
 480 -103 480 -103 493 -88 c 256,74,75
 506 -75 506 -75 526 -75 c 256,76,77
 545 -75 545 -75 558 -88 c 256,78,79
 571 -101 571 -101 572 -121 c 0,80,81
 572 -140 572 -140 558 -153 c 256,82,83
 545 -166 545 -166 526 -167 c 1,84,-1
 526 -167 l 1,68,69
106 0 m 1,85,86
 87 0 87 0 73 13 c 0,87,88
 60 27 60 27 60 46 c 0,89,90
 60 65 60 65 73 78 c 256,91,92
 86 91 86 91 106 92 c 0,93,94
 124 92 124 92 138 78 c 0,95,96
 151 65 151 65 152 46 c 0,97,98
 152 28 152 28 138 13 c 0,99,100
 124 0 124 0 106 0 c 1,101,-1
 106 0 l 1,85,86
226 0 m 1,102,103
 207 0 207 0 193 13 c 0,104,105
 180 27 180 27 180 46 c 0,106,107
 180 65 180 65 193 78 c 256,108,109
 206 91 206 91 226 92 c 0,110,111
 244 92 244 92 258 78 c 0,112,113
 271 65 271 65 272 46 c 0,114,115
 272 28 272 28 258 13 c 0,116,117
 244 0 244 0 226 0 c 1,118,-1
 226 0 l 1,102,103
346 0 m 1,119,120
 327 0 327 0 313 13 c 0,121,122
 300 27 300 27 300 46 c 0,123,124
 300 65 300 65 313 78 c 256,125,126
 326 91 326 91 346 92 c 0,127,128
 364 92 364 92 378 78 c 256,129,130
 391 65 391 65 392 46 c 0,131,132
 392 28 392 28 378 13 c 0,133,134
 365 0 365 0 346 0 c 1,135,-1
 346 0 l 1,119,120
46 83 m 1,136,137
 28 83 28 83 13 97 c 0,138,139
 0 110 0 110 0 129 c 256,140,141
 0 148 0 148 13 162 c 0,142,143
 19 168 19 168 26 171 c 1,144,-1
 26 171 l 1,145,146
 19 174 19 174 13 180 c 0,147,148
 0 192 0 192 0 212 c 0,149,150
 0 230 0 230 13 244 c 0,151,152
 27 257 27 257 46 258 c 0,153,154
 65 258 65 258 78 244 c 256,155,156
 91 230 91 230 92 212 c 0,157,158
 92 193 92 193 78 180 c 0,159,160
 72 174 72 174 65 171 c 1,161,-1
 65 171 l 1,162,163
 73 168 73 168 78 162 c 0,164,165
 91 149 91 149 92 129 c 256,166,167
 92 110 92 110 78 97 c 256,168,169
 65 84 65 84 46 83 c 1,170,-1
 46 83 l 1,136,137
406 83 m 1,171,172
 387 83 387 83 373 97 c 256,173,174
 360 110 360 110 360 129 c 256,175,176
 360 148 360 148 373 162 c 0,177,178
 379 168 379 168 386 171 c 1,179,-1
 386 171 l 1,180,181
 379 174 379 174 373 180 c 0,182,183
 360 192 360 192 360 212 c 0,184,185
 360 230 360 230 373 244 c 256,186,187
 386 257 386 257 406 258 c 256,188,189
 425 258 425 258 438 244 c 256,190,191
 451 230 451 230 452 212 c 0,192,193
 452 193 452 193 438 180 c 0,194,195
 432 174 432 174 425 171 c 1,196,-1
 425 171 l 1,197,198
 432 168 432 168 438 162 c 0,199,200
 451 149 451 149 452 129 c 256,201,202
 452 110 452 110 438 97 c 256,203,204
 425 84 425 84 406 83 c 1,205,-1
 406 83 l 1,171,172
106 250 m 1,206,207
 87 250 87 250 73 263 c 256,208,209
 60 276 60 276 60 296 c 0,210,211
 60 314 60 314 73 328 c 256,212,213
 86 341 86 341 106 342 c 0,214,215
 124 342 124 342 138 328 c 0,216,217
 151 315 151 315 152 296 c 0,218,219
 152 277 152 277 138 263 c 0,220,221
 124 250 124 250 106 250 c 1,222,-1
 106 250 l 1,206,207
226 250 m 1,223,224
 207 250 207 250 193 263 c 256,225,226
 180 276 180 276 180 296 c 0,227,228
 180 314 180 314 193 328 c 256,229,230
 206 341 206 341 226 342 c 0,231,232
 244 342 244 342 258 328 c 0,233,234
 271 315 271 315 272 296 c 0,235,236
 272 277 272 277 258 263 c 0,237,238
 244 250 244 250 226 250 c 1,239,-1
 226 250 l 1,223,224
346 250 m 1,240,241
 327 250 327 250 313 263 c 256,242,243
 300 276 300 276 300 296 c 0,244,245
 300 314 300 314 313 328 c 256,246,247
 326 341 326 341 346 342 c 0,248,249
 364 342 364 342 378 328 c 256,250,251
 391 315 391 315 392 296 c 0,252,253
 392 277 392 277 378 263 c 256,254,255
 365 250 365 250 346 250 c 1,256,-1
 346 250 l 1,240,241
166 333 m 1,257,258
 148 333 148 333 133 347 c 0,259,260
 120 360 120 360 120 379 c 0,261,262
 120 398 120 398 133 412 c 0,263,264
 147 425 147 425 166 425 c 0,265,266
 185 425 185 425 198 412 c 256,267,268
 211 399 211 399 212 379 c 0,269,270
 212 361 212 361 198 347 c 256,271,272
 185 334 185 334 166 333 c 1,273,-1
 166 333 l 1,257,258
226 417 m 1,274,275
 207 417 207 417 193 430 c 0,276,277
 180 444 180 444 180 462 c 0,278,279
 180 481 180 481 193 495 c 256,280,281
 206 508 206 508 226 508 c 0,282,283
 244 508 244 508 258 495 c 0,284,285
 271 482 271 482 272 462 c 0,286,287
 272 444 272 444 258 430 c 0,288,289
 244 417 244 417 226 417 c 1,290,-1
 226 417 l 1,274,275
286 500 m 1,291,292
 267 500 267 500 253 513 c 256,293,294
 240 526 240 526 240 546 c 256,295,296
 240 565 240 565 253 578 c 256,297,298
 266 591 266 591 286 592 c 256,299,300
 305 592 305 592 318 578 c 256,301,302
 331 565 331 565 332 546 c 256,303,304
 332 527 332 527 318 513 c 256,305,306
 305 500 305 500 286 500 c 1,307,-1
 286 500 l 1,291,292
EndSplineSet
EndChar

StartChar: seven
Encoding: 55 55 23
Width: 600
VWidth: 833
Flags: W
LayerCount: 2
Fore
SplineSet
46 -167 m 1,0,1
 28 -167 28 -167 13 -153 c 0,2,3
 0 -140 0 -140 0 -121 c 0,4,5
 0 -103 0 -103 13 -88 c 0,6,7
 27 -75 27 -75 46 -75 c 0,8,9
 65 -75 65 -75 78 -88 c 256,10,11
 91 -101 91 -101 92 -121 c 0,12,13
 92 -140 92 -140 78 -153 c 256,14,15
 65 -166 65 -166 46 -167 c 1,16,-1
 46 -167 l 1,0,1
166 -167 m 1,17,18
 148 -167 148 -167 133 -153 c 0,19,20
 120 -140 120 -140 120 -121 c 0,21,22
 120 -103 120 -103 133 -88 c 0,23,24
 147 -75 147 -75 166 -75 c 0,25,26
 185 -75 185 -75 198 -88 c 256,27,28
 211 -101 211 -101 212 -121 c 0,29,30
 212 -140 212 -140 198 -153 c 256,31,32
 185 -166 185 -166 166 -167 c 1,33,-1
 166 -167 l 1,17,18
286 -167 m 1,34,35
 267 -167 267 -167 253 -153 c 256,36,37
 240 -140 240 -140 240 -121 c 0,38,39
 240 -103 240 -103 253 -88 c 256,40,41
 266 -75 266 -75 286 -75 c 256,42,43
 305 -75 305 -75 318 -88 c 256,44,45
 331 -101 331 -101 332 -121 c 0,46,47
 332 -140 332 -140 318 -153 c 256,48,49
 305 -166 305 -166 286 -167 c 1,50,-1
 286 -167 l 1,34,35
406 -167 m 1,51,52
 387 -167 387 -167 373 -153 c 256,53,54
 360 -140 360 -140 360 -121 c 0,55,56
 360 -103 360 -103 373 -88 c 256,57,58
 386 -75 386 -75 406 -75 c 256,59,60
 425 -75 425 -75 438 -88 c 256,61,62
 451 -101 451 -101 452 -121 c 0,63,64
 452 -140 452 -140 438 -153 c 256,65,66
 425 -166 425 -166 406 -167 c 1,67,-1
 406 -167 l 1,51,52
526 -167 m 1,68,69
 507 -167 507 -167 493 -153 c 256,70,71
 480 -140 480 -140 480 -121 c 0,72,73
 480 -103 480 -103 493 -88 c 256,74,75
 506 -75 506 -75 526 -75 c 256,76,77
 545 -75 545 -75 558 -88 c 256,78,79
 571 -101 571 -101 572 -121 c 0,80,81
 572 -140 572 -140 558 -153 c 256,82,83
 545 -166 545 -166 526 -167 c 1,84,-1
 526 -167 l 1,68,69
46 0 m 1,85,86
 28 0 28 0 13 13 c 0,87,88
 0 27 0 27 0 46 c 0,89,90
 0 65 0 65 13 78 c 0,91,92
 27 91 27 91 46 92 c 0,93,94
 65 92 65 92 78 78 c 256,95,96
 91 65 91 65 92 46 c 0,97,98
 92 28 92 28 78 13 c 0,99,100
 65 0 65 0 46 0 c 1,101,-1
 46 0 l 1,85,86
106 83 m 1,102,103
 87 83 87 83 73 97 c 256,104,105
 60 110 60 110 60 129 c 256,106,107
 60 148 60 148 73 162 c 256,108,109
 86 175 86 175 106 175 c 0,110,111
 124 175 124 175 138 162 c 0,112,113
 151 149 151 149 152 129 c 256,114,115
 152 110 152 110 138 97 c 0,116,117
 124 84 124 84 106 83 c 1,118,-1
 106 83 l 1,102,103
166 167 m 1,119,120
 148 167 148 167 133 180 c 0,121,122
 120 192 120 192 120 212 c 0,123,124
 120 230 120 230 133 244 c 0,125,126
 147 257 147 257 166 258 c 0,127,128
 185 258 185 258 198 244 c 256,129,130
 211 230 211 230 212 212 c 0,131,132
 212 193 212 193 198 180 c 256,133,134
 185 167 185 167 166 167 c 1,135,-1
 166 167 l 1,119,120
226 250 m 1,136,137
 207 250 207 250 193 263 c 256,138,139
 180 276 180 276 180 296 c 0,140,141
 180 314 180 314 193 328 c 256,142,143
 206 341 206 341 226 342 c 0,144,145
 244 342 244 342 258 328 c 0,146,147
 271 315 271 315 272 296 c 0,148,149
 272 277 272 277 258 263 c 0,150,151
 244 250 244 250 226 250 c 1,152,-1
 226 250 l 1,136,137
286 333 m 1,153,154
 267 333 267 333 253 347 c 256,155,156
 240 360 240 360 240 379 c 0,157,158
 240 398 240 398 253 412 c 256,159,160
 266 425 266 425 286 425 c 256,161,162
 305 425 305 425 318 412 c 256,163,164
 331 399 331 399 332 379 c 0,165,166
 332 361 332 361 318 347 c 256,167,168
 305 334 305 334 286 333 c 1,169,-1
 286 333 l 1,153,154
346 417 m 1,170,171
 327 417 327 417 313 430 c 0,172,173
 300 444 300 444 300 462 c 0,174,175
 300 481 300 481 313 495 c 256,176,177
 326 508 326 508 346 508 c 0,178,179
 364 508 364 508 378 495 c 256,180,181
 391 482 391 482 392 462 c 0,182,183
 392 444 392 444 378 430 c 0,184,185
 365 417 365 417 346 417 c 1,186,-1
 346 417 l 1,170,171
46 500 m 1,187,188
 28 500 28 500 13 513 c 0,189,190
 0 526 0 526 0 546 c 256,191,192
 0 565 0 565 13 578 c 0,193,194
 27 591 27 591 46 592 c 0,195,196
 65 592 65 592 78 578 c 256,197,198
 91 565 91 565 92 546 c 256,199,200
 92 527 92 527 78 513 c 256,201,202
 65 500 65 500 46 500 c 1,203,-1
 46 500 l 1,187,188
166 500 m 1,204,205
 148 500 148 500 133 513 c 0,206,207
 120 526 120 526 120 546 c 256,208,209
 120 565 120 565 133 578 c 0,210,211
 147 591 147 591 166 592 c 0,212,213
 185 592 185 592 198 578 c 256,214,215
 211 565 211 565 212 546 c 256,216,217
 212 527 212 527 198 513 c 256,218,219
 185 500 185 500 166 500 c 1,220,-1
 166 500 l 1,204,205
286 500 m 1,221,222
 267 500 267 500 253 513 c 256,223,224
 240 526 240 526 240 546 c 256,225,226
 240 565 240 565 253 578 c 256,227,228
 266 591 266 591 286 592 c 256,229,230
 305 592 305 592 318 578 c 256,231,232
 331 565 331 565 332 546 c 256,233,234
 332 527 332 527 318 513 c 256,235,236
 305 500 305 500 286 500 c 1,237,-1
 286 500 l 1,221,222
406 500 m 1,238,239
 387 500 387 500 373 513 c 256,240,241
 360 526 360 526 360 546 c 256,242,243
 360 565 360 565 373 578 c 256,244,245
 386 591 386 591 406 592 c 256,246,247
 425 592 425 592 438 578 c 256,248,249
 451 565 451 565 452 546 c 256,250,251
 452 527 452 527 438 513 c 256,252,253
 425 500 425 500 406 500 c 1,254,-1
 406 500 l 1,238,239
EndSplineSet
EndChar

StartChar: eight
Encoding: 56 56 24
Width: 600
VWidth: 833
Flags: W
LayerCount: 2
Fore
SplineSet
46 -167 m 1,0,1
 28 -167 28 -167 13 -153 c 0,2,3
 0 -140 0 -140 0 -121 c 0,4,5
 0 -103 0 -103 13 -88 c 0,6,7
 27 -75 27 -75 46 -75 c 0,8,9
 65 -75 65 -75 78 -88 c 256,10,11
 91 -101 91 -101 92 -121 c 0,12,13
 92 -140 92 -140 78 -153 c 256,14,15
 65 -166 65 -166 46 -167 c 1,16,-1
 46 -167 l 1,0,1
166 -167 m 1,17,18
 148 -167 148 -167 133 -153 c 0,19,20
 120 -140 120 -140 120 -121 c 0,21,22
 120 -103 120 -103 133 -88 c 0,23,24
 147 -75 147 -75 166 -75 c 0,25,26
 185 -75 185 -75 198 -88 c 256,27,28
 211 -101 211 -101 212 -121 c 0,29,30
 212 -140 212 -140 198 -153 c 256,31,32
 185 -166 185 -166 166 -167 c 1,33,-1
 166 -167 l 1,17,18
286 -167 m 1,34,35
 267 -167 267 -167 253 -153 c 256,36,37
 240 -140 240 -140 240 -121 c 0,38,39
 240 -103 240 -103 253 -88 c 256,40,41
 266 -75 266 -75 286 -75 c 256,42,43
 305 -75 305 -75 318 -88 c 256,44,45
 331 -101 331 -101 332 -121 c 0,46,47
 332 -140 332 -140 318 -153 c 256,48,49
 305 -166 305 -166 286 -167 c 1,50,-1
 286 -167 l 1,34,35
406 -167 m 1,51,52
 387 -167 387 -167 373 -153 c 256,53,54
 360 -140 360 -140 360 -121 c 0,55,56
 360 -103 360 -103 373 -88 c 256,57,58
 386 -75 386 -75 406 -75 c 256,59,60
 425 -75 425 -75 438 -88 c 256,61,62
 451 -101 451 -101 452 -121 c 0,63,64
 452 -140 452 -140 438 -153 c 256,65,66
 425 -166 425 -166 406 -167 c 1,67,-1
 406 -167 l 1,51,52
526 -167 m 1,68,69
 507 -167 507 -167 493 -153 c 256,70,71
 480 -140 480 -140 480 -121 c 0,72,73
 480 -103 480 -103 493 -88 c 256,74,75
 506 -75 506 -75 526 -75 c 256,76,77
 545 -75 545 -75 558 -88 c 256,78,79
 571 -101 571 -101 572 -121 c 0,80,81
 572 -140 572 -140 558 -153 c 256,82,83
 545 -166 545 -166 526 -167 c 1,84,-1
 526 -167 l 1,68,69
106 0 m 1,85,86
 87 0 87 0 73 13 c 0,87,88
 60 27 60 27 60 46 c 0,89,90
 60 65 60 65 73 78 c 256,91,92
 86 91 86 91 106 92 c 0,93,94
 124 92 124 92 138 78 c 0,95,96
 151 65 151 65 152 46 c 0,97,98
 152 28 152 28 138 13 c 0,99,100
 124 0 124 0 106 0 c 1,101,-1
 106 0 l 1,85,86
226 0 m 1,102,103
 207 0 207 0 193 13 c 0,104,105
 180 27 180 27 180 46 c 0,106,107
 180 65 180 65 193 78 c 256,108,109
 206 91 206 91 226 92 c 0,110,111
 244 92 244 92 258 78 c 0,112,113
 271 65 271 65 272 46 c 0,114,115
 272 28 272 28 258 13 c 0,116,117
 244 0 244 0 226 0 c 1,118,-1
 226 0 l 1,102,103
346 0 m 1,119,120
 327 0 327 0 313 13 c 0,121,122
 300 27 300 27 300 46 c 0,123,124
 300 65 300 65 313 78 c 256,125,126
 326 91 326 91 346 92 c 0,127,128
 364 92 364 92 378 78 c 256,129,130
 391 65 391 65 392 46 c 0,131,132
 392 28 392 28 378 13 c 0,133,134
 365 0 365 0 346 0 c 1,135,-1
 346 0 l 1,119,120
46 83 m 1,136,137
 28 83 28 83 13 97 c 0,138,139
 0 110 0 110 0 129 c 256,140,141
 0 148 0 148 13 162 c 0,142,143
 19 168 19 168 26 171 c 1,144,-1
 26 171 l 1,145,146
 19 174 19 174 13 180 c 0,147,148
 0 192 0 192 0 212 c 0,149,150
 0 230 0 230 13 244 c 0,151,152
 27 257 27 257 46 258 c 0,153,154
 65 258 65 258 78 244 c 256,155,156
 91 230 91 230 92 212 c 0,157,158
 92 193 92 193 78 180 c 0,159,160
 72 174 72 174 65 171 c 1,161,-1
 65 171 l 1,162,163
 73 168 73 168 78 162 c 0,164,165
 91 149 91 149 92 129 c 256,166,167
 92 110 92 110 78 97 c 256,168,169
 65 84 65 84 46 83 c 1,170,-1
 46 83 l 1,136,137
406 83 m 1,171,172
 387 83 387 83 373 97 c 256,173,174
 360 110 360 110 360 129 c 256,175,176
 360 148 360 148 373 162 c 0,177,178
 379 168 379 168 386 171 c 1,179,-1
 386 171 l 1,180,181
 379 174 379 174 373 180 c 0,182,183
 360 192 360 192 360 212 c 0,184,185
 360 230 360 230 373 244 c 256,186,187
 386 257 386 257 406 258 c 256,188,189
 425 258 425 258 438 244 c 256,190,191
 451 230 451 230 452 212 c 0,192,193
 452 193 452 193 438 180 c 0,194,195
 432 174 432 174 425 171 c 1,196,-1
 425 171 l 1,197,198
 432 168 432 168 438 162 c 0,199,200
 451 149 451 149 452 129 c 256,201,202
 452 110 452 110 438 97 c 256,203,204
 425 84 425 84 406 83 c 1,205,-1
 406 83 l 1,171,172
106 250 m 1,206,207
 87 250 87 250 73 263 c 256,208,209
 60 276 60 276 60 296 c 0,210,211
 60 314 60 314 73 328 c 256,212,213
 86 341 86 341 106 342 c 0,214,215
 124 342 124 342 138 328 c 0,216,217
 151 315 151 315 152 296 c 0,218,219
 152 277 152 277 138 263 c 0,220,221
 124 250 124 250 106 250 c 1,222,-1
 106 250 l 1,206,207
226 250 m 1,223,224
 207 250 207 250 193 263 c 256,225,226
 180 276 180 276 180 296 c 0,227,228
 180 314 180 314 193 328 c 256,229,230
 206 341 206 341 226 342 c 0,231,232
 244 342 244 342 258 328 c 0,233,234
 271 315 271 315 272 296 c 0,235,236
 272 277 272 277 258 263 c 0,237,238
 244 250 244 250 226 250 c 1,239,-1
 226 250 l 1,223,224
346 250 m 1,240,241
 327 250 327 250 313 263 c 256,242,243
 300 276 300 276 300 296 c 0,244,245
 300 314 300 314 313 328 c 256,246,247
 326 341 326 341 346 342 c 0,248,249
 364 342 364 342 378 328 c 256,250,251
 391 315 391 315 392 296 c 0,252,253
 392 277 392 277 378 263 c 256,254,255
 365 250 365 250 346 250 c 1,256,-1
 346 250 l 1,240,241
46 333 m 1,257,258
 28 333 28 333 13 347 c 0,259,260
 0 360 0 360 0 379 c 0,261,262
 0 398 0 398 13 412 c 0,263,264
 19 418 19 418 26 421 c 1,265,-1
 26 421 l 1,266,267
 19 424 19 424 13 430 c 0,268,269
 0 444 0 444 0 462 c 0,270,271
 0 481 0 481 13 495 c 0,272,273
 27 508 27 508 46 508 c 0,274,275
 65 508 65 508 78 495 c 256,276,277
 91 482 91 482 92 462 c 0,278,279
 92 444 92 444 78 430 c 0,280,281
 72 424 72 424 65 421 c 1,282,-1
 65 421 l 1,283,284
 73 418 73 418 78 412 c 0,285,286
 91 399 91 399 92 379 c 0,287,288
 92 361 92 361 78 347 c 256,289,290
 65 334 65 334 46 333 c 1,291,-1
 46 333 l 1,257,258
406 333 m 1,292,293
 387 333 387 333 373 347 c 256,294,295
 360 360 360 360 360 379 c 0,296,297
 360 398 360 398 373 412 c 0,298,299
 379 418 379 418 386 421 c 1,300,-1
 386 421 l 1,301,302
 379 424 379 424 373 430 c 0,303,304
 360 444 360 444 360 462 c 0,305,306
 360 481 360 481 373 495 c 256,307,308
 386 508 386 508 406 508 c 256,309,310
 425 508 425 508 438 495 c 256,311,312
 451 482 451 482 452 462 c 0,313,314
 452 444 452 444 438 430 c 0,315,316
 432 424 432 424 425 421 c 1,317,-1
 425 421 l 1,318,319
 432 418 432 418 438 412 c 0,320,321
 451 399 451 399 452 379 c 0,322,323
 452 361 452 361 438 347 c 256,324,325
 425 334 425 334 406 333 c 1,326,-1
 406 333 l 1,292,293
106 500 m 1,327,328
 87 500 87 500 73 513 c 256,329,330
 60 526 60 526 60 546 c 256,331,332
 60 565 60 565 73 578 c 256,333,334
 86 591 86 591 106 592 c 0,335,336
 124 592 124 592 138 578 c 0,337,338
 151 565 151 565 152 546 c 256,339,340
 152 527 152 527 138 513 c 0,341,342
 124 500 124 500 106 500 c 1,343,-1
 106 500 l 1,327,328
226 500 m 1,344,345
 207 500 207 500 193 513 c 256,346,347
 180 526 180 526 180 546 c 256,348,349
 180 565 180 565 193 578 c 256,350,351
 206 591 206 591 226 592 c 0,352,353
 244 592 244 592 258 578 c 0,354,355
 271 565 271 565 272 546 c 256,356,357
 272 527 272 527 258 513 c 0,358,359
 244 500 244 500 226 500 c 1,360,-1
 226 500 l 1,344,345
346 500 m 1,361,362
 327 500 327 500 313 513 c 256,363,364
 300 526 300 526 300 546 c 256,365,366
 300 565 300 565 313 578 c 256,367,368
 326 591 326 591 346 592 c 0,369,370
 364 592 364 592 378 578 c 256,371,372
 391 565 391 565 392 546 c 256,373,374
 392 527 392 527 378 513 c 256,375,376
 365 500 365 500 346 500 c 1,377,-1
 346 500 l 1,361,362
EndSplineSet
EndChar

StartChar: nine
Encoding: 57 57 25
Width: 600
VWidth: 833
Flags: W
LayerCount: 2
Fore
SplineSet
46 -167 m 1,0,1
 28 -167 28 -167 13 -153 c 0,2,3
 0 -140 0 -140 0 -121 c 0,4,5
 0 -103 0 -103 13 -88 c 0,6,7
 27 -75 27 -75 46 -75 c 0,8,9
 65 -75 65 -75 78 -88 c 256,10,11
 91 -101 91 -101 92 -121 c 0,12,13
 92 -140 92 -140 78 -153 c 256,14,15
 65 -166 65 -166 46 -167 c 1,16,-1
 46 -167 l 1,0,1
166 -167 m 1,17,18
 148 -167 148 -167 133 -153 c 0,19,20
 120 -140 120 -140 120 -121 c 0,21,22
 120 -103 120 -103 133 -88 c 0,23,24
 147 -75 147 -75 166 -75 c 0,25,26
 185 -75 185 -75 198 -88 c 256,27,28
 211 -101 211 -101 212 -121 c 0,29,30
 212 -140 212 -140 198 -153 c 256,31,32
 185 -166 185 -166 166 -167 c 1,33,-1
 166 -167 l 1,17,18
286 -167 m 1,34,35
 267 -167 267 -167 253 -153 c 256,36,37
 240 -140 240 -140 240 -121 c 0,38,39
 240 -103 240 -103 253 -88 c 256,40,41
 266 -75 266 -75 286 -75 c 256,42,43
 305 -75 305 -75 318 -88 c 256,44,45
 331 -101 331 -101 332 -121 c 0,46,47
 332 -140 332 -140 318 -153 c 256,48,49
 305 -166 305 -166 286 -167 c 1,50,-1
 286 -167 l 1,34,35
406 -167 m 1,51,52
 387 -167 387 -167 373 -153 c 256,53,54
 360 -140 360 -140 360 -121 c 0,55,56
 360 -103 360 -103 373 -88 c 256,57,58
 386 -75 386 -75 406 -75 c 256,59,60
 425 -75 425 -75 438 -88 c 256,61,62
 451 -101 451 -101 452 -121 c 0,63,64
 452 -140 452 -140 438 -153 c 256,65,66
 425 -166 425 -166 406 -167 c 1,67,-1
 406 -167 l 1,51,52
526 -167 m 1,68,69
 507 -167 507 -167 493 -153 c 256,70,71
 480 -140 480 -140 480 -121 c 0,72,73
 480 -103 480 -103 493 -88 c 256,74,75
 506 -75 506 -75 526 -75 c 256,76,77
 545 -75 545 -75 558 -88 c 256,78,79
 571 -101 571 -101 572 -121 c 0,80,81
 572 -140 572 -140 558 -153 c 256,82,83
 545 -166 545 -166 526 -167 c 1,84,-1
 526 -167 l 1,68,69
166 0 m 1,85,86
 148 0 148 0 133 13 c 0,87,88
 120 27 120 27 120 46 c 0,89,90
 120 65 120 65 133 78 c 0,91,92
 147 91 147 91 166 92 c 0,93,94
 185 92 185 92 198 78 c 256,95,96
 211 65 211 65 212 46 c 0,97,98
 212 28 212 28 198 13 c 0,99,100
 185 0 185 0 166 0 c 1,101,-1
 166 0 l 1,85,86
226 83 m 1,102,103
 207 83 207 83 193 97 c 256,104,105
 180 110 180 110 180 129 c 256,106,107
 180 148 180 148 193 162 c 256,108,109
 206 175 206 175 226 175 c 0,110,111
 244 175 244 175 258 162 c 0,112,113
 271 149 271 149 272 129 c 256,114,115
 272 110 272 110 258 97 c 0,116,117
 244 84 244 84 226 83 c 1,118,-1
 226 83 l 1,102,103
286 167 m 1,119,120
 267 167 267 167 253 180 c 256,121,122
 240 192 240 192 240 212 c 0,123,124
 240 230 240 230 253 244 c 256,125,126
 266 257 266 257 286 258 c 256,127,128
 305 258 305 258 318 244 c 256,129,130
 331 230 331 230 332 212 c 0,131,132
 332 193 332 193 318 180 c 256,133,134
 305 167 305 167 286 167 c 1,135,-1
 286 167 l 1,119,120
106 250 m 1,136,137
 87 250 87 250 73 263 c 256,138,139
 60 276 60 276 60 296 c 0,140,141
 60 314 60 314 73 328 c 256,142,143
 86 341 86 341 106 342 c 0,144,145
 124 342 124 342 138 328 c 0,146,147
 151 315 151 315 152 296 c 0,148,149
 152 277 152 277 138 263 c 0,150,151
 124 250 124 250 106 250 c 1,152,-1
 106 250 l 1,136,137
226 250 m 1,153,154
 207 250 207 250 193 263 c 256,155,156
 180 276 180 276 180 296 c 0,157,158
 180 314 180 314 193 328 c 256,159,160
 206 341 206 341 226 342 c 0,161,162
 244 342 244 342 258 328 c 0,163,164
 271 315 271 315 272 296 c 0,165,166
 272 277 272 277 258 263 c 0,167,168
 244 250 244 250 226 250 c 1,169,-1
 226 250 l 1,153,154
346 250 m 1,170,171
 327 250 327 250 313 263 c 256,172,173
 300 276 300 276 300 296 c 0,174,175
 300 314 300 314 313 328 c 256,176,177
 326 341 326 341 346 342 c 0,178,179
 364 342 364 342 378 328 c 256,180,181
 391 315 391 315 392 296 c 0,182,183
 392 277 392 277 378 263 c 256,184,185
 365 250 365 250 346 250 c 1,186,-1
 346 250 l 1,170,171
46 333 m 1,187,188
 28 333 28 333 13 347 c 0,189,190
 0 360 0 360 0 379 c 0,191,192
 0 398 0 398 13 412 c 0,193,194
 19 418 19 418 26 421 c 1,195,-1
 26 421 l 1,196,197
 19 424 19 424 13 430 c 0,198,199
 0 444 0 444 0 462 c 0,200,201
 0 481 0 481 13 495 c 0,202,203
 27 508 27 508 46 508 c 0,204,205
 65 508 65 508 78 495 c 256,206,207
 91 482 91 482 92 462 c 0,208,209
 92 444 92 444 78 430 c 0,210,211
 72 424 72 424 65 421 c 1,212,-1
 65 421 l 1,213,214
 73 418 73 418 78 412 c 0,215,216
 91 399 91 399 92 379 c 0,217,218
 92 361 92 361 78 347 c 256,219,220
 65 334 65 334 46 333 c 1,221,-1
 46 333 l 1,187,188
406 333 m 1,222,223
 387 333 387 333 373 347 c 256,224,225
 360 360 360 360 360 379 c 0,226,227
 360 398 360 398 373 412 c 0,228,229
 379 418 379 418 386 421 c 1,230,-1
 386 421 l 1,231,232
 379 424 379 424 373 430 c 0,233,234
 360 444 360 444 360 462 c 0,235,236
 360 481 360 481 373 495 c 256,237,238
 386 508 386 508 406 508 c 256,239,240
 425 508 425 508 438 495 c 256,241,242
 451 482 451 482 452 462 c 0,243,244
 452 444 452 444 438 430 c 0,245,246
 432 424 432 424 425 421 c 1,247,-1
 425 421 l 1,248,249
 432 418 432 418 438 412 c 0,250,251
 451 399 451 399 452 379 c 0,252,253
 452 361 452 361 438 347 c 256,254,255
 425 334 425 334 406 333 c 1,256,-1
 406 333 l 1,222,223
106 500 m 1,257,258
 87 500 87 500 73 513 c 256,259,260
 60 526 60 526 60 546 c 256,261,262
 60 565 60 565 73 578 c 256,263,264
 86 591 86 591 106 592 c 0,265,266
 124 592 124 592 138 578 c 0,267,268
 151 565 151 565 152 546 c 256,269,270
 152 527 152 527 138 513 c 0,271,272
 124 500 124 500 106 500 c 1,273,-1
 106 500 l 1,257,258
226 500 m 1,274,275
 207 500 207 500 193 513 c 256,276,277
 180 526 180 526 180 546 c 256,278,279
 180 565 180 565 193 578 c 256,280,281
 206 591 206 591 226 592 c 0,282,283
 244 592 244 592 258 578 c 0,284,285
 271 565 271 565 272 546 c 256,286,287
 272 527 272 527 258 513 c 0,288,289
 244 500 244 500 226 500 c 1,290,-1
 226 500 l 1,274,275
346 500 m 1,291,292
 327 500 327 500 313 513 c 256,293,294
 300 526 300 526 300 546 c 256,295,296
 300 565 300 565 313 578 c 256,297,298
 326 591 326 591 346 592 c 0,299,300
 364 592 364 592 378 578 c 256,301,302
 391 565 391 565 392 546 c 256,303,304
 392 527 392 527 378 513 c 256,305,306
 365 500 365 500 346 500 c 1,307,-1
 346 500 l 1,291,292
EndSplineSet
EndChar

StartChar: colon
Encoding: 58 58 26
Width: 600
VWidth: 833
Flags: W
LayerCount: 2
Fore
SplineSet
46 -167 m 1,0,1
 28 -167 28 -167 13 -153 c 0,2,3
 0 -140 0 -140 0 -121 c 0,4,5
 0 -103 0 -103 13 -88 c 0,6,7
 27 -75 27 -75 46 -75 c 0,8,9
 65 -75 65 -75 78 -88 c 256,10,11
 91 -101 91 -101 92 -121 c 0,12,13
 92 -140 92 -140 78 -153 c 256,14,15
 65 -166 65 -166 46 -167 c 1,16,-1
 46 -167 l 1,0,1
166 -167 m 1,17,18
 148 -167 148 -167 133 -153 c 0,19,20
 120 -140 120 -140 120 -121 c 0,21,22
 120 -103 120 -103 133 -88 c 0,23,24
 147 -75 147 -75 166 -75 c 0,25,26
 185 -75 185 -75 198 -88 c 256,27,28
 211 -101 211 -101 212 -121 c 0,29,30
 212 -140 212 -140 198 -153 c 256,31,32
 185 -166 185 -166 166 -167 c 1,33,-1
 166 -167 l 1,17,18
286 -167 m 1,34,35
 267 -167 267 -167 253 -153 c 256,36,37
 240 -140 240 -140 240 -121 c 0,38,39
 240 -103 240 -103 253 -88 c 256,40,41
 266 -75 266 -75 286 -75 c 256,42,43
 305 -75 305 -75 318 -88 c 256,44,45
 331 -101 331 -101 332 -121 c 0,46,47
 332 -140 332 -140 318 -153 c 256,48,49
 305 -166 305 -166 286 -167 c 1,50,-1
 286 -167 l 1,34,35
406 -167 m 1,51,52
 387 -167 387 -167 373 -153 c 256,53,54
 360 -140 360 -140 360 -121 c 0,55,56
 360 -103 360 -103 373 -88 c 256,57,58
 386 -75 386 -75 406 -75 c 256,59,60
 425 -75 425 -75 438 -88 c 256,61,62
 451 -101 451 -101 452 -121 c 0,63,64
 452 -140 452 -140 438 -153 c 256,65,66
 425 -166 425 -166 406 -167 c 1,67,-1
 406 -167 l 1,51,52
526 -167 m 1,68,69
 507 -167 507 -167 493 -153 c 256,70,71
 480 -140 480 -140 480 -121 c 0,72,73
 480 -103 480 -103 493 -88 c 256,74,75
 506 -75 506 -75 526 -75 c 256,76,77
 545 -75 545 -75 558 -88 c 256,78,79
 571 -101 571 -101 572 -121 c 0,80,81
 572 -140 572 -140 558 -153 c 256,82,83
 545 -166 545 -166 526 -167 c 1,84,-1
 526 -167 l 1,68,69
226 0 m 1,85,86
 207 0 207 0 193 13 c 0,87,88
 180 27 180 27 180 46 c 0,89,90
 180 65 180 65 193 78 c 256,91,92
 206 91 206 91 226 92 c 0,93,94
 244 92 244 92 258 78 c 0,95,96
 271 65 271 65 272 46 c 0,97,98
 272 28 272 28 258 13 c 0,99,100
 244 0 244 0 226 0 c 1,101,-1
 226 0 l 1,85,86
166 83 m 1,102,103
 148 83 148 83 133 97 c 0,104,105
 120 110 120 110 120 129 c 256,106,107
 120 148 120 148 133 162 c 0,108,109
 147 175 147 175 166 175 c 0,110,111
 185 175 185 175 198 162 c 256,112,113
 211 149 211 149 212 129 c 256,114,115
 212 110 212 110 198 97 c 256,116,117
 185 84 185 84 166 83 c 1,118,-1
 166 83 l 1,102,103
286 83 m 1,119,120
 267 83 267 83 253 97 c 256,121,122
 240 110 240 110 240 129 c 256,123,124
 240 148 240 148 253 162 c 256,125,126
 266 175 266 175 286 175 c 256,127,128
 305 175 305 175 318 162 c 256,129,130
 331 149 331 149 332 129 c 256,131,132
 332 110 332 110 318 97 c 256,133,134
 305 84 305 84 286 83 c 1,135,-1
 286 83 l 1,119,120
226 167 m 1,136,137
 207 167 207 167 193 180 c 256,138,139
 180 192 180 192 180 212 c 0,140,141
 180 230 180 230 193 244 c 256,142,143
 206 257 206 257 226 258 c 0,144,145
 244 258 244 258 258 244 c 0,146,147
 271 230 271 230 272 212 c 0,148,149
 272 193 272 193 258 180 c 0,150,151
 244 167 244 167 226 167 c 1,152,-1
 226 167 l 1,136,137
226 333 m 1,153,154
 207 333 207 333 193 347 c 256,155,156
 180 360 180 360 180 379 c 0,157,158
 180 398 180 398 193 412 c 256,159,160
 206 425 206 425 226 425 c 0,161,162
 244 425 244 425 258 412 c 0,163,164
 271 399 271 399 272 379 c 0,165,166
 272 361 272 361 258 347 c 0,167,168
 244 334 244 334 226 333 c 1,169,-1
 226 333 l 1,153,154
166 417 m 1,170,171
 148 417 148 417 133 430 c 0,172,173
 120 444 120 444 120 462 c 0,174,175
 120 481 120 481 133 495 c 0,176,177
 147 508 147 508 166 508 c 0,178,179
 185 508 185 508 198 495 c 256,180,181
 211 482 211 482 212 462 c 0,182,183
 212 444 212 444 198 430 c 0,184,185
 185 417 185 417 166 417 c 1,186,-1
 166 417 l 1,170,171
286 417 m 1,187,188
 267 417 267 417 253 430 c 0,189,190
 240 444 240 444 240 462 c 0,191,192
 240 481 240 481 253 495 c 256,193,194
 266 508 266 508 286 508 c 256,195,196
 305 508 305 508 318 495 c 256,197,198
 331 482 331 482 332 462 c 0,199,200
 332 444 332 444 318 430 c 0,201,202
 305 417 305 417 286 417 c 1,203,-1
 286 417 l 1,187,188
226 500 m 1,204,205
 207 500 207 500 193 513 c 256,206,207
 180 526 180 526 180 546 c 256,208,209
 180 565 180 565 193 578 c 256,210,211
 206 591 206 591 226 592 c 0,212,213
 244 592 244 592 258 578 c 0,214,215
 271 565 271 565 272 546 c 256,216,217
 272 527 272 527 258 513 c 0,218,219
 244 500 244 500 226 500 c 1,220,-1
 226 500 l 1,204,205
EndSplineSet
EndChar

StartChar: semicolon
Encoding: 59 59 27
Width: 600
VWidth: 833
Flags: W
LayerCount: 2
Fore
SplineSet
46 -167 m 1,0,1
 28 -167 28 -167 13 -153 c 0,2,3
 0 -140 0 -140 0 -121 c 0,4,5
 0 -103 0 -103 13 -88 c 0,6,7
 27 -75 27 -75 46 -75 c 0,8,9
 65 -75 65 -75 78 -88 c 256,10,11
 91 -101 91 -101 92 -121 c 0,12,13
 92 -140 92 -140 78 -153 c 256,14,15
 65 -166 65 -166 46 -167 c 1,16,-1
 46 -167 l 1,0,1
286 -167 m 1,17,18
 267 -167 267 -167 253 -153 c 256,19,20
 240 -140 240 -140 240 -121 c 0,21,22
 240 -103 240 -103 253 -88 c 256,23,24
 266 -75 266 -75 286 -75 c 256,25,26
 305 -75 305 -75 318 -88 c 256,27,28
 331 -101 331 -101 332 -121 c 0,29,30
 332 -140 332 -140 318 -153 c 256,31,32
 305 -166 305 -166 286 -167 c 1,33,-1
 286 -167 l 1,17,18
406 -167 m 1,34,35
 387 -167 387 -167 373 -153 c 256,36,37
 360 -140 360 -140 360 -121 c 0,38,39
 360 -103 360 -103 373 -88 c 256,40,41
 386 -75 386 -75 406 -75 c 256,42,43
 425 -75 425 -75 438 -88 c 256,44,45
 451 -101 451 -101 452 -121 c 0,46,47
 452 -140 452 -140 438 -153 c 256,48,49
 425 -166 425 -166 406 -167 c 1,50,-1
 406 -167 l 1,34,35
526 -167 m 1,51,52
 507 -167 507 -167 493 -153 c 256,53,54
 480 -140 480 -140 480 -121 c 0,55,56
 480 -103 480 -103 493 -88 c 256,57,58
 506 -75 506 -75 526 -75 c 256,59,60
 545 -75 545 -75 558 -88 c 256,61,62
 571 -101 571 -101 572 -121 c 0,63,64
 572 -140 572 -140 558 -153 c 256,65,66
 545 -166 545 -166 526 -167 c 1,67,-1
 526 -167 l 1,51,52
166 -167 m 1,68,69
 148 -167 148 -167 133 -153 c 0,70,71
 120 -140 120 -140 120 -121 c 0,72,73
 120 -103 120 -103 133 -88 c 0,74,75
 139 -82 139 -82 146 -79 c 1,76,-1
 146 -79 l 1,77,78
 139 -76 139 -76 133 -69 c 0,79,80
 120 -56 120 -56 120 -38 c 0,81,82
 120 -19 120 -19 133 -5 c 0,83,84
 147 8 147 8 166 8 c 0,85,86
 185 8 185 8 198 -5 c 0,87,88
 211 -18 211 -18 212 -38 c 0,89,90
 212 -56 212 -56 198 -69 c 0,91,92
 192 -75 192 -75 185 -79 c 1,93,-1
 185 -79 l 1,94,95
 192 -82 192 -82 198 -88 c 0,96,97
 211 -101 211 -101 212 -121 c 0,98,99
 212 -140 212 -140 198 -153 c 256,100,101
 185 -166 185 -166 166 -167 c 1,102,-1
 166 -167 l 1,68,69
166 8 m 1,103,104
 166 8 l 257,105,106
 166 8 l 1,107,-1
 166 8 l 1,103,104
226 0 m 1,108,109
 207 0 207 0 193 13 c 0,110,111
 180 27 180 27 180 46 c 0,112,113
 180 65 180 65 193 78 c 256,114,115
 206 91 206 91 226 92 c 0,116,117
 244 92 244 92 258 78 c 0,118,119
 271 65 271 65 272 46 c 0,120,121
 272 28 272 28 258 13 c 0,122,123
 244 0 244 0 226 0 c 1,124,-1
 226 0 l 1,108,109
166 83 m 1,125,126
 148 83 148 83 133 97 c 0,127,128
 120 110 120 110 120 129 c 256,129,130
 120 148 120 148 133 162 c 0,131,132
 147 175 147 175 166 175 c 0,133,134
 185 175 185 175 198 162 c 256,135,136
 211 149 211 149 212 129 c 256,137,138
 212 110 212 110 198 97 c 256,139,140
 185 84 185 84 166 83 c 1,141,-1
 166 83 l 1,125,126
286 83 m 1,142,143
 267 83 267 83 253 97 c 256,144,145
 240 110 240 110 240 129 c 256,146,147
 240 148 240 148 253 162 c 256,148,149
 266 175 266 175 286 175 c 256,150,151
 305 175 305 175 318 162 c 256,152,153
 331 149 331 149 332 129 c 256,154,155
 332 110 332 110 318 97 c 256,156,157
 305 84 305 84 286 83 c 1,158,-1
 286 83 l 1,142,143
226 167 m 1,159,160
 207 167 207 167 193 180 c 256,161,162
 180 192 180 192 180 212 c 0,163,164
 180 230 180 230 193 244 c 256,165,166
 206 257 206 257 226 258 c 0,167,168
 244 258 244 258 258 244 c 0,169,170
 271 230 271 230 272 212 c 0,171,172
 272 193 272 193 258 180 c 0,173,174
 244 167 244 167 226 167 c 1,175,-1
 226 167 l 1,159,160
226 333 m 1,176,177
 207 333 207 333 193 347 c 256,178,179
 180 360 180 360 180 379 c 0,180,181
 180 398 180 398 193 412 c 256,182,183
 206 425 206 425 226 425 c 0,184,185
 244 425 244 425 258 412 c 0,186,187
 271 399 271 399 272 379 c 0,188,189
 272 361 272 361 258 347 c 0,190,191
 244 334 244 334 226 333 c 1,192,-1
 226 333 l 1,176,177
166 417 m 1,193,194
 148 417 148 417 133 430 c 0,195,196
 120 444 120 444 120 462 c 0,197,198
 120 481 120 481 133 495 c 0,199,200
 147 508 147 508 166 508 c 0,201,202
 185 508 185 508 198 495 c 256,203,204
 211 482 211 482 212 462 c 0,205,206
 212 444 212 444 198 430 c 0,207,208
 185 417 185 417 166 417 c 1,209,-1
 166 417 l 1,193,194
286 417 m 1,210,211
 267 417 267 417 253 430 c 0,212,213
 240 444 240 444 240 462 c 0,214,215
 240 481 240 481 253 495 c 256,216,217
 266 508 266 508 286 508 c 256,218,219
 305 508 305 508 318 495 c 256,220,221
 331 482 331 482 332 462 c 0,222,223
 332 444 332 444 318 430 c 0,224,225
 305 417 305 417 286 417 c 1,226,-1
 286 417 l 1,210,211
226 500 m 1,227,228
 207 500 207 500 193 513 c 256,229,230
 180 526 180 526 180 546 c 256,231,232
 180 565 180 565 193 578 c 256,233,234
 206 591 206 591 226 592 c 0,235,236
 244 592 244 592 258 578 c 0,237,238
 271 565 271 565 272 546 c 256,239,240
 272 527 272 527 258 513 c 0,241,242
 244 500 244 500 226 500 c 1,243,-1
 226 500 l 1,227,228
EndSplineSet
EndChar

StartChar: less
Encoding: 60 60 28
Width: 600
VWidth: 833
Flags: W
LayerCount: 2
Fore
SplineSet
46 -167 m 1,0,1
 28 -167 28 -167 13 -153 c 0,2,3
 0 -140 0 -140 0 -121 c 0,4,5
 0 -103 0 -103 13 -88 c 0,6,7
 27 -75 27 -75 46 -75 c 0,8,9
 65 -75 65 -75 78 -88 c 256,10,11
 91 -101 91 -101 92 -121 c 0,12,13
 92 -140 92 -140 78 -153 c 256,14,15
 65 -166 65 -166 46 -167 c 1,16,-1
 46 -167 l 1,0,1
166 -167 m 1,17,18
 148 -167 148 -167 133 -153 c 0,19,20
 120 -140 120 -140 120 -121 c 0,21,22
 120 -103 120 -103 133 -88 c 0,23,24
 147 -75 147 -75 166 -75 c 0,25,26
 185 -75 185 -75 198 -88 c 256,27,28
 211 -101 211 -101 212 -121 c 0,29,30
 212 -140 212 -140 198 -153 c 256,31,32
 185 -166 185 -166 166 -167 c 1,33,-1
 166 -167 l 1,17,18
286 -167 m 1,34,35
 267 -167 267 -167 253 -153 c 256,36,37
 240 -140 240 -140 240 -121 c 0,38,39
 240 -103 240 -103 253 -88 c 256,40,41
 266 -75 266 -75 286 -75 c 256,42,43
 305 -75 305 -75 318 -88 c 256,44,45
 331 -101 331 -101 332 -121 c 0,46,47
 332 -140 332 -140 318 -153 c 256,48,49
 305 -166 305 -166 286 -167 c 1,50,-1
 286 -167 l 1,34,35
406 -167 m 1,51,52
 387 -167 387 -167 373 -153 c 256,53,54
 360 -140 360 -140 360 -121 c 0,55,56
 360 -103 360 -103 373 -88 c 256,57,58
 386 -75 386 -75 406 -75 c 256,59,60
 425 -75 425 -75 438 -88 c 256,61,62
 451 -101 451 -101 452 -121 c 0,63,64
 452 -140 452 -140 438 -153 c 256,65,66
 425 -166 425 -166 406 -167 c 1,67,-1
 406 -167 l 1,51,52
526 -167 m 1,68,69
 507 -167 507 -167 493 -153 c 256,70,71
 480 -140 480 -140 480 -121 c 0,72,73
 480 -103 480 -103 493 -88 c 256,74,75
 506 -75 506 -75 526 -75 c 256,76,77
 545 -75 545 -75 558 -88 c 256,78,79
 571 -101 571 -101 572 -121 c 0,80,81
 572 -140 572 -140 558 -153 c 256,82,83
 545 -166 545 -166 526 -167 c 1,84,-1
 526 -167 l 1,68,69
466 0 m 1,85,86
 448 0 448 0 433 13 c 0,87,88
 420 27 420 27 420 46 c 0,89,90
 420 65 420 65 433 78 c 256,91,92
 446 91 446 91 466 92 c 0,93,94
 485 92 485 92 498 78 c 256,95,96
 511 65 511 65 512 46 c 0,97,98
 512 28 512 28 498 13 c 0,99,100
 485 0 485 0 466 0 c 1,101,-1
 466 0 l 1,85,86
346 83 m 1,102,103
 327 83 327 83 313 97 c 256,104,105
 300 110 300 110 300 129 c 256,106,107
 300 148 300 148 313 162 c 256,108,109
 326 175 326 175 346 175 c 0,110,111
 364 175 364 175 378 162 c 256,112,113
 391 149 391 149 392 129 c 256,114,115
 392 110 392 110 378 97 c 256,116,117
 365 84 365 84 346 83 c 1,118,-1
 346 83 l 1,102,103
226 167 m 1,119,120
 207 167 207 167 193 180 c 256,121,122
 180 192 180 192 180 212 c 0,123,124
 180 230 180 230 193 244 c 256,125,126
 206 257 206 257 226 258 c 0,127,128
 244 258 244 258 258 244 c 0,129,130
 271 230 271 230 272 212 c 0,131,132
 272 193 272 193 258 180 c 0,133,134
 244 167 244 167 226 167 c 1,135,-1
 226 167 l 1,119,120
106 250 m 1,136,137
 87 250 87 250 73 263 c 256,138,139
 60 276 60 276 60 296 c 0,140,141
 60 314 60 314 73 328 c 256,142,143
 86 341 86 341 106 342 c 0,144,145
 124 342 124 342 138 328 c 0,146,147
 151 315 151 315 152 296 c 0,148,149
 152 277 152 277 138 263 c 0,150,151
 124 250 124 250 106 250 c 1,152,-1
 106 250 l 1,136,137
226 333 m 1,153,154
 207 333 207 333 193 347 c 256,155,156
 180 360 180 360 180 379 c 0,157,158
 180 398 180 398 193 412 c 256,159,160
 206 425 206 425 226 425 c 0,161,162
 244 425 244 425 258 412 c 0,163,164
 271 399 271 399 272 379 c 0,165,166
 272 361 272 361 258 347 c 0,167,168
 244 334 244 334 226 333 c 1,169,-1
 226 333 l 1,153,154
346 417 m 1,170,171
 327 417 327 417 313 430 c 0,172,173
 300 444 300 444 300 462 c 0,174,175
 300 481 300 481 313 495 c 256,176,177
 326 508 326 508 346 508 c 0,178,179
 364 508 364 508 378 495 c 256,180,181
 391 482 391 482 392 462 c 0,182,183
 392 444 392 444 378 430 c 0,184,185
 365 417 365 417 346 417 c 1,186,-1
 346 417 l 1,170,171
466 500 m 1,187,188
 448 500 448 500 433 513 c 256,189,190
 420 526 420 526 420 546 c 256,191,192
 420 565 420 565 433 578 c 256,193,194
 446 591 446 591 466 592 c 0,195,196
 485 592 485 592 498 578 c 256,197,198
 511 565 511 565 512 546 c 256,199,200
 512 527 512 527 498 513 c 256,201,202
 485 500 485 500 466 500 c 1,203,-1
 466 500 l 1,187,188
EndSplineSet
EndChar

StartChar: equal
Encoding: 61 61 29
Width: 600
VWidth: 833
Flags: W
LayerCount: 2
Fore
SplineSet
46 -167 m 1,0,1
 28 -167 28 -167 13 -153 c 0,2,3
 0 -140 0 -140 0 -121 c 0,4,5
 0 -103 0 -103 13 -88 c 0,6,7
 27 -75 27 -75 46 -75 c 0,8,9
 65 -75 65 -75 78 -88 c 256,10,11
 91 -101 91 -101 92 -121 c 0,12,13
 92 -140 92 -140 78 -153 c 256,14,15
 65 -166 65 -166 46 -167 c 1,16,-1
 46 -167 l 1,0,1
166 -167 m 1,17,18
 148 -167 148 -167 133 -153 c 0,19,20
 120 -140 120 -140 120 -121 c 0,21,22
 120 -103 120 -103 133 -88 c 0,23,24
 147 -75 147 -75 166 -75 c 0,25,26
 185 -75 185 -75 198 -88 c 256,27,28
 211 -101 211 -101 212 -121 c 0,29,30
 212 -140 212 -140 198 -153 c 256,31,32
 185 -166 185 -166 166 -167 c 1,33,-1
 166 -167 l 1,17,18
286 -167 m 1,34,35
 267 -167 267 -167 253 -153 c 256,36,37
 240 -140 240 -140 240 -121 c 0,38,39
 240 -103 240 -103 253 -88 c 256,40,41
 266 -75 266 -75 286 -75 c 256,42,43
 305 -75 305 -75 318 -88 c 256,44,45
 331 -101 331 -101 332 -121 c 0,46,47
 332 -140 332 -140 318 -153 c 256,48,49
 305 -166 305 -166 286 -167 c 1,50,-1
 286 -167 l 1,34,35
406 -167 m 1,51,52
 387 -167 387 -167 373 -153 c 256,53,54
 360 -140 360 -140 360 -121 c 0,55,56
 360 -103 360 -103 373 -88 c 256,57,58
 386 -75 386 -75 406 -75 c 256,59,60
 425 -75 425 -75 438 -88 c 256,61,62
 451 -101 451 -101 452 -121 c 0,63,64
 452 -140 452 -140 438 -153 c 256,65,66
 425 -166 425 -166 406 -167 c 1,67,-1
 406 -167 l 1,51,52
526 -167 m 1,68,69
 507 -167 507 -167 493 -153 c 256,70,71
 480 -140 480 -140 480 -121 c 0,72,73
 480 -103 480 -103 493 -88 c 256,74,75
 506 -75 506 -75 526 -75 c 256,76,77
 545 -75 545 -75 558 -88 c 256,78,79
 571 -101 571 -101 572 -121 c 0,80,81
 572 -140 572 -140 558 -153 c 256,82,83
 545 -166 545 -166 526 -167 c 1,84,-1
 526 -167 l 1,68,69
46 167 m 1,85,86
 28 167 28 167 13 180 c 0,87,88
 0 192 0 192 0 212 c 0,89,90
 0 230 0 230 13 244 c 0,91,92
 27 257 27 257 46 258 c 0,93,94
 65 258 65 258 78 244 c 256,95,96
 91 230 91 230 92 212 c 0,97,98
 92 193 92 193 78 180 c 256,99,100
 65 167 65 167 46 167 c 1,101,-1
 46 167 l 1,85,86
166 167 m 1,102,103
 148 167 148 167 133 180 c 0,104,105
 120 192 120 192 120 212 c 0,106,107
 120 230 120 230 133 244 c 0,108,109
 147 257 147 257 166 258 c 0,110,111
 185 258 185 258 198 244 c 256,112,113
 211 230 211 230 212 212 c 0,114,115
 212 193 212 193 198 180 c 256,116,117
 185 167 185 167 166 167 c 1,118,-1
 166 167 l 1,102,103
286 167 m 1,119,120
 267 167 267 167 253 180 c 256,121,122
 240 192 240 192 240 212 c 0,123,124
 240 230 240 230 253 244 c 256,125,126
 266 257 266 257 286 258 c 256,127,128
 305 258 305 258 318 244 c 256,129,130
 331 230 331 230 332 212 c 0,131,132
 332 193 332 193 318 180 c 256,133,134
 305 167 305 167 286 167 c 1,135,-1
 286 167 l 1,119,120
406 167 m 1,136,137
 387 167 387 167 373 180 c 256,138,139
 360 192 360 192 360 212 c 0,140,141
 360 230 360 230 373 244 c 256,142,143
 386 257 386 257 406 258 c 256,144,145
 425 258 425 258 438 244 c 256,146,147
 451 230 451 230 452 212 c 0,148,149
 452 193 452 193 438 180 c 256,150,151
 425 167 425 167 406 167 c 1,152,-1
 406 167 l 1,136,137
46 333 m 1,153,154
 28 333 28 333 13 347 c 0,155,156
 0 360 0 360 0 379 c 0,157,158
 0 398 0 398 13 412 c 0,159,160
 27 425 27 425 46 425 c 0,161,162
 65 425 65 425 78 412 c 256,163,164
 91 399 91 399 92 379 c 0,165,166
 92 361 92 361 78 347 c 256,167,168
 65 334 65 334 46 333 c 1,169,-1
 46 333 l 1,153,154
166 333 m 1,170,171
 148 333 148 333 133 347 c 0,172,173
 120 360 120 360 120 379 c 0,174,175
 120 398 120 398 133 412 c 0,176,177
 147 425 147 425 166 425 c 0,178,179
 185 425 185 425 198 412 c 256,180,181
 211 399 211 399 212 379 c 0,182,183
 212 361 212 361 198 347 c 256,184,185
 185 334 185 334 166 333 c 1,186,-1
 166 333 l 1,170,171
286 333 m 1,187,188
 267 333 267 333 253 347 c 256,189,190
 240 360 240 360 240 379 c 0,191,192
 240 398 240 398 253 412 c 256,193,194
 266 425 266 425 286 425 c 256,195,196
 305 425 305 425 318 412 c 256,197,198
 331 399 331 399 332 379 c 0,199,200
 332 361 332 361 318 347 c 256,201,202
 305 334 305 334 286 333 c 1,203,-1
 286 333 l 1,187,188
406 333 m 1,204,205
 387 333 387 333 373 347 c 256,206,207
 360 360 360 360 360 379 c 0,208,209
 360 398 360 398 373 412 c 256,210,211
 386 425 386 425 406 425 c 256,212,213
 425 425 425 425 438 412 c 256,214,215
 451 399 451 399 452 379 c 0,216,217
 452 361 452 361 438 347 c 256,218,219
 425 334 425 334 406 333 c 1,220,-1
 406 333 l 1,204,205
EndSplineSet
EndChar

StartChar: greater
Encoding: 62 62 30
Width: 600
VWidth: 833
Flags: W
LayerCount: 2
Fore
SplineSet
46 -167 m 1,0,1
 28 -167 28 -167 13 -153 c 0,2,3
 0 -140 0 -140 0 -121 c 0,4,5
 0 -103 0 -103 13 -88 c 0,6,7
 27 -75 27 -75 46 -75 c 0,8,9
 65 -75 65 -75 78 -88 c 256,10,11
 91 -101 91 -101 92 -121 c 0,12,13
 92 -140 92 -140 78 -153 c 256,14,15
 65 -166 65 -166 46 -167 c 1,16,-1
 46 -167 l 1,0,1
166 -167 m 1,17,18
 148 -167 148 -167 133 -153 c 0,19,20
 120 -140 120 -140 120 -121 c 0,21,22
 120 -103 120 -103 133 -88 c 0,23,24
 147 -75 147 -75 166 -75 c 0,25,26
 185 -75 185 -75 198 -88 c 256,27,28
 211 -101 211 -101 212 -121 c 0,29,30
 212 -140 212 -140 198 -153 c 256,31,32
 185 -166 185 -166 166 -167 c 1,33,-1
 166 -167 l 1,17,18
286 -167 m 1,34,35
 267 -167 267 -167 253 -153 c 256,36,37
 240 -140 240 -140 240 -121 c 0,38,39
 240 -103 240 -103 253 -88 c 256,40,41
 266 -75 266 -75 286 -75 c 256,42,43
 305 -75 305 -75 318 -88 c 256,44,45
 331 -101 331 -101 332 -121 c 0,46,47
 332 -140 332 -140 318 -153 c 256,48,49
 305 -166 305 -166 286 -167 c 1,50,-1
 286 -167 l 1,34,35
406 -167 m 1,51,52
 387 -167 387 -167 373 -153 c 256,53,54
 360 -140 360 -140 360 -121 c 0,55,56
 360 -103 360 -103 373 -88 c 256,57,58
 386 -75 386 -75 406 -75 c 256,59,60
 425 -75 425 -75 438 -88 c 256,61,62
 451 -101 451 -101 452 -121 c 0,63,64
 452 -140 452 -140 438 -153 c 256,65,66
 425 -166 425 -166 406 -167 c 1,67,-1
 406 -167 l 1,51,52
526 -167 m 1,68,69
 507 -167 507 -167 493 -153 c 256,70,71
 480 -140 480 -140 480 -121 c 0,72,73
 480 -103 480 -103 493 -88 c 256,74,75
 506 -75 506 -75 526 -75 c 256,76,77
 545 -75 545 -75 558 -88 c 256,78,79
 571 -101 571 -101 572 -121 c 0,80,81
 572 -140 572 -140 558 -153 c 256,82,83
 545 -166 545 -166 526 -167 c 1,84,-1
 526 -167 l 1,68,69
106 0 m 1,85,86
 87 0 87 0 73 13 c 0,87,88
 60 27 60 27 60 46 c 0,89,90
 60 65 60 65 73 78 c 256,91,92
 86 91 86 91 106 92 c 0,93,94
 124 92 124 92 138 78 c 0,95,96
 151 65 151 65 152 46 c 0,97,98
 152 28 152 28 138 13 c 0,99,100
 124 0 124 0 106 0 c 1,101,-1
 106 0 l 1,85,86
226 83 m 1,102,103
 207 83 207 83 193 97 c 256,104,105
 180 110 180 110 180 129 c 256,106,107
 180 148 180 148 193 162 c 256,108,109
 206 175 206 175 226 175 c 0,110,111
 244 175 244 175 258 162 c 0,112,113
 271 149 271 149 272 129 c 256,114,115
 272 110 272 110 258 97 c 0,116,117
 244 84 244 84 226 83 c 1,118,-1
 226 83 l 1,102,103
346 167 m 1,119,120
 327 167 327 167 313 180 c 256,121,122
 300 192 300 192 300 212 c 0,123,124
 300 230 300 230 313 244 c 256,125,126
 326 257 326 257 346 258 c 0,127,128
 364 258 364 258 378 244 c 256,129,130
 391 230 391 230 392 212 c 0,131,132
 392 193 392 193 378 180 c 256,133,134
 365 167 365 167 346 167 c 1,135,-1
 346 167 l 1,119,120
466 250 m 1,136,137
 448 250 448 250 433 263 c 256,138,139
 420 276 420 276 420 296 c 0,140,141
 420 314 420 314 433 328 c 256,142,143
 446 341 446 341 466 342 c 0,144,145
 485 342 485 342 498 328 c 256,146,147
 511 315 511 315 512 296 c 0,148,149
 512 277 512 277 498 263 c 256,150,151
 485 250 485 250 466 250 c 1,152,-1
 466 250 l 1,136,137
346 333 m 1,153,154
 327 333 327 333 313 347 c 256,155,156
 300 360 300 360 300 379 c 0,157,158
 300 398 300 398 313 412 c 256,159,160
 326 425 326 425 346 425 c 0,161,162
 364 425 364 425 378 412 c 256,163,164
 391 399 391 399 392 379 c 0,165,166
 392 361 392 361 378 347 c 256,167,168
 365 334 365 334 346 333 c 1,169,-1
 346 333 l 1,153,154
226 417 m 1,170,171
 207 417 207 417 193 430 c 0,172,173
 180 444 180 444 180 462 c 0,174,175
 180 481 180 481 193 495 c 256,176,177
 206 508 206 508 226 508 c 0,178,179
 244 508 244 508 258 495 c 0,180,181
 271 482 271 482 272 462 c 0,182,183
 272 444 272 444 258 430 c 0,184,185
 244 417 244 417 226 417 c 1,186,-1
 226 417 l 1,170,171
106 500 m 1,187,188
 87 500 87 500 73 513 c 256,189,190
 60 526 60 526 60 546 c 256,191,192
 60 565 60 565 73 578 c 256,193,194
 86 591 86 591 106 592 c 0,195,196
 124 592 124 592 138 578 c 0,197,198
 151 565 151 565 152 546 c 256,199,200
 152 527 152 527 138 513 c 0,201,202
 124 500 124 500 106 500 c 1,203,-1
 106 500 l 1,187,188
EndSplineSet
EndChar

StartChar: question
Encoding: 63 63 31
Width: 600
VWidth: 833
Flags: W
LayerCount: 2
Fore
SplineSet
46 -167 m 1,0,1
 28 -167 28 -167 13 -153 c 0,2,3
 0 -140 0 -140 0 -121 c 0,4,5
 0 -103 0 -103 13 -88 c 0,6,7
 27 -75 27 -75 46 -75 c 0,8,9
 65 -75 65 -75 78 -88 c 256,10,11
 91 -101 91 -101 92 -121 c 0,12,13
 92 -140 92 -140 78 -153 c 256,14,15
 65 -166 65 -166 46 -167 c 1,16,-1
 46 -167 l 1,0,1
166 -167 m 1,17,18
 148 -167 148 -167 133 -153 c 0,19,20
 120 -140 120 -140 120 -121 c 0,21,22
 120 -103 120 -103 133 -88 c 0,23,24
 147 -75 147 -75 166 -75 c 0,25,26
 185 -75 185 -75 198 -88 c 256,27,28
 211 -101 211 -101 212 -121 c 0,29,30
 212 -140 212 -140 198 -153 c 256,31,32
 185 -166 185 -166 166 -167 c 1,33,-1
 166 -167 l 1,17,18
286 -167 m 1,34,35
 267 -167 267 -167 253 -153 c 256,36,37
 240 -140 240 -140 240 -121 c 0,38,39
 240 -103 240 -103 253 -88 c 256,40,41
 266 -75 266 -75 286 -75 c 256,42,43
 305 -75 305 -75 318 -88 c 256,44,45
 331 -101 331 -101 332 -121 c 0,46,47
 332 -140 332 -140 318 -153 c 256,48,49
 305 -166 305 -166 286 -167 c 1,50,-1
 286 -167 l 1,34,35
406 -167 m 1,51,52
 387 -167 387 -167 373 -153 c 256,53,54
 360 -140 360 -140 360 -121 c 0,55,56
 360 -103 360 -103 373 -88 c 256,57,58
 386 -75 386 -75 406 -75 c 256,59,60
 425 -75 425 -75 438 -88 c 256,61,62
 451 -101 451 -101 452 -121 c 0,63,64
 452 -140 452 -140 438 -153 c 256,65,66
 425 -166 425 -166 406 -167 c 1,67,-1
 406 -167 l 1,51,52
526 -167 m 1,68,69
 507 -167 507 -167 493 -153 c 256,70,71
 480 -140 480 -140 480 -121 c 0,72,73
 480 -103 480 -103 493 -88 c 256,74,75
 506 -75 506 -75 526 -75 c 256,76,77
 545 -75 545 -75 558 -88 c 256,78,79
 571 -101 571 -101 572 -121 c 0,80,81
 572 -140 572 -140 558 -153 c 256,82,83
 545 -166 545 -166 526 -167 c 1,84,-1
 526 -167 l 1,68,69
226 0 m 1,85,86
 207 0 207 0 193 13 c 0,87,88
 180 27 180 27 180 46 c 0,89,90
 180 65 180 65 193 78 c 256,91,92
 206 91 206 91 226 92 c 0,93,94
 244 92 244 92 258 78 c 0,95,96
 271 65 271 65 272 46 c 0,97,98
 272 28 272 28 258 13 c 0,99,100
 244 0 244 0 226 0 c 1,101,-1
 226 0 l 1,85,86
226 167 m 1,102,103
 207 167 207 167 193 180 c 256,104,105
 180 192 180 192 180 212 c 0,106,107
 180 230 180 230 193 244 c 0,108,109
 199 250 199 250 207 254 c 1,110,-1
 207 254 l 1,111,112
 199 257 199 257 193 263 c 0,113,114
 180 276 180 276 180 296 c 0,115,116
 180 314 180 314 193 328 c 256,117,118
 206 341 206 341 226 342 c 0,119,120
 244 342 244 342 258 328 c 0,121,122
 271 315 271 315 272 296 c 0,123,124
 272 277 272 277 258 263 c 0,125,126
 252 257 252 257 245 254 c 1,127,-1
 245 254 l 1,128,129
 252 251 252 251 258 244 c 0,130,131
 271 230 271 230 272 212 c 0,132,133
 272 193 272 193 258 180 c 0,134,135
 244 167 244 167 226 167 c 1,136,-1
 226 167 l 1,102,103
346 250 m 1,137,138
 327 250 327 250 313 263 c 256,139,140
 300 276 300 276 300 296 c 0,141,142
 300 314 300 314 313 328 c 256,143,144
 326 341 326 341 346 342 c 0,145,146
 364 342 364 342 378 328 c 256,147,148
 391 315 391 315 392 296 c 0,149,150
 392 277 392 277 378 263 c 256,151,152
 365 250 365 250 346 250 c 1,153,-1
 346 250 l 1,137,138
46 417 m 1,154,155
 28 417 28 417 13 430 c 0,156,157
 0 444 0 444 0 462 c 0,158,159
 0 481 0 481 13 495 c 0,160,161
 27 508 27 508 46 508 c 0,162,163
 65 508 65 508 78 495 c 256,164,165
 91 482 91 482 92 462 c 0,166,167
 92 444 92 444 78 430 c 0,168,169
 65 417 65 417 46 417 c 1,170,-1
 46 417 l 1,154,155
406 333 m 1,171,172
 387 333 387 333 373 347 c 256,173,174
 360 360 360 360 360 379 c 0,175,176
 360 398 360 398 373 412 c 0,177,178
 379 418 379 418 386 421 c 1,179,-1
 386 421 l 1,180,181
 379 424 379 424 373 430 c 0,182,183
 360 444 360 444 360 462 c 0,184,185
 360 481 360 481 373 495 c 256,186,187
 386 508 386 508 406 508 c 256,188,189
 425 508 425 508 438 495 c 256,190,191
 451 482 451 482 452 462 c 0,192,193
 452 444 452 444 438 430 c 0,194,195
 432 424 432 424 425 421 c 1,196,-1
 425 421 l 1,197,198
 432 418 432 418 438 412 c 0,199,200
 451 399 451 399 452 379 c 0,201,202
 452 361 452 361 438 347 c 256,203,204
 425 334 425 334 406 333 c 1,205,-1
 406 333 l 1,171,172
106 500 m 1,206,207
 87 500 87 500 73 513 c 256,208,209
 60 526 60 526 60 546 c 256,210,211
 60 565 60 565 73 578 c 256,212,213
 86 591 86 591 106 592 c 0,214,215
 124 592 124 592 138 578 c 0,216,217
 151 565 151 565 152 546 c 256,218,219
 152 527 152 527 138 513 c 0,220,221
 124 500 124 500 106 500 c 1,222,-1
 106 500 l 1,206,207
226 500 m 1,223,224
 207 500 207 500 193 513 c 256,225,226
 180 526 180 526 180 546 c 256,227,228
 180 565 180 565 193 578 c 256,229,230
 206 591 206 591 226 592 c 0,231,232
 244 592 244 592 258 578 c 0,233,234
 271 565 271 565 272 546 c 256,235,236
 272 527 272 527 258 513 c 0,237,238
 244 500 244 500 226 500 c 1,239,-1
 226 500 l 1,223,224
346 500 m 1,240,241
 327 500 327 500 313 513 c 256,242,243
 300 526 300 526 300 546 c 256,244,245
 300 565 300 565 313 578 c 256,246,247
 326 591 326 591 346 592 c 0,248,249
 364 592 364 592 378 578 c 256,250,251
 391 565 391 565 392 546 c 256,252,253
 392 527 392 527 378 513 c 256,254,255
 365 500 365 500 346 500 c 1,256,-1
 346 500 l 1,240,241
EndSplineSet
EndChar

StartChar: at
Encoding: 64 64 32
Width: 600
VWidth: 833
Flags: W
LayerCount: 2
Fore
SplineSet
46 -167 m 1,0,1
 28 -167 28 -167 13 -153 c 0,2,3
 0 -140 0 -140 0 -121 c 0,4,5
 0 -103 0 -103 13 -88 c 0,6,7
 27 -75 27 -75 46 -75 c 0,8,9
 65 -75 65 -75 78 -88 c 256,10,11
 91 -101 91 -101 92 -121 c 0,12,13
 92 -140 92 -140 78 -153 c 256,14,15
 65 -166 65 -166 46 -167 c 1,16,-1
 46 -167 l 1,0,1
166 -167 m 1,17,18
 148 -167 148 -167 133 -153 c 0,19,20
 120 -140 120 -140 120 -121 c 0,21,22
 120 -103 120 -103 133 -88 c 0,23,24
 147 -75 147 -75 166 -75 c 0,25,26
 185 -75 185 -75 198 -88 c 256,27,28
 211 -101 211 -101 212 -121 c 0,29,30
 212 -140 212 -140 198 -153 c 256,31,32
 185 -166 185 -166 166 -167 c 1,33,-1
 166 -167 l 1,17,18
286 -167 m 1,34,35
 267 -167 267 -167 253 -153 c 256,36,37
 240 -140 240 -140 240 -121 c 0,38,39
 240 -103 240 -103 253 -88 c 256,40,41
 266 -75 266 -75 286 -75 c 256,42,43
 305 -75 305 -75 318 -88 c 256,44,45
 331 -101 331 -101 332 -121 c 0,46,47
 332 -140 332 -140 318 -153 c 256,48,49
 305 -166 305 -166 286 -167 c 1,50,-1
 286 -167 l 1,34,35
406 -167 m 1,51,52
 387 -167 387 -167 373 -153 c 256,53,54
 360 -140 360 -140 360 -121 c 0,55,56
 360 -103 360 -103 373 -88 c 256,57,58
 386 -75 386 -75 406 -75 c 256,59,60
 425 -75 425 -75 438 -88 c 256,61,62
 451 -101 451 -101 452 -121 c 0,63,64
 452 -140 452 -140 438 -153 c 256,65,66
 425 -166 425 -166 406 -167 c 1,67,-1
 406 -167 l 1,51,52
526 -167 m 1,68,69
 507 -167 507 -167 493 -153 c 256,70,71
 480 -140 480 -140 480 -121 c 0,72,73
 480 -103 480 -103 493 -88 c 256,74,75
 506 -75 506 -75 526 -75 c 256,76,77
 545 -75 545 -75 558 -88 c 256,78,79
 571 -101 571 -101 572 -121 c 0,80,81
 572 -140 572 -140 558 -153 c 256,82,83
 545 -166 545 -166 526 -167 c 1,84,-1
 526 -167 l 1,68,69
106 0 m 1,85,86
 87 0 87 0 73 13 c 0,87,88
 60 27 60 27 60 46 c 0,89,90
 60 65 60 65 73 78 c 256,91,92
 86 91 86 91 106 92 c 0,93,94
 124 92 124 92 138 78 c 0,95,96
 151 65 151 65 152 46 c 0,97,98
 152 28 152 28 138 13 c 0,99,100
 124 0 124 0 106 0 c 1,101,-1
 106 0 l 1,85,86
226 0 m 1,102,103
 207 0 207 0 193 13 c 0,104,105
 180 27 180 27 180 46 c 0,106,107
 180 65 180 65 193 78 c 256,108,109
 206 91 206 91 226 92 c 0,110,111
 244 92 244 92 258 78 c 0,112,113
 271 65 271 65 272 46 c 0,114,115
 272 28 272 28 258 13 c 0,116,117
 244 0 244 0 226 0 c 1,118,-1
 226 0 l 1,102,103
346 0 m 1,119,120
 327 0 327 0 313 13 c 0,121,122
 300 27 300 27 300 46 c 0,123,124
 300 65 300 65 313 78 c 256,125,126
 326 91 326 91 346 92 c 0,127,128
 364 92 364 92 378 78 c 256,129,130
 391 65 391 65 392 46 c 0,131,132
 392 28 392 28 378 13 c 0,133,134
 365 0 365 0 346 0 c 1,135,-1
 346 0 l 1,119,120
346 167 m 1,136,137
 327 167 327 167 313 180 c 256,138,139
 300 192 300 192 300 212 c 0,140,141
 300 230 300 230 313 244 c 256,142,143
 326 257 326 257 346 258 c 0,144,145
 364 258 364 258 378 244 c 256,146,147
 391 230 391 230 392 212 c 0,148,149
 392 193 392 193 378 180 c 256,150,151
 365 167 365 167 346 167 c 1,152,-1
 346 167 l 1,136,137
226 167 m 1,153,154
 207 167 207 167 193 180 c 256,155,156
 180 192 180 192 180 212 c 0,157,158
 180 230 180 230 193 244 c 0,159,160
 199 250 199 250 207 254 c 1,161,-1
 207 254 l 1,162,163
 199 257 199 257 193 263 c 0,164,165
 180 276 180 276 180 296 c 0,166,167
 180 314 180 314 193 328 c 256,168,169
 206 341 206 341 226 342 c 0,170,171
 244 342 244 342 258 328 c 0,172,173
 271 315 271 315 272 296 c 0,174,175
 272 277 272 277 258 263 c 0,176,177
 252 257 252 257 245 254 c 1,178,-1
 245 254 l 1,179,180
 252 251 252 251 258 244 c 0,181,182
 271 230 271 230 272 212 c 0,183,184
 272 193 272 193 258 180 c 0,185,186
 244 167 244 167 226 167 c 1,187,-1
 226 167 l 1,153,154
286 333 m 1,188,189
 267 333 267 333 253 347 c 256,190,191
 240 360 240 360 240 379 c 0,192,193
 240 398 240 398 253 412 c 256,194,195
 266 425 266 425 286 425 c 256,196,197
 305 425 305 425 318 412 c 256,198,199
 331 399 331 399 332 379 c 0,200,201
 332 361 332 361 318 347 c 256,202,203
 305 334 305 334 286 333 c 1,204,-1
 286 333 l 1,188,189
46 83 m 1,205,206
 28 83 28 83 13 97 c 0,207,208
 0 110 0 110 0 129 c 256,209,210
 0 148 0 148 13 162 c 0,211,212
 19 168 19 168 26 171 c 1,213,-1
 26 171 l 1,214,215
 19 174 19 174 13 180 c 0,216,217
 0 192 0 192 0 212 c 0,218,219
 0 230 0 230 13 244 c 0,220,221
 19 250 19 250 26 254 c 1,222,-1
 26 254 l 1,223,224
 19 257 19 257 13 263 c 0,225,226
 0 276 0 276 0 296 c 0,227,228
 0 314 0 314 13 328 c 0,229,230
 19 334 19 334 26 338 c 1,231,-1
 26 338 l 1,232,233
 19 341 19 341 13 347 c 0,234,235
 0 360 0 360 0 379 c 0,236,237
 0 398 0 398 13 412 c 0,238,239
 19 418 19 418 26 421 c 1,240,-1
 26 421 l 1,241,242
 19 424 19 424 13 430 c 0,243,244
 0 444 0 444 0 462 c 0,245,246
 0 481 0 481 13 495 c 0,247,248
 27 508 27 508 46 508 c 0,249,250
 65 508 65 508 78 495 c 256,251,252
 91 482 91 482 92 462 c 0,253,254
 92 444 92 444 78 430 c 0,255,256
 72 424 72 424 65 421 c 1,257,-1
 65 421 l 1,258,259
 73 418 73 418 78 412 c 0,260,261
 91 399 91 399 92 379 c 0,262,263
 92 361 92 361 78 347 c 0,264,265
 72 342 72 342 65 338 c 1,266,-1
 65 338 l 1,267,268
 73 335 73 335 78 328 c 0,269,270
 91 315 91 315 92 296 c 0,271,272
 92 277 92 277 78 263 c 0,273,274
 72 257 72 257 65 254 c 1,275,-1
 65 254 l 1,276,277
 73 251 73 251 78 244 c 0,278,279
 91 230 91 230 92 212 c 0,280,281
 92 193 92 193 78 180 c 0,282,283
 72 174 72 174 65 171 c 1,284,-1
 65 171 l 1,285,286
 73 168 73 168 78 162 c 0,287,288
 91 149 91 149 92 129 c 256,289,290
 92 110 92 110 78 97 c 256,291,292
 65 84 65 84 46 83 c 1,293,-1
 46 83 l 1,205,206
406 250 m 1,294,295
 387 250 387 250 373 263 c 256,296,297
 360 276 360 276 360 296 c 0,298,299
 360 314 360 314 373 328 c 0,300,301
 379 334 379 334 386 338 c 1,302,-1
 386 338 l 1,303,304
 379 341 379 341 373 347 c 0,305,306
 360 360 360 360 360 379 c 0,307,308
 360 398 360 398 373 412 c 0,309,310
 379 418 379 418 386 421 c 1,311,-1
 386 421 l 1,312,313
 379 424 379 424 373 430 c 0,314,315
 360 444 360 444 360 462 c 0,316,317
 360 481 360 481 373 495 c 256,318,319
 386 508 386 508 406 508 c 256,320,321
 425 508 425 508 438 495 c 256,322,323
 451 482 451 482 452 462 c 0,324,325
 452 444 452 444 438 430 c 0,326,327
 432 424 432 424 425 421 c 1,328,-1
 425 421 l 1,329,330
 432 418 432 418 438 412 c 0,331,332
 451 399 451 399 452 379 c 0,333,334
 452 361 452 361 438 347 c 0,335,336
 432 342 432 342 425 338 c 1,337,-1
 425 338 l 1,338,339
 432 335 432 335 438 328 c 0,340,341
 451 315 451 315 452 296 c 0,342,343
 452 277 452 277 438 263 c 256,344,345
 425 250 425 250 406 250 c 1,346,-1
 406 250 l 1,294,295
106 500 m 1,347,348
 87 500 87 500 73 513 c 256,349,350
 60 526 60 526 60 546 c 256,351,352
 60 565 60 565 73 578 c 256,353,354
 86 591 86 591 106 592 c 0,355,356
 124 592 124 592 138 578 c 0,357,358
 151 565 151 565 152 546 c 256,359,360
 152 527 152 527 138 513 c 0,361,362
 124 500 124 500 106 500 c 1,363,-1
 106 500 l 1,347,348
226 500 m 1,364,365
 207 500 207 500 193 513 c 256,366,367
 180 526 180 526 180 546 c 256,368,369
 180 565 180 565 193 578 c 256,370,371
 206 591 206 591 226 592 c 0,372,373
 244 592 244 592 258 578 c 0,374,375
 271 565 271 565 272 546 c 256,376,377
 272 527 272 527 258 513 c 0,378,379
 244 500 244 500 226 500 c 1,380,-1
 226 500 l 1,364,365
346 500 m 1,381,382
 327 500 327 500 313 513 c 256,383,384
 300 526 300 526 300 546 c 256,385,386
 300 565 300 565 313 578 c 256,387,388
 326 591 326 591 346 592 c 0,389,390
 364 592 364 592 378 578 c 256,391,392
 391 565 391 565 392 546 c 256,393,394
 392 527 392 527 378 513 c 256,395,396
 365 500 365 500 346 500 c 1,397,-1
 346 500 l 1,381,382
EndSplineSet
EndChar

StartChar: A
Encoding: 65 65 33
Width: 600
VWidth: 833
Flags: W
LayerCount: 2
Fore
SplineSet
46 -167 m 1,0,1
 28 -167 28 -167 13 -153 c 0,2,3
 0 -140 0 -140 0 -121 c 0,4,5
 0 -103 0 -103 13 -88 c 0,6,7
 27 -75 27 -75 46 -75 c 0,8,9
 65 -75 65 -75 78 -88 c 256,10,11
 91 -101 91 -101 92 -121 c 0,12,13
 92 -140 92 -140 78 -153 c 256,14,15
 65 -166 65 -166 46 -167 c 1,16,-1
 46 -167 l 1,0,1
166 -167 m 1,17,18
 148 -167 148 -167 133 -153 c 0,19,20
 120 -140 120 -140 120 -121 c 0,21,22
 120 -103 120 -103 133 -88 c 0,23,24
 147 -75 147 -75 166 -75 c 0,25,26
 185 -75 185 -75 198 -88 c 256,27,28
 211 -101 211 -101 212 -121 c 0,29,30
 212 -140 212 -140 198 -153 c 256,31,32
 185 -166 185 -166 166 -167 c 1,33,-1
 166 -167 l 1,17,18
286 -167 m 1,34,35
 267 -167 267 -167 253 -153 c 256,36,37
 240 -140 240 -140 240 -121 c 0,38,39
 240 -103 240 -103 253 -88 c 256,40,41
 266 -75 266 -75 286 -75 c 256,42,43
 305 -75 305 -75 318 -88 c 256,44,45
 331 -101 331 -101 332 -121 c 0,46,47
 332 -140 332 -140 318 -153 c 256,48,49
 305 -166 305 -166 286 -167 c 1,50,-1
 286 -167 l 1,34,35
406 -167 m 1,51,52
 387 -167 387 -167 373 -153 c 256,53,54
 360 -140 360 -140 360 -121 c 0,55,56
 360 -103 360 -103 373 -88 c 256,57,58
 386 -75 386 -75 406 -75 c 256,59,60
 425 -75 425 -75 438 -88 c 256,61,62
 451 -101 451 -101 452 -121 c 0,63,64
 452 -140 452 -140 438 -153 c 256,65,66
 425 -166 425 -166 406 -167 c 1,67,-1
 406 -167 l 1,51,52
526 -167 m 1,68,69
 507 -167 507 -167 493 -153 c 256,70,71
 480 -140 480 -140 480 -121 c 0,72,73
 480 -103 480 -103 493 -88 c 256,74,75
 506 -75 506 -75 526 -75 c 256,76,77
 545 -75 545 -75 558 -88 c 256,78,79
 571 -101 571 -101 572 -121 c 0,80,81
 572 -140 572 -140 558 -153 c 256,82,83
 545 -166 545 -166 526 -167 c 1,84,-1
 526 -167 l 1,68,69
166 167 m 1,85,86
 148 167 148 167 133 180 c 0,87,88
 120 192 120 192 120 212 c 0,89,90
 120 230 120 230 133 244 c 0,91,92
 147 257 147 257 166 258 c 0,93,94
 185 258 185 258 198 244 c 256,95,96
 211 230 211 230 212 212 c 0,97,98
 212 193 212 193 198 180 c 256,99,100
 185 167 185 167 166 167 c 1,101,-1
 166 167 l 1,85,86
286 167 m 1,102,103
 267 167 267 167 253 180 c 256,104,105
 240 192 240 192 240 212 c 0,106,107
 240 230 240 230 253 244 c 256,108,109
 266 257 266 257 286 258 c 256,110,111
 305 258 305 258 318 244 c 256,112,113
 331 230 331 230 332 212 c 0,114,115
 332 193 332 193 318 180 c 256,116,117
 305 167 305 167 286 167 c 1,118,-1
 286 167 l 1,102,103
46 0 m 1,119,120
 28 0 28 0 13 13 c 0,121,122
 0 27 0 27 0 46 c 0,123,124
 0 65 0 65 13 78 c 0,125,126
 19 84 19 84 26 88 c 1,127,-1
 26 88 l 1,128,129
 19 91 19 91 13 97 c 0,130,131
 0 110 0 110 0 129 c 256,132,133
 0 148 0 148 13 162 c 0,134,135
 19 168 19 168 26 171 c 1,136,-1
 26 171 l 1,137,138
 19 174 19 174 13 180 c 0,139,140
 0 192 0 192 0 212 c 0,141,142
 0 230 0 230 13 244 c 0,143,144
 19 250 19 250 26 254 c 1,145,-1
 26 254 l 1,146,147
 19 257 19 257 13 263 c 0,148,149
 0 276 0 276 0 296 c 0,150,151
 0 314 0 314 13 328 c 0,152,153
 27 341 27 341 46 342 c 0,154,155
 65 342 65 342 78 328 c 256,156,157
 91 315 91 315 92 296 c 0,158,159
 92 277 92 277 78 263 c 0,160,161
 72 257 72 257 65 254 c 1,162,-1
 65 254 l 1,163,164
 73 251 73 251 78 244 c 0,165,166
 91 230 91 230 92 212 c 0,167,168
 92 193 92 193 78 180 c 0,169,170
 72 174 72 174 65 171 c 1,171,-1
 65 171 l 1,172,173
 73 168 73 168 78 162 c 0,174,175
 91 149 91 149 92 129 c 256,176,177
 92 110 92 110 78 97 c 0,178,179
 72 92 72 92 65 88 c 1,180,-1
 65 88 l 1,181,182
 73 85 73 85 78 78 c 0,183,184
 91 65 91 65 92 46 c 0,185,186
 92 28 92 28 78 13 c 0,187,188
 65 0 65 0 46 0 c 1,189,-1
 46 0 l 1,119,120
406 0 m 1,190,191
 387 0 387 0 373 13 c 0,192,193
 360 27 360 27 360 46 c 0,194,195
 360 65 360 65 373 78 c 0,196,197
 379 84 379 84 386 88 c 1,198,-1
 386 88 l 1,199,200
 379 91 379 91 373 97 c 0,201,202
 360 110 360 110 360 129 c 256,203,204
 360 148 360 148 373 162 c 0,205,206
 379 168 379 168 386 171 c 1,207,-1
 386 171 l 1,208,209
 379 174 379 174 373 180 c 0,210,211
 360 192 360 192 360 212 c 0,212,213
 360 230 360 230 373 244 c 0,214,215
 379 250 379 250 386 254 c 1,216,-1
 386 254 l 1,217,218
 379 257 379 257 373 263 c 0,219,220
 360 276 360 276 360 296 c 0,221,222
 360 314 360 314 373 328 c 256,223,224
 386 341 386 341 406 342 c 256,225,226
 425 342 425 342 438 328 c 256,227,228
 451 315 451 315 452 296 c 0,229,230
 452 277 452 277 438 263 c 0,231,232
 432 257 432 257 425 254 c 1,233,-1
 425 254 l 1,234,235
 432 251 432 251 438 244 c 0,236,237
 451 230 451 230 452 212 c 0,238,239
 452 193 452 193 438 180 c 0,240,241
 432 174 432 174 425 171 c 1,242,-1
 425 171 l 1,243,244
 432 168 432 168 438 162 c 0,245,246
 451 149 451 149 452 129 c 256,247,248
 452 110 452 110 438 97 c 0,249,250
 432 92 432 92 425 88 c 1,251,-1
 425 88 l 1,252,253
 432 85 432 85 438 78 c 0,254,255
 451 65 451 65 452 46 c 0,256,257
 452 28 452 28 438 13 c 0,258,259
 425 0 425 0 406 0 c 1,260,-1
 406 0 l 1,190,191
106 333 m 1,261,262
 87 333 87 333 73 347 c 256,263,264
 60 360 60 360 60 379 c 0,265,266
 60 398 60 398 73 412 c 256,267,268
 86 425 86 425 106 425 c 0,269,270
 124 425 124 425 138 412 c 0,271,272
 151 399 151 399 152 379 c 0,273,274
 152 361 152 361 138 347 c 0,275,276
 124 334 124 334 106 333 c 1,277,-1
 106 333 l 1,261,262
346 333 m 1,278,279
 327 333 327 333 313 347 c 256,280,281
 300 360 300 360 300 379 c 0,282,283
 300 398 300 398 313 412 c 256,284,285
 326 425 326 425 346 425 c 0,286,287
 364 425 364 425 378 412 c 256,288,289
 391 399 391 399 392 379 c 0,290,291
 392 361 392 361 378 347 c 256,292,293
 365 334 365 334 346 333 c 1,294,-1
 346 333 l 1,278,279
166 417 m 1,295,296
 148 417 148 417 133 430 c 0,297,298
 120 444 120 444 120 462 c 0,299,300
 120 481 120 481 133 495 c 0,301,302
 147 508 147 508 166 508 c 0,303,304
 185 508 185 508 198 495 c 256,305,306
 211 482 211 482 212 462 c 0,307,308
 212 444 212 444 198 430 c 0,309,310
 185 417 185 417 166 417 c 1,311,-1
 166 417 l 1,295,296
286 417 m 1,312,313
 267 417 267 417 253 430 c 0,314,315
 240 444 240 444 240 462 c 0,316,317
 240 481 240 481 253 495 c 256,318,319
 266 508 266 508 286 508 c 256,320,321
 305 508 305 508 318 495 c 256,322,323
 331 482 331 482 332 462 c 0,324,325
 332 444 332 444 318 430 c 0,326,327
 305 417 305 417 286 417 c 1,328,-1
 286 417 l 1,312,313
226 500 m 1,329,330
 207 500 207 500 193 513 c 256,331,332
 180 526 180 526 180 546 c 256,333,334
 180 565 180 565 193 578 c 256,335,336
 206 591 206 591 226 592 c 0,337,338
 244 592 244 592 258 578 c 0,339,340
 271 565 271 565 272 546 c 256,341,342
 272 527 272 527 258 513 c 0,343,344
 244 500 244 500 226 500 c 1,345,-1
 226 500 l 1,329,330
EndSplineSet
EndChar

StartChar: B
Encoding: 66 66 34
Width: 600
VWidth: 833
Flags: W
LayerCount: 2
Fore
SplineSet
46 -167 m 1,0,1
 28 -167 28 -167 13 -153 c 0,2,3
 0 -140 0 -140 0 -121 c 0,4,5
 0 -103 0 -103 13 -88 c 0,6,7
 27 -75 27 -75 46 -75 c 0,8,9
 65 -75 65 -75 78 -88 c 256,10,11
 91 -101 91 -101 92 -121 c 0,12,13
 92 -140 92 -140 78 -153 c 256,14,15
 65 -166 65 -166 46 -167 c 1,16,-1
 46 -167 l 1,0,1
166 -167 m 1,17,18
 148 -167 148 -167 133 -153 c 0,19,20
 120 -140 120 -140 120 -121 c 0,21,22
 120 -103 120 -103 133 -88 c 0,23,24
 147 -75 147 -75 166 -75 c 0,25,26
 185 -75 185 -75 198 -88 c 256,27,28
 211 -101 211 -101 212 -121 c 0,29,30
 212 -140 212 -140 198 -153 c 256,31,32
 185 -166 185 -166 166 -167 c 1,33,-1
 166 -167 l 1,17,18
286 -167 m 1,34,35
 267 -167 267 -167 253 -153 c 256,36,37
 240 -140 240 -140 240 -121 c 0,38,39
 240 -103 240 -103 253 -88 c 256,40,41
 266 -75 266 -75 286 -75 c 256,42,43
 305 -75 305 -75 318 -88 c 256,44,45
 331 -101 331 -101 332 -121 c 0,46,47
 332 -140 332 -140 318 -153 c 256,48,49
 305 -166 305 -166 286 -167 c 1,50,-1
 286 -167 l 1,34,35
406 -167 m 1,51,52
 387 -167 387 -167 373 -153 c 256,53,54
 360 -140 360 -140 360 -121 c 0,55,56
 360 -103 360 -103 373 -88 c 256,57,58
 386 -75 386 -75 406 -75 c 256,59,60
 425 -75 425 -75 438 -88 c 256,61,62
 451 -101 451 -101 452 -121 c 0,63,64
 452 -140 452 -140 438 -153 c 256,65,66
 425 -166 425 -166 406 -167 c 1,67,-1
 406 -167 l 1,51,52
526 -167 m 1,68,69
 507 -167 507 -167 493 -153 c 256,70,71
 480 -140 480 -140 480 -121 c 0,72,73
 480 -103 480 -103 493 -88 c 256,74,75
 506 -75 506 -75 526 -75 c 256,76,77
 545 -75 545 -75 558 -88 c 256,78,79
 571 -101 571 -101 572 -121 c 0,80,81
 572 -140 572 -140 558 -153 c 256,82,83
 545 -166 545 -166 526 -167 c 1,84,-1
 526 -167 l 1,68,69
166 0 m 1,85,86
 148 0 148 0 133 13 c 0,87,88
 120 27 120 27 120 46 c 0,89,90
 120 65 120 65 133 78 c 0,91,92
 147 91 147 91 166 92 c 0,93,94
 185 92 185 92 198 78 c 256,95,96
 211 65 211 65 212 46 c 0,97,98
 212 28 212 28 198 13 c 0,99,100
 185 0 185 0 166 0 c 1,101,-1
 166 0 l 1,85,86
286 0 m 1,102,103
 267 0 267 0 253 13 c 0,104,105
 240 27 240 27 240 46 c 0,106,107
 240 65 240 65 253 78 c 256,108,109
 266 91 266 91 286 92 c 256,110,111
 305 92 305 92 318 78 c 256,112,113
 331 65 331 65 332 46 c 0,114,115
 332 28 332 28 318 13 c 0,116,117
 305 0 305 0 286 0 c 1,118,-1
 286 0 l 1,102,103
406 83 m 1,119,120
 387 83 387 83 373 97 c 256,121,122
 360 110 360 110 360 129 c 256,123,124
 360 148 360 148 373 162 c 0,125,126
 379 168 379 168 386 171 c 1,127,-1
 386 171 l 1,128,129
 379 174 379 174 373 180 c 0,130,131
 360 192 360 192 360 212 c 0,132,133
 360 230 360 230 373 244 c 256,134,135
 386 257 386 257 406 258 c 256,136,137
 425 258 425 258 438 244 c 256,138,139
 451 230 451 230 452 212 c 0,140,141
 452 193 452 193 438 180 c 0,142,143
 432 174 432 174 425 171 c 1,144,-1
 425 171 l 1,145,146
 432 168 432 168 438 162 c 0,147,148
 451 149 451 149 452 129 c 256,149,150
 452 110 452 110 438 97 c 256,151,152
 425 84 425 84 406 83 c 1,153,-1
 406 83 l 1,119,120
166 250 m 1,154,155
 148 250 148 250 133 263 c 0,156,157
 120 276 120 276 120 296 c 0,158,159
 120 314 120 314 133 328 c 0,160,161
 147 341 147 341 166 342 c 0,162,163
 185 342 185 342 198 328 c 256,164,165
 211 315 211 315 212 296 c 0,166,167
 212 277 212 277 198 263 c 256,168,169
 185 250 185 250 166 250 c 1,170,-1
 166 250 l 1,154,155
286 250 m 1,171,172
 267 250 267 250 253 263 c 256,173,174
 240 276 240 276 240 296 c 0,175,176
 240 314 240 314 253 328 c 256,177,178
 266 341 266 341 286 342 c 256,179,180
 305 342 305 342 318 328 c 256,181,182
 331 315 331 315 332 296 c 0,183,184
 332 277 332 277 318 263 c 256,185,186
 305 250 305 250 286 250 c 1,187,-1
 286 250 l 1,171,172
406 333 m 1,188,189
 387 333 387 333 373 347 c 256,190,191
 360 360 360 360 360 379 c 0,192,193
 360 398 360 398 373 412 c 0,194,195
 379 418 379 418 386 421 c 1,196,-1
 386 421 l 1,197,198
 379 424 379 424 373 430 c 0,199,200
 360 444 360 444 360 462 c 0,201,202
 360 481 360 481 373 495 c 256,203,204
 386 508 386 508 406 508 c 256,205,206
 425 508 425 508 438 495 c 256,207,208
 451 482 451 482 452 462 c 0,209,210
 452 444 452 444 438 430 c 0,211,212
 432 424 432 424 425 421 c 1,213,-1
 425 421 l 1,214,215
 432 418 432 418 438 412 c 0,216,217
 451 399 451 399 452 379 c 0,218,219
 452 361 452 361 438 347 c 256,220,221
 425 334 425 334 406 333 c 1,222,-1
 406 333 l 1,188,189
46 0 m 1,223,224
 28 0 28 0 13 13 c 0,225,226
 0 27 0 27 0 46 c 0,227,228
 0 65 0 65 13 78 c 0,229,230
 19 84 19 84 26 88 c 1,231,-1
 26 88 l 1,232,233
 19 91 19 91 13 97 c 0,234,235
 0 110 0 110 0 129 c 256,236,237
 0 148 0 148 13 162 c 0,238,239
 19 168 19 168 26 171 c 1,240,-1
 26 171 l 1,241,242
 19 174 19 174 13 180 c 0,243,244
 0 192 0 192 0 212 c 0,245,246
 0 230 0 230 13 244 c 0,247,248
 19 250 19 250 26 254 c 1,249,-1
 26 254 l 1,250,251
 19 257 19 257 13 263 c 0,252,253
 0 276 0 276 0 296 c 0,254,255
 0 314 0 314 13 328 c 0,256,257
 19 334 19 334 26 338 c 1,258,-1
 26 338 l 1,259,260
 19 341 19 341 13 347 c 0,261,262
 0 360 0 360 0 379 c 0,263,264
 0 398 0 398 13 412 c 0,265,266
 19 418 19 418 26 421 c 1,267,-1
 26 421 l 1,268,269
 19 424 19 424 13 430 c 0,270,271
 0 444 0 444 0 462 c 0,272,273
 0 481 0 481 13 495 c 0,274,275
 19 501 19 501 26 504 c 1,276,-1
 26 504 l 1,277,278
 19 507 19 507 13 513 c 0,279,280
 0 526 0 526 0 546 c 256,281,282
 0 565 0 565 13 578 c 0,283,284
 27 591 27 591 46 592 c 0,285,286
 65 592 65 592 78 578 c 256,287,288
 91 565 91 565 92 546 c 256,289,290
 92 527 92 527 78 513 c 0,291,292
 72 507 72 507 65 504 c 1,293,-1
 65 504 l 1,294,295
 73 501 73 501 78 495 c 0,296,297
 91 482 91 482 92 462 c 0,298,299
 92 444 92 444 78 430 c 0,300,301
 72 424 72 424 65 421 c 1,302,-1
 65 421 l 1,303,304
 73 418 73 418 78 412 c 0,305,306
 91 399 91 399 92 379 c 0,307,308
 92 361 92 361 78 347 c 0,309,310
 72 342 72 342 65 338 c 1,311,-1
 65 338 l 1,312,313
 73 335 73 335 78 328 c 0,314,315
 91 315 91 315 92 296 c 0,316,317
 92 277 92 277 78 263 c 0,318,319
 72 257 72 257 65 254 c 1,320,-1
 65 254 l 1,321,322
 73 251 73 251 78 244 c 0,323,324
 91 230 91 230 92 212 c 0,325,326
 92 193 92 193 78 180 c 0,327,328
 72 174 72 174 65 171 c 1,329,-1
 65 171 l 1,330,331
 73 168 73 168 78 162 c 0,332,333
 91 149 91 149 92 129 c 256,334,335
 92 110 92 110 78 97 c 0,336,337
 72 92 72 92 65 88 c 1,338,-1
 65 88 l 1,339,340
 73 85 73 85 78 78 c 0,341,342
 91 65 91 65 92 46 c 0,343,344
 92 28 92 28 78 13 c 0,345,346
 65 0 65 0 46 0 c 1,347,-1
 46 0 l 1,223,224
166 500 m 1,348,349
 148 500 148 500 133 513 c 0,350,351
 120 526 120 526 120 546 c 256,352,353
 120 565 120 565 133 578 c 0,354,355
 147 591 147 591 166 592 c 0,356,357
 185 592 185 592 198 578 c 256,358,359
 211 565 211 565 212 546 c 256,360,361
 212 527 212 527 198 513 c 256,362,363
 185 500 185 500 166 500 c 1,364,-1
 166 500 l 1,348,349
286 500 m 1,365,366
 267 500 267 500 253 513 c 256,367,368
 240 526 240 526 240 546 c 256,369,370
 240 565 240 565 253 578 c 256,371,372
 266 591 266 591 286 592 c 256,373,374
 305 592 305 592 318 578 c 256,375,376
 331 565 331 565 332 546 c 256,377,378
 332 527 332 527 318 513 c 256,379,380
 305 500 305 500 286 500 c 1,381,-1
 286 500 l 1,365,366
EndSplineSet
EndChar

StartChar: C
Encoding: 67 67 35
Width: 600
VWidth: 833
Flags: W
LayerCount: 2
Fore
SplineSet
46 -167 m 1,0,1
 28 -167 28 -167 13 -153 c 0,2,3
 0 -140 0 -140 0 -121 c 0,4,5
 0 -103 0 -103 13 -88 c 0,6,7
 27 -75 27 -75 46 -75 c 0,8,9
 65 -75 65 -75 78 -88 c 256,10,11
 91 -101 91 -101 92 -121 c 0,12,13
 92 -140 92 -140 78 -153 c 256,14,15
 65 -166 65 -166 46 -167 c 1,16,-1
 46 -167 l 1,0,1
166 -167 m 1,17,18
 148 -167 148 -167 133 -153 c 0,19,20
 120 -140 120 -140 120 -121 c 0,21,22
 120 -103 120 -103 133 -88 c 0,23,24
 147 -75 147 -75 166 -75 c 0,25,26
 185 -75 185 -75 198 -88 c 256,27,28
 211 -101 211 -101 212 -121 c 0,29,30
 212 -140 212 -140 198 -153 c 256,31,32
 185 -166 185 -166 166 -167 c 1,33,-1
 166 -167 l 1,17,18
286 -167 m 1,34,35
 267 -167 267 -167 253 -153 c 256,36,37
 240 -140 240 -140 240 -121 c 0,38,39
 240 -103 240 -103 253 -88 c 256,40,41
 266 -75 266 -75 286 -75 c 256,42,43
 305 -75 305 -75 318 -88 c 256,44,45
 331 -101 331 -101 332 -121 c 0,46,47
 332 -140 332 -140 318 -153 c 256,48,49
 305 -166 305 -166 286 -167 c 1,50,-1
 286 -167 l 1,34,35
406 -167 m 1,51,52
 387 -167 387 -167 373 -153 c 256,53,54
 360 -140 360 -140 360 -121 c 0,55,56
 360 -103 360 -103 373 -88 c 256,57,58
 386 -75 386 -75 406 -75 c 256,59,60
 425 -75 425 -75 438 -88 c 256,61,62
 451 -101 451 -101 452 -121 c 0,63,64
 452 -140 452 -140 438 -153 c 256,65,66
 425 -166 425 -166 406 -167 c 1,67,-1
 406 -167 l 1,51,52
526 -167 m 1,68,69
 507 -167 507 -167 493 -153 c 256,70,71
 480 -140 480 -140 480 -121 c 0,72,73
 480 -103 480 -103 493 -88 c 256,74,75
 506 -75 506 -75 526 -75 c 256,76,77
 545 -75 545 -75 558 -88 c 256,78,79
 571 -101 571 -101 572 -121 c 0,80,81
 572 -140 572 -140 558 -153 c 256,82,83
 545 -166 545 -166 526 -167 c 1,84,-1
 526 -167 l 1,68,69
106 0 m 1,85,86
 87 0 87 0 73 13 c 0,87,88
 60 27 60 27 60 46 c 0,89,90
 60 65 60 65 73 78 c 256,91,92
 86 91 86 91 106 92 c 0,93,94
 124 92 124 92 138 78 c 0,95,96
 151 65 151 65 152 46 c 0,97,98
 152 28 152 28 138 13 c 0,99,100
 124 0 124 0 106 0 c 1,101,-1
 106 0 l 1,85,86
226 0 m 1,102,103
 207 0 207 0 193 13 c 0,104,105
 180 27 180 27 180 46 c 0,106,107
 180 65 180 65 193 78 c 256,108,109
 206 91 206 91 226 92 c 0,110,111
 244 92 244 92 258 78 c 0,112,113
 271 65 271 65 272 46 c 0,114,115
 272 28 272 28 258 13 c 0,116,117
 244 0 244 0 226 0 c 1,118,-1
 226 0 l 1,102,103
346 0 m 1,119,120
 327 0 327 0 313 13 c 0,121,122
 300 27 300 27 300 46 c 0,123,124
 300 65 300 65 313 78 c 256,125,126
 326 91 326 91 346 92 c 0,127,128
 364 92 364 92 378 78 c 256,129,130
 391 65 391 65 392 46 c 0,131,132
 392 28 392 28 378 13 c 0,133,134
 365 0 365 0 346 0 c 1,135,-1
 346 0 l 1,119,120
406 83 m 1,136,137
 387 83 387 83 373 97 c 256,138,139
 360 110 360 110 360 129 c 256,140,141
 360 148 360 148 373 162 c 256,142,143
 386 175 386 175 406 175 c 256,144,145
 425 175 425 175 438 162 c 256,146,147
 451 149 451 149 452 129 c 256,148,149
 452 110 452 110 438 97 c 256,150,151
 425 84 425 84 406 83 c 1,152,-1
 406 83 l 1,136,137
46 83 m 1,153,154
 28 83 28 83 13 97 c 0,155,156
 0 110 0 110 0 129 c 256,157,158
 0 148 0 148 13 162 c 0,159,160
 19 168 19 168 26 171 c 1,161,-1
 26 171 l 1,162,163
 19 174 19 174 13 180 c 0,164,165
 0 192 0 192 0 212 c 0,166,167
 0 230 0 230 13 244 c 0,168,169
 19 250 19 250 26 254 c 1,170,-1
 26 254 l 1,171,172
 19 257 19 257 13 263 c 0,173,174
 0 276 0 276 0 296 c 0,175,176
 0 314 0 314 13 328 c 0,177,178
 19 334 19 334 26 338 c 1,179,-1
 26 338 l 1,180,181
 19 341 19 341 13 347 c 0,182,183
 0 360 0 360 0 379 c 0,184,185
 0 398 0 398 13 412 c 0,186,187
 19 418 19 418 26 421 c 1,188,-1
 26 421 l 1,189,190
 19 424 19 424 13 430 c 0,191,192
 0 444 0 444 0 462 c 0,193,194
 0 481 0 481 13 495 c 0,195,196
 27 508 27 508 46 508 c 0,197,198
 65 508 65 508 78 495 c 256,199,200
 91 482 91 482 92 462 c 0,201,202
 92 444 92 444 78 430 c 0,203,204
 72 424 72 424 65 421 c 1,205,-1
 65 421 l 1,206,207
 73 418 73 418 78 412 c 0,208,209
 91 399 91 399 92 379 c 0,210,211
 92 361 92 361 78 347 c 0,212,213
 72 342 72 342 65 338 c 1,214,-1
 65 338 l 1,215,216
 73 335 73 335 78 328 c 0,217,218
 91 315 91 315 92 296 c 0,219,220
 92 277 92 277 78 263 c 0,221,222
 72 257 72 257 65 254 c 1,223,-1
 65 254 l 1,224,225
 73 251 73 251 78 244 c 0,226,227
 91 230 91 230 92 212 c 0,228,229
 92 193 92 193 78 180 c 0,230,231
 72 174 72 174 65 171 c 1,232,-1
 65 171 l 1,233,234
 73 168 73 168 78 162 c 0,235,236
 91 149 91 149 92 129 c 256,237,238
 92 110 92 110 78 97 c 256,239,240
 65 84 65 84 46 83 c 1,241,-1
 46 83 l 1,153,154
406 417 m 1,242,243
 387 417 387 417 373 430 c 0,244,245
 360 444 360 444 360 462 c 0,246,247
 360 481 360 481 373 495 c 256,248,249
 386 508 386 508 406 508 c 256,250,251
 425 508 425 508 438 495 c 256,252,253
 451 482 451 482 452 462 c 0,254,255
 452 444 452 444 438 430 c 0,256,257
 425 417 425 417 406 417 c 1,258,-1
 406 417 l 1,242,243
106 500 m 1,259,260
 87 500 87 500 73 513 c 256,261,262
 60 526 60 526 60 546 c 256,263,264
 60 565 60 565 73 578 c 256,265,266
 86 591 86 591 106 592 c 0,267,268
 124 592 124 592 138 578 c 0,269,270
 151 565 151 565 152 546 c 256,271,272
 152 527 152 527 138 513 c 0,273,274
 124 500 124 500 106 500 c 1,275,-1
 106 500 l 1,259,260
226 500 m 1,276,277
 207 500 207 500 193 513 c 256,278,279
 180 526 180 526 180 546 c 256,280,281
 180 565 180 565 193 578 c 256,282,283
 206 591 206 591 226 592 c 0,284,285
 244 592 244 592 258 578 c 0,286,287
 271 565 271 565 272 546 c 256,288,289
 272 527 272 527 258 513 c 0,290,291
 244 500 244 500 226 500 c 1,292,-1
 226 500 l 1,276,277
346 500 m 1,293,294
 327 500 327 500 313 513 c 256,295,296
 300 526 300 526 300 546 c 256,297,298
 300 565 300 565 313 578 c 256,299,300
 326 591 326 591 346 592 c 0,301,302
 364 592 364 592 378 578 c 256,303,304
 391 565 391 565 392 546 c 256,305,306
 392 527 392 527 378 513 c 256,307,308
 365 500 365 500 346 500 c 1,309,-1
 346 500 l 1,293,294
EndSplineSet
EndChar

StartChar: D
Encoding: 68 68 36
Width: 600
VWidth: 833
Flags: W
LayerCount: 2
Fore
SplineSet
46 -167 m 1,0,1
 28 -167 28 -167 13 -153 c 0,2,3
 0 -140 0 -140 0 -121 c 0,4,5
 0 -103 0 -103 13 -88 c 0,6,7
 27 -75 27 -75 46 -75 c 0,8,9
 65 -75 65 -75 78 -88 c 256,10,11
 91 -101 91 -101 92 -121 c 0,12,13
 92 -140 92 -140 78 -153 c 256,14,15
 65 -166 65 -166 46 -167 c 1,16,-1
 46 -167 l 1,0,1
166 -167 m 1,17,18
 148 -167 148 -167 133 -153 c 0,19,20
 120 -140 120 -140 120 -121 c 0,21,22
 120 -103 120 -103 133 -88 c 0,23,24
 147 -75 147 -75 166 -75 c 0,25,26
 185 -75 185 -75 198 -88 c 256,27,28
 211 -101 211 -101 212 -121 c 0,29,30
 212 -140 212 -140 198 -153 c 256,31,32
 185 -166 185 -166 166 -167 c 1,33,-1
 166 -167 l 1,17,18
286 -167 m 1,34,35
 267 -167 267 -167 253 -153 c 256,36,37
 240 -140 240 -140 240 -121 c 0,38,39
 240 -103 240 -103 253 -88 c 256,40,41
 266 -75 266 -75 286 -75 c 256,42,43
 305 -75 305 -75 318 -88 c 256,44,45
 331 -101 331 -101 332 -121 c 0,46,47
 332 -140 332 -140 318 -153 c 256,48,49
 305 -166 305 -166 286 -167 c 1,50,-1
 286 -167 l 1,34,35
406 -167 m 1,51,52
 387 -167 387 -167 373 -153 c 256,53,54
 360 -140 360 -140 360 -121 c 0,55,56
 360 -103 360 -103 373 -88 c 256,57,58
 386 -75 386 -75 406 -75 c 256,59,60
 425 -75 425 -75 438 -88 c 256,61,62
 451 -101 451 -101 452 -121 c 0,63,64
 452 -140 452 -140 438 -153 c 256,65,66
 425 -166 425 -166 406 -167 c 1,67,-1
 406 -167 l 1,51,52
526 -167 m 1,68,69
 507 -167 507 -167 493 -153 c 256,70,71
 480 -140 480 -140 480 -121 c 0,72,73
 480 -103 480 -103 493 -88 c 256,74,75
 506 -75 506 -75 526 -75 c 256,76,77
 545 -75 545 -75 558 -88 c 256,78,79
 571 -101 571 -101 572 -121 c 0,80,81
 572 -140 572 -140 558 -153 c 256,82,83
 545 -166 545 -166 526 -167 c 1,84,-1
 526 -167 l 1,68,69
166 0 m 1,85,86
 148 0 148 0 133 13 c 0,87,88
 120 27 120 27 120 46 c 0,89,90
 120 65 120 65 133 78 c 0,91,92
 147 91 147 91 166 92 c 0,93,94
 185 92 185 92 198 78 c 256,95,96
 211 65 211 65 212 46 c 0,97,98
 212 28 212 28 198 13 c 0,99,100
 185 0 185 0 166 0 c 1,101,-1
 166 0 l 1,85,86
286 0 m 1,102,103
 267 0 267 0 253 13 c 0,104,105
 240 27 240 27 240 46 c 0,106,107
 240 65 240 65 253 78 c 256,108,109
 266 91 266 91 286 92 c 256,110,111
 305 92 305 92 318 78 c 256,112,113
 331 65 331 65 332 46 c 0,114,115
 332 28 332 28 318 13 c 0,116,117
 305 0 305 0 286 0 c 1,118,-1
 286 0 l 1,102,103
346 83 m 1,119,120
 327 83 327 83 313 97 c 256,121,122
 300 110 300 110 300 129 c 256,123,124
 300 148 300 148 313 162 c 256,125,126
 326 175 326 175 346 175 c 0,127,128
 364 175 364 175 378 162 c 256,129,130
 391 149 391 149 392 129 c 256,131,132
 392 110 392 110 378 97 c 256,133,134
 365 84 365 84 346 83 c 1,135,-1
 346 83 l 1,119,120
406 167 m 1,136,137
 387 167 387 167 373 180 c 256,138,139
 360 192 360 192 360 212 c 0,140,141
 360 230 360 230 373 244 c 0,142,143
 379 250 379 250 386 254 c 1,144,-1
 386 254 l 1,145,146
 379 257 379 257 373 263 c 0,147,148
 360 276 360 276 360 296 c 0,149,150
 360 314 360 314 373 328 c 0,151,152
 379 334 379 334 386 338 c 1,153,-1
 386 338 l 1,154,155
 379 341 379 341 373 347 c 0,156,157
 360 360 360 360 360 379 c 0,158,159
 360 398 360 398 373 412 c 256,160,161
 386 425 386 425 406 425 c 256,162,163
 425 425 425 425 438 412 c 256,164,165
 451 399 451 399 452 379 c 0,166,167
 452 361 452 361 438 347 c 0,168,169
 432 342 432 342 425 338 c 1,170,-1
 425 338 l 1,171,172
 432 335 432 335 438 328 c 0,173,174
 451 315 451 315 452 296 c 0,175,176
 452 277 452 277 438 263 c 0,177,178
 432 257 432 257 425 254 c 1,179,-1
 425 254 l 1,180,181
 432 251 432 251 438 244 c 0,182,183
 451 230 451 230 452 212 c 0,184,185
 452 193 452 193 438 180 c 256,186,187
 425 167 425 167 406 167 c 1,188,-1
 406 167 l 1,136,137
346 417 m 1,189,190
 327 417 327 417 313 430 c 0,191,192
 300 444 300 444 300 462 c 0,193,194
 300 481 300 481 313 495 c 256,195,196
 326 508 326 508 346 508 c 0,197,198
 364 508 364 508 378 495 c 256,199,200
 391 482 391 482 392 462 c 0,201,202
 392 444 392 444 378 430 c 0,203,204
 365 417 365 417 346 417 c 1,205,-1
 346 417 l 1,189,190
46 0 m 1,206,207
 28 0 28 0 13 13 c 0,208,209
 0 27 0 27 0 46 c 0,210,211
 0 65 0 65 13 78 c 0,212,213
 19 84 19 84 26 88 c 1,214,-1
 26 88 l 1,215,216
 19 91 19 91 13 97 c 0,217,218
 0 110 0 110 0 129 c 256,219,220
 0 148 0 148 13 162 c 0,221,222
 19 168 19 168 26 171 c 1,223,-1
 26 171 l 1,224,225
 19 174 19 174 13 180 c 0,226,227
 0 192 0 192 0 212 c 0,228,229
 0 230 0 230 13 244 c 0,230,231
 19 250 19 250 26 254 c 1,232,-1
 26 254 l 1,233,234
 19 257 19 257 13 263 c 0,235,236
 0 276 0 276 0 296 c 0,237,238
 0 314 0 314 13 328 c 0,239,240
 19 334 19 334 26 338 c 1,241,-1
 26 338 l 1,242,243
 19 341 19 341 13 347 c 0,244,245
 0 360 0 360 0 379 c 0,246,247
 0 398 0 398 13 412 c 0,248,249
 19 418 19 418 26 421 c 1,250,-1
 26 421 l 1,251,252
 19 424 19 424 13 430 c 0,253,254
 0 444 0 444 0 462 c 0,255,256
 0 481 0 481 13 495 c 0,257,258
 19 501 19 501 26 504 c 1,259,-1
 26 504 l 1,260,261
 19 507 19 507 13 513 c 0,262,263
 0 526 0 526 0 546 c 256,264,265
 0 565 0 565 13 578 c 0,266,267
 27 591 27 591 46 592 c 0,268,269
 65 592 65 592 78 578 c 256,270,271
 91 565 91 565 92 546 c 256,272,273
 92 527 92 527 78 513 c 0,274,275
 72 507 72 507 65 504 c 1,276,-1
 65 504 l 1,277,278
 73 501 73 501 78 495 c 0,279,280
 91 482 91 482 92 462 c 0,281,282
 92 444 92 444 78 430 c 0,283,284
 72 424 72 424 65 421 c 1,285,-1
 65 421 l 1,286,287
 73 418 73 418 78 412 c 0,288,289
 91 399 91 399 92 379 c 0,290,291
 92 361 92 361 78 347 c 0,292,293
 72 342 72 342 65 338 c 1,294,-1
 65 338 l 1,295,296
 73 335 73 335 78 328 c 0,297,298
 91 315 91 315 92 296 c 0,299,300
 92 277 92 277 78 263 c 0,301,302
 72 257 72 257 65 254 c 1,303,-1
 65 254 l 1,304,305
 73 251 73 251 78 244 c 0,306,307
 91 230 91 230 92 212 c 0,308,309
 92 193 92 193 78 180 c 0,310,311
 72 174 72 174 65 171 c 1,312,-1
 65 171 l 1,313,314
 73 168 73 168 78 162 c 0,315,316
 91 149 91 149 92 129 c 256,317,318
 92 110 92 110 78 97 c 0,319,320
 72 92 72 92 65 88 c 1,321,-1
 65 88 l 1,322,323
 73 85 73 85 78 78 c 0,324,325
 91 65 91 65 92 46 c 0,326,327
 92 28 92 28 78 13 c 0,328,329
 65 0 65 0 46 0 c 1,330,-1
 46 0 l 1,206,207
166 500 m 1,331,332
 148 500 148 500 133 513 c 0,333,334
 120 526 120 526 120 546 c 256,335,336
 120 565 120 565 133 578 c 0,337,338
 147 591 147 591 166 592 c 0,339,340
 185 592 185 592 198 578 c 256,341,342
 211 565 211 565 212 546 c 256,343,344
 212 527 212 527 198 513 c 256,345,346
 185 500 185 500 166 500 c 1,347,-1
 166 500 l 1,331,332
286 500 m 1,348,349
 267 500 267 500 253 513 c 256,350,351
 240 526 240 526 240 546 c 256,352,353
 240 565 240 565 253 578 c 256,354,355
 266 591 266 591 286 592 c 256,356,357
 305 592 305 592 318 578 c 256,358,359
 331 565 331 565 332 546 c 256,360,361
 332 527 332 527 318 513 c 256,362,363
 305 500 305 500 286 500 c 1,364,-1
 286 500 l 1,348,349
EndSplineSet
EndChar

